<?xml version="1.0" encoding="UTF-8" standalone="no"?>
<!-- Generated by graphviz version 2.36.0 (20140111.2315)
 -->

<!-- Title: %3 Pages: 1 -->

<svg
   width="108.414pt"
   height="92.984947pt"
   viewBox="0 0 108.41399 92.984947"
   id="svg2"
   version="1.1"
   xmlns="http://www.w3.org/2000/svg"
   xmlns:svg="http://www.w3.org/2000/svg"
   xmlns:rdf="http://www.w3.org/1999/02/22-rdf-syntax-ns#"
   xmlns:cc="http://creativecommons.org/ns#"
   xmlns:dc="http://purl.org/dc/elements/1.1/">
  <metadata
     id="metadata412">
    <rdf:RDF>
      <cc:Work
         rdf:about="">
        <dc:format>image/svg+xml</dc:format>
        <dc:type
           rdf:resource="http://purl.org/dc/dcmitype/StillImage" />
        <dc:title />
      </cc:Work>
    </rdf:RDF>
  </metadata>
  <defs
     id="defs410">
    <marker
       style="overflow:visible"
       id="marker12413"
       refX="0"
       refY="0"
       orient="auto">
      <path
         transform="matrix(-0.4,0,0,-0.4,-4,0)"
         style="fill:#000000;fill-opacity:1;fill-rule:evenodd;stroke:#000000;stroke-width:1pt;stroke-opacity:1"
         d="M 0,0 5,-5 -12.5,0 5,5 Z"
         id="path12411" />
    </marker>
    <marker
       orient="auto"
       refY="0"
       refX="0"
       id="marker12109"
       style="overflow:visible">
      <path
         id="path12107"
         d="M 0,0 5,-5 -12.5,0 5,5 Z"
         style="fill:#000000;fill-opacity:1;fill-rule:evenodd;stroke:#000000;stroke-width:1pt;stroke-opacity:1"
         transform="matrix(-0.4,0,0,-0.4,-4,0)" />
    </marker>
    <marker
       style="overflow:visible"
       id="marker11811"
       refX="0"
       refY="0"
       orient="auto">
      <path
         transform="matrix(-0.4,0,0,-0.4,-4,0)"
         style="fill:#000000;fill-opacity:1;fill-rule:evenodd;stroke:#000000;stroke-width:1pt;stroke-opacity:1"
         d="M 0,0 5,-5 -12.5,0 5,5 Z"
         id="path11809" />
    </marker>
    <marker
       style="overflow:visible"
       id="marker11507"
       refX="0"
       refY="0"
       orient="auto">
      <path
         transform="matrix(-0.4,0,0,-0.4,-4,0)"
         style="fill:#000000;fill-opacity:1;fill-rule:evenodd;stroke:#000000;stroke-width:1pt;stroke-opacity:1"
         d="M 0,0 5,-5 -12.5,0 5,5 Z"
         id="path11505" />
    </marker>
    <marker
       orient="auto"
       refY="0"
       refX="0"
       id="marker11221"
       style="overflow:visible">
      <path
         id="path11219"
         d="M 0,0 5,-5 -12.5,0 5,5 Z"
         style="fill:#000000;fill-opacity:1;fill-rule:evenodd;stroke:#000000;stroke-width:1pt;stroke-opacity:1"
         transform="matrix(-0.4,0,0,-0.4,-4,0)" />
    </marker>
    <marker
       style="overflow:visible"
       id="marker10941"
       refX="0"
       refY="0"
       orient="auto">
      <path
         transform="matrix(-0.4,0,0,-0.4,-4,0)"
         style="fill:#000000;fill-opacity:1;fill-rule:evenodd;stroke:#000000;stroke-width:1pt;stroke-opacity:1"
         d="M 0,0 5,-5 -12.5,0 5,5 Z"
         id="path10939" />
    </marker>
    <marker
       style="overflow:visible"
       id="marker10034"
       refX="0"
       refY="0"
       orient="auto">
      <path
         transform="matrix(-0.4,0,0,-0.4,-4,0)"
         style="fill:#000000;fill-opacity:1;fill-rule:evenodd;stroke:#000000;stroke-width:1pt;stroke-opacity:1"
         d="M 0,0 5,-5 -12.5,0 5,5 Z"
         id="path10032" />
    </marker>
    <marker
       orient="auto"
       refY="0"
       refX="0"
       id="marker9230"
       style="overflow:visible">
      <path
         id="path9228"
         d="M 0,0 5,-5 -12.5,0 5,5 Z"
         style="fill:#000000;fill-opacity:1;fill-rule:evenodd;stroke:#000000;stroke-width:1pt;stroke-opacity:1"
         transform="matrix(-0.4,0,0,-0.4,-4,0)" />
    </marker>
    <marker
       style="overflow:visible"
       id="marker8660"
       refX="0"
       refY="0"
       orient="auto">
      <path
         transform="matrix(-0.4,0,0,-0.4,-4,0)"
         style="fill:#000000;fill-opacity:1;fill-rule:evenodd;stroke:#000000;stroke-width:1pt;stroke-opacity:1"
         d="M 0,0 5,-5 -12.5,0 5,5 Z"
         id="path8658" />
    </marker>
    <marker
       orient="auto"
       refY="0"
       refX="0"
       id="marker7976"
       style="overflow:visible">
      <path
         id="path7974"
         d="M 0,0 5,-5 -12.5,0 5,5 Z"
         style="fill:#000000;fill-opacity:1;fill-rule:evenodd;stroke:#000000;stroke-width:1pt;stroke-opacity:1"
         transform="matrix(-0.4,0,0,-0.4,-4,0)" />
    </marker>
    <marker
       style="overflow:visible"
       id="marker7202"
       refX="0"
       refY="0"
       orient="auto">
      <path
         transform="matrix(-0.4,0,0,-0.4,-4,0)"
         style="fill:#000000;fill-opacity:1;fill-rule:evenodd;stroke:#000000;stroke-width:1pt;stroke-opacity:1"
         d="M 0,0 5,-5 -12.5,0 5,5 Z"
         id="path7200" />
    </marker>
    <marker
       orient="auto"
       refY="0"
       refX="0"
       id="marker6950"
       style="overflow:visible">
      <path
         id="path6948"
         d="M 0,0 5,-5 -12.5,0 5,5 Z"
         style="fill:#000000;fill-opacity:1;fill-rule:evenodd;stroke:#000000;stroke-width:1pt;stroke-opacity:1"
         transform="matrix(-0.4,0,0,-0.4,-4,0)" />
    </marker>
    <marker
       style="overflow:visible"
       id="marker6710"
       refX="0"
       refY="0"
       orient="auto">
      <path
         transform="matrix(-0.4,0,0,-0.4,-4,0)"
         style="fill:#000000;fill-opacity:1;fill-rule:evenodd;stroke:#000000;stroke-width:1pt;stroke-opacity:1"
         d="M 0,0 5,-5 -12.5,0 5,5 Z"
         id="path6708" />
    </marker>
    <marker
       orient="auto"
       refY="0"
       refX="0"
       id="marker6292"
       style="overflow:visible">
      <path
         id="path6290"
         d="M 0,0 5,-5 -12.5,0 5,5 Z"
         style="fill:#000000;fill-opacity:1;fill-rule:evenodd;stroke:#000000;stroke-width:1pt;stroke-opacity:1"
         transform="matrix(-0.4,0,0,-0.4,-4,0)" />
    </marker>
    <marker
       style="overflow:visible"
       id="marker5908"
       refX="0"
       refY="0"
       orient="auto">
      <path
         transform="matrix(-0.4,0,0,-0.4,-4,0)"
         style="fill:#000000;fill-opacity:1;fill-rule:evenodd;stroke:#000000;stroke-width:1pt;stroke-opacity:1"
         d="M 0,0 5,-5 -12.5,0 5,5 Z"
         id="path5906" />
    </marker>
    <marker
       orient="auto"
       refY="0"
       refX="0"
       id="marker5548"
       style="overflow:visible">
      <path
         id="path5546"
         d="M 0,0 5,-5 -12.5,0 5,5 Z"
         style="fill:#000000;fill-opacity:1;fill-rule:evenodd;stroke:#000000;stroke-width:1pt;stroke-opacity:1"
         transform="matrix(-0.4,0,0,-0.4,-4,0)" />
    </marker>
    <marker
       style="overflow:visible"
       id="marker5032"
       refX="0"
       refY="0"
       orient="auto">
      <path
         transform="matrix(-0.4,0,0,-0.4,-4,0)"
         style="fill:#000000;fill-opacity:1;fill-rule:evenodd;stroke:#000000;stroke-width:1pt;stroke-opacity:1"
         d="M 0,0 5,-5 -12.5,0 5,5 Z"
         id="path5030" />
    </marker>
    <marker
       orient="auto"
       refY="0"
       refX="0"
       id="marker4660"
       style="overflow:visible">
      <path
         id="path4658"
         d="M 0,0 5,-5 -12.5,0 5,5 Z"
         style="fill:#000000;fill-opacity:1;fill-rule:evenodd;stroke:#000000;stroke-width:1pt;stroke-opacity:1"
         transform="matrix(-0.4,0,0,-0.4,-4,0)" />
    </marker>
    <marker
       style="overflow:visible"
       id="marker4306"
       refX="0"
       refY="0"
       orient="auto">
      <path
         transform="matrix(-0.4,0,0,-0.4,-4,0)"
         style="fill:#000000;fill-opacity:1;fill-rule:evenodd;stroke:#000000;stroke-width:1pt;stroke-opacity:1"
         d="M 0,0 5,-5 -12.5,0 5,5 Z"
         id="path4304" />
    </marker>
    <marker
       orient="auto"
       refY="0"
       refX="0"
       id="marker4108"
       style="overflow:visible">
      <path
         id="path4106"
         d="M 0,0 5,-5 -12.5,0 5,5 Z"
         style="fill:#000000;fill-opacity:1;fill-rule:evenodd;stroke:#000000;stroke-width:1pt;stroke-opacity:1"
         transform="matrix(-0.4,0,0,-0.4,-4,0)" />
    </marker>
    <marker
       orient="auto"
       refY="0"
       refX="0"
       id="marker3826"
       style="overflow:visible">
      <path
         id="path3824"
         d="M 0,0 5,-5 -12.5,0 5,5 Z"
         style="fill:#000000;fill-opacity:1;fill-rule:evenodd;stroke:#000000;stroke-width:1pt;stroke-opacity:1"
         transform="matrix(-0.4,0,0,-0.4,-4,0)" />
    </marker>
    <marker
       orient="auto"
       refY="0"
       refX="0"
       id="marker3638"
       style="overflow:visible">
      <path
         id="path3636"
         d="M 0,0 5,-5 -12.5,0 5,5 Z"
         style="fill:#000000;fill-opacity:1;fill-rule:evenodd;stroke:#000000;stroke-width:1pt;stroke-opacity:1"
         transform="matrix(-0.4,0,0,-0.4,-4,0)" />
    </marker>
    <marker
       style="overflow:visible"
       id="marker3448"
       refX="0"
       refY="0"
       orient="auto">
      <path
         transform="matrix(-0.4,0,0,-0.4,-4,0)"
         style="fill:#000000;fill-opacity:1;fill-rule:evenodd;stroke:#000000;stroke-width:1pt;stroke-opacity:1"
         d="M 0,0 5,-5 -12.5,0 5,5 Z"
         id="path3446" />
    </marker>
    <marker
       style="overflow:visible"
       id="marker3282"
       refX="0"
       refY="0"
       orient="auto">
      <path
         transform="matrix(-0.4,0,0,-0.4,-4,0)"
         style="fill:#000000;fill-opacity:1;fill-rule:evenodd;stroke:#000000;stroke-width:1pt;stroke-opacity:1"
         d="M 0,0 5,-5 -12.5,0 5,5 Z"
         id="path3280" />
    </marker>
    <marker
       style="overflow:visible"
       id="marker3122"
       refX="0"
       refY="0"
       orient="auto">
      <path
         transform="matrix(-0.4,0,0,-0.4,-4,0)"
         style="fill:#000000;fill-opacity:1;fill-rule:evenodd;stroke:#000000;stroke-width:1pt;stroke-opacity:1"
         d="M 0,0 5,-5 -12.5,0 5,5 Z"
         id="path3120" />
    </marker>
    <marker
       style="overflow:visible"
       id="marker2800"
       refX="0"
       refY="0"
       orient="auto">
      <path
         transform="matrix(-0.4,0,0,-0.4,-4,0)"
         style="fill:#000000;fill-opacity:1;fill-rule:evenodd;stroke:#000000;stroke-width:1pt;stroke-opacity:1"
         d="M 0,0 5,-5 -12.5,0 5,5 Z"
         id="path2798" />
    </marker>
    <marker
       style="overflow:visible"
       id="marker2790"
       refX="0"
       refY="0"
       orient="auto">
      <path
         transform="matrix(-0.4,0,0,-0.4,-4,0)"
         style="fill:#000000;fill-opacity:1;fill-rule:evenodd;stroke:#000000;stroke-width:1pt;stroke-opacity:1"
         d="M 0,0 5,-5 -12.5,0 5,5 Z"
         id="path2788" />
    </marker>
    <marker
       style="overflow:visible"
       id="marker2636"
       refX="0"
       refY="0"
       orient="auto">
      <path
         transform="matrix(-0.4,0,0,-0.4,-4,0)"
         style="fill:#000000;fill-opacity:1;fill-rule:evenodd;stroke:#000000;stroke-width:1pt;stroke-opacity:1"
         d="M 0,0 5,-5 -12.5,0 5,5 Z"
         id="path2634" />
    </marker>
    <marker
       orient="auto"
       refY="0"
       refX="0"
       id="marker2568"
       style="overflow:visible">
      <path
         id="path2566"
         d="M 0,0 5,-5 -12.5,0 5,5 Z"
         style="fill:#000000;fill-opacity:1;fill-rule:evenodd;stroke:#000000;stroke-width:1pt;stroke-opacity:1"
         transform="matrix(-0.4,0,0,-0.4,-4,0)" />
    </marker>
    <marker
       orient="auto"
       refY="0"
       refX="0"
       id="marker1764"
       style="overflow:visible">
      <path
         id="path1762"
         d="M 0,0 5,-5 -12.5,0 5,5 Z"
         style="fill:#000000;fill-opacity:1;fill-rule:evenodd;stroke:#000000;stroke-width:1pt;stroke-opacity:1"
         transform="matrix(-0.4,0,0,-0.4,-4,0)" />
    </marker>
    <marker
       orient="auto"
       refY="0"
       refX="0"
       id="marker1926"
       style="overflow:visible">
      <path
         id="path1924"
         d="M 0,0 5,-5 -12.5,0 5,5 Z"
         style="fill:#000000;fill-opacity:1;fill-rule:evenodd;stroke:#000000;stroke-width:1pt;stroke-opacity:1"
         transform="matrix(-0.4,0,0,-0.4,-4,0)" />
    </marker>
    <marker
       style="overflow:visible"
       id="marker1644"
       refX="0"
       refY="0"
       orient="auto">
      <path
         transform="matrix(-0.4,0,0,-0.4,-4,0)"
         style="fill:#000000;fill-opacity:1;fill-rule:evenodd;stroke:#000000;stroke-width:1pt;stroke-opacity:1"
         d="M 0,0 5,-5 -12.5,0 5,5 Z"
         id="path1642" />
    </marker>
    <marker
       orient="auto"
       refY="0"
       refX="0"
       id="marker1308"
       style="overflow:visible">
      <path
         id="path1306"
         d="M 0,0 5,-5 -12.5,0 5,5 Z"
         style="fill:#000000;fill-opacity:1;fill-rule:evenodd;stroke:#000000;stroke-width:1pt;stroke-opacity:1"
         transform="matrix(-0.4,0,0,-0.4,-4,0)" />
    </marker>
    <marker
       style="overflow:visible"
       id="marker8452"
       refX="0"
       refY="0"
       orient="auto">
      <path
         transform="matrix(-0.4,0,0,-0.4,-4,0)"
         style="fill:#000000;fill-opacity:1;fill-rule:evenodd;stroke:#000000;stroke-width:1pt;stroke-opacity:1"
         d="M 0,0 5,-5 -12.5,0 5,5 Z"
         id="path8454" />
    </marker>
    <marker
       style="overflow:visible"
       id="marker7946"
       refX="0"
       refY="0"
       orient="auto">
      <path
         transform="matrix(-0.4,0,0,-0.4,-4,0)"
         style="fill:#000000;fill-opacity:1;fill-rule:evenodd;stroke:#000000;stroke-width:1pt;stroke-opacity:1"
         d="M 0,0 5,-5 -12.5,0 5,5 Z"
         id="path7948" />
    </marker>
    <marker
       orient="auto"
       refY="0"
       refX="0"
       id="marker5667"
       style="overflow:visible">
      <path
         id="path5669"
         d="M 0,0 5,-5 -12.5,0 5,5 Z"
         style="fill:#000000;fill-opacity:1;fill-rule:evenodd;stroke:#000000;stroke-width:1pt;stroke-opacity:1"
         transform="matrix(-0.4,0,0,-0.4,-4,0)" />
    </marker>
    <marker
       style="overflow:visible"
       id="marker5251"
       refX="0"
       refY="0"
       orient="auto">
      <path
         transform="matrix(-0.4,0,0,-0.4,-4,0)"
         style="fill:#000000;fill-opacity:1;fill-rule:evenodd;stroke:#000000;stroke-width:1pt;stroke-opacity:1"
         d="M 0,0 5,-5 -12.5,0 5,5 Z"
         id="path5253" />
    </marker>
    <marker
       orient="auto"
       refY="0"
       refX="0"
       id="marker5155"
       style="overflow:visible">
      <path
         id="path5157"
         d="M 0,0 5,-5 -12.5,0 5,5 Z"
         style="fill:#000000;fill-opacity:1;fill-rule:evenodd;stroke:#000000;stroke-width:1pt;stroke-opacity:1"
         transform="matrix(-0.4,0,0,-0.4,-4,0)" />
    </marker>
    <marker
       style="overflow:visible"
       id="marker4885"
       refX="0"
       refY="0"
       orient="auto">
      <path
         transform="matrix(-0.4,0,0,-0.4,-4,0)"
         style="fill:#000000;fill-opacity:1;fill-rule:evenodd;stroke:#000000;stroke-width:1pt;stroke-opacity:1"
         d="M 0,0 5,-5 -12.5,0 5,5 Z"
         id="path4887" />
    </marker>
    <marker
       orient="auto"
       refY="0"
       refX="0"
       id="Arrow1Lend"
       style="overflow:visible">
      <path
         id="path4244"
         d="M 0,0 5,-5 -12.5,0 5,5 Z"
         style="fill:#000000;fill-opacity:1;fill-rule:evenodd;stroke:#000000;stroke-width:1pt;stroke-opacity:1"
         transform="matrix(-0.8,0,0,-0.8,-10,0)" />
    </marker>
    <marker
       style="overflow:visible"
       id="marker4885-6"
       refX="0"
       refY="0"
       orient="auto">
      <path
         transform="matrix(-0.4,0,0,-0.4,-4,0)"
         style="fill:#000000;fill-opacity:1;fill-rule:evenodd;stroke:#000000;stroke-width:1pt;stroke-opacity:1"
         d="M 0,0 5,-5 -12.5,0 5,5 Z"
         id="path4887-2" />
    </marker>
    <marker
       style="overflow:visible"
       id="marker4827-2"
       refX="0"
       refY="0"
       orient="auto">
      <path
         transform="matrix(-0.4,0,0,-0.4,-4,0)"
         style="fill:#000000;fill-opacity:1;fill-rule:evenodd;stroke:#000000;stroke-width:1pt;stroke-opacity:1"
         d="M 0,0 5,-5 -12.5,0 5,5 Z"
         id="path4829-7" />
    </marker>
    <marker
       style="overflow:visible"
       id="marker7409"
       refX="0"
       refY="0"
       orient="auto">
      <path
         transform="matrix(-0.4,0,0,-0.4,-4,0)"
         style="fill:#000000;fill-opacity:1;fill-rule:evenodd;stroke:#000000;stroke-width:1pt;stroke-opacity:1"
         d="M 0,0 5,-5 -12.5,0 5,5 Z"
         id="path7411" />
    </marker>
    <marker
       style="overflow:visible"
       id="marker5251-3"
       refX="0"
       refY="0"
       orient="auto">
      <path
         transform="matrix(-0.4,0,0,-0.4,-4,0)"
         style="fill:#000000;fill-opacity:1;fill-rule:evenodd;stroke:#000000;stroke-width:1pt;stroke-opacity:1"
         d="M 0,0 5,-5 -12.5,0 5,5 Z"
         id="path5253-6" />
    </marker>
    <marker
       orient="auto"
       refY="0"
       refX="0"
       id="marker5155-0"
       style="overflow:visible">
      <path
         id="path5157-6"
         d="M 0,0 5,-5 -12.5,0 5,5 Z"
         style="fill:#000000;fill-opacity:1;fill-rule:evenodd;stroke:#000000;stroke-width:1pt;stroke-opacity:1"
         transform="matrix(-0.4,0,0,-0.4,-4,0)" />
    </marker>
    <marker
       orient="auto"
       refY="0"
       refX="0"
       id="marker7419"
       style="overflow:visible">
      <path
         id="path7421"
         d="M 0,0 5,-5 -12.5,0 5,5 Z"
         style="fill:#000000;fill-opacity:1;fill-rule:evenodd;stroke:#000000;stroke-width:1pt;stroke-opacity:1"
         transform="matrix(-0.4,0,0,-0.4,-4,0)" />
    </marker>
    <marker
       orient="auto"
       refY="0"
       refX="0"
       id="marker7423"
       style="overflow:visible">
      <path
         id="path7425"
         d="M 0,0 5,-5 -12.5,0 5,5 Z"
         style="fill:#000000;fill-opacity:1;fill-rule:evenodd;stroke:#000000;stroke-width:1pt;stroke-opacity:1"
         transform="matrix(-0.4,0,0,-0.4,-4,0)" />
    </marker>
  </defs>
  <g
     transform="translate(23.351686,5.1071841)"
     id="g4088"
     style="display:inline">
    <path
       d="m 14.165814,72.665949 a 3.9004242,3.9004242 0 0 1 -2.096828,5.101433 3.9004242,3.9004242 0 0 1 -5.1017989,-2.095938 3.9004242,3.9004242 0 0 1 2.0950472,-5.102165 3.9004242,3.9004242 0 0 1 5.1025307,2.094157"
       id="path4026"
       style="opacity:1;fill:#ffffff;fill-opacity:1;stroke:#000000;stroke-width:0.75;stroke-miterlimit:4;stroke-dasharray:none;stroke-dashoffset:0;stroke-opacity:1" />
    <path
       style="opacity:1;fill:#ffffff;fill-opacity:1;stroke:#000000;stroke-width:0.75;stroke-miterlimit:4;stroke-dasharray:none;stroke-dashoffset:0;stroke-opacity:1"
       id="path4028"
       d="m 21.665814,72.665949 a 3.9004242,3.9004242 0 0 1 -2.096828,5.101433 3.9004242,3.9004242 0 0 1 -5.101799,-2.095938 3.9004242,3.9004242 0 0 1 2.095047,-5.102165 3.9004242,3.9004242 0 0 1 5.102531,2.094157" />
    <path
       d="m 36.665814,72.665949 a 3.9004242,3.9004242 0 0 1 -2.096828,5.101433 3.9004242,3.9004242 0 0 1 -5.101799,-2.095938 3.9004242,3.9004242 0 0 1 2.095047,-5.102165 3.9004242,3.9004242 0 0 1 5.102531,2.094157"
       id="path4032"
       style="opacity:1;fill:#ffffff;fill-opacity:1;stroke:#000000;stroke-width:0.75;stroke-miterlimit:4;stroke-dasharray:none;stroke-dashoffset:0;stroke-opacity:1" />
    <path
       d="m 44.165814,72.665949 a 3.9004242,3.9004242 0 0 1 -2.096828,5.101433 3.9004242,3.9004242 0 0 1 -5.101799,-2.095938 3.9004242,3.9004242 0 0 1 2.095047,-5.102165 3.9004242,3.9004242 0 0 1 5.102531,2.094157"
       id="path4034"
       style="opacity:1;fill:#ffffff;fill-opacity:1;stroke:#000000;stroke-width:0.75;stroke-miterlimit:4;stroke-dasharray:none;stroke-dashoffset:0;stroke-opacity:1" />
    <path
       style="opacity:1;fill:#ffffff;fill-opacity:1;stroke:#000000;stroke-width:0.75;stroke-miterlimit:4;stroke-dasharray:none;stroke-dashoffset:0;stroke-opacity:1"
       id="path4036"
       d="m 51.665814,72.665949 a 3.9004242,3.9004242 0 0 1 -2.096828,5.101433 3.9004242,3.9004242 0 0 1 -5.101799,-2.095938 3.9004242,3.9004242 0 0 1 2.095047,-5.102165 3.9004242,3.9004242 0 0 1 5.102531,2.094157" />
    <path
       style="opacity:1;fill:#ffffff;fill-opacity:1;stroke:#000000;stroke-width:0.75;stroke-miterlimit:4;stroke-dasharray:none;stroke-dashoffset:0;stroke-opacity:1"
       id="path4038"
       d="m -0.83418569,42.665949 a 3.9004242,3.9004242 0 0 1 -2.09682831,5.101433 3.9004242,3.9004242 0 0 1 -5.1017989,-2.095938 3.9004242,3.9004242 0 0 1 2.0950472,-5.102165 3.9004242,3.9004242 0 0 1 5.10253035,2.094157" />
    <path
       d="M 6.6658145,42.665949 A 3.9004242,3.9004242 0 0 1 4.5689863,47.767382 3.9004242,3.9004242 0 0 1 -0.53281266,45.671444 3.9004242,3.9004242 0 0 1 1.5622346,40.569279 3.9004242,3.9004242 0 0 1 6.6647649,42.663436"
       id="path4040"
       style="opacity:1;fill:#ffffff;fill-opacity:1;stroke:#000000;stroke-width:0.75;stroke-miterlimit:4;stroke-dasharray:none;stroke-dashoffset:0;stroke-opacity:1" />
    <path
       d="m 14.165814,42.665949 a 3.9004242,3.9004242 0 0 1 -2.096828,5.101433 3.9004242,3.9004242 0 0 1 -5.1017989,-2.095938 3.9004242,3.9004242 0 0 1 2.0950472,-5.102165 3.9004242,3.9004242 0 0 1 5.1025307,2.094157"
       id="path4042"
       style="opacity:1;fill:#ffffff;fill-opacity:1;stroke:#000000;stroke-width:0.75;stroke-miterlimit:4;stroke-dasharray:none;stroke-dashoffset:0;stroke-opacity:1" />
    <path
       style="opacity:1;fill:#ffffff;fill-opacity:1;stroke:#000000;stroke-width:0.75;stroke-miterlimit:4;stroke-dasharray:none;stroke-dashoffset:0;stroke-opacity:1"
       id="path4044"
       d="m 21.665814,42.665949 a 3.9004242,3.9004242 0 0 1 -2.096828,5.101433 3.9004242,3.9004242 0 0 1 -5.101799,-2.095938 3.9004242,3.9004242 0 0 1 2.095047,-5.102165 3.9004242,3.9004242 0 0 1 5.102531,2.094157" />
    <path
       style="opacity:1;fill:#ffffff;fill-opacity:1;stroke:#000000;stroke-width:0.75;stroke-miterlimit:4;stroke-dasharray:none;stroke-dashoffset:0;stroke-opacity:1"
       id="path4046"
       d="m 29.165814,42.665949 a 3.9004242,3.9004242 0 0 1 -2.096828,5.101433 3.9004242,3.9004242 0 0 1 -5.101799,-2.095938 3.9004242,3.9004242 0 0 1 2.095047,-5.102165 3.9004242,3.9004242 0 0 1 5.102531,2.094157" />
    <path
       d="m 36.665814,42.665949 a 3.9004242,3.9004242 0 0 1 -2.096828,5.101433 3.9004242,3.9004242 0 0 1 -5.101799,-2.095938 3.9004242,3.9004242 0 0 1 2.095047,-5.102165 3.9004242,3.9004242 0 0 1 5.102531,2.094157"
       id="path4048"
       style="opacity:1;fill:#f4d7d7;fill-opacity:1;stroke:#000000;stroke-width:0.75;stroke-miterlimit:4;stroke-dasharray:none;stroke-dashoffset:0;stroke-opacity:1" />
    <path
       style="opacity:1;fill:#ffffff;fill-opacity:1;stroke:#000000;stroke-width:0.75;stroke-miterlimit:4;stroke-dasharray:none;stroke-dashoffset:0;stroke-opacity:1"
       id="path4050"
       d="m 44.165814,42.665949 a 3.9004242,3.9004242 0 0 1 -2.096828,5.101433 3.9004242,3.9004242 0 0 1 -5.101799,-2.095938 3.9004242,3.9004242 0 0 1 2.095047,-5.102165 3.9004242,3.9004242 0 0 1 5.102531,2.094157" />
    <path
       d="m 51.665814,42.665949 a 3.9004242,3.9004242 0 0 1 -2.096828,5.101433 3.9004242,3.9004242 0 0 1 -5.101799,-2.095938 3.9004242,3.9004242 0 0 1 2.095047,-5.102165 3.9004242,3.9004242 0 0 1 5.102531,2.094157"
       id="path4052"
       style="opacity:1;fill:#ffffff;fill-opacity:1;stroke:#000000;stroke-width:0.75;stroke-miterlimit:4;stroke-dasharray:none;stroke-dashoffset:0;stroke-opacity:1" />
    <path
       d="m 59.165814,42.665949 a 3.9004242,3.9004242 0 0 1 -2.096828,5.101433 3.9004242,3.9004242 0 0 1 -5.101799,-2.095938 3.9004242,3.9004242 0 0 1 2.095047,-5.102165 3.9004242,3.9004242 0 0 1 5.102531,2.094157"
       id="path4054"
       style="opacity:1;fill:#ffffff;fill-opacity:1;stroke:#000000;stroke-width:0.75;stroke-miterlimit:4;stroke-dasharray:none;stroke-dashoffset:0;stroke-opacity:1" />
    <path
       style="opacity:1;fill:#ffffff;fill-opacity:1;stroke:#000000;stroke-width:0.75;stroke-miterlimit:4;stroke-dasharray:none;stroke-dashoffset:0;stroke-opacity:1"
       id="path4056"
       d="m 66.665814,42.665949 a 3.9004242,3.9004242 0 0 1 -2.096828,5.101433 3.9004242,3.9004242 0 0 1 -5.101799,-2.095938 3.9004242,3.9004242 0 0 1 2.095047,-5.102165 3.9004242,3.9004242 0 0 1 5.102531,2.094157" />
    <path
       d="m 32.165814,-2.3340513 a 3.9004242,3.9004242 0 0 1 -2.096828,5.101433 3.9004242,3.9004242 0 0 1 -5.101799,-2.09593777 3.9004242,3.9004242 0 0 1 2.095047,-5.10216473 3.9004242,3.9004242 0 0 1 5.102531,2.0941566"
       id="path4058"
       style="opacity:1;fill:#ffffff;fill-opacity:1;stroke:#000000;stroke-width:0.75;stroke-miterlimit:4;stroke-dasharray:none;stroke-dashoffset:0;stroke-opacity:1" />
    <path
       id="path4060"
       d="m 25.415814,74.017651 -14.999999,-30"
       style="opacity:1;fill:#000000;fill-opacity:1;stroke:#000000;stroke-width:0.375;stroke-miterlimit:4;stroke-dasharray:none;stroke-dashoffset:0;stroke-opacity:1;marker-end:url(#marker4108)" />
    <path
       style="opacity:1;fill:#000000;fill-opacity:1;stroke:#000000;stroke-width:0.375;stroke-miterlimit:4;stroke-dasharray:none;stroke-dashoffset:0;stroke-opacity:1;marker-end:url(#marker1308)"
       d="m 25.415814,74.017651 7.5,-30"
       id="path4062" />
    <path
       id="path4064"
       d="m 25.415814,74.017651 22.5,-30"
       style="opacity:1;fill:#000000;fill-opacity:1;stroke:#000000;stroke-width:0.375;stroke-miterlimit:4;stroke-dasharray:none;stroke-dashoffset:0;stroke-opacity:1;marker-end:url(#marker1644)" />
    <path
       style="opacity:1;fill:#000000;fill-opacity:1;stroke:#000000;stroke-width:0.375;stroke-miterlimit:4;stroke-dasharray:none;stroke-dashoffset:0;stroke-opacity:1;marker-end:url(#marker1926)"
       d="m 25.415814,74.017651 37.5,-30"
       id="path4066" />
    <path
       id="path4068"
       d="m 10.415815,44.017651 c 0,0 -2.3592895,-10.591627 0,-15 2.126635,-3.973654 9.787333,-3.237007 11.249999,-7.5 1.282843,-3.738892 -4.658177,-7.402896 -3.749999,-11.25 1.218449,-5.1614318 11.249999,-11.24999926 11.249999,-11.24999926"
       style="opacity:1;fill:none;fill-opacity:1;stroke:#000000;stroke-width:0.375;stroke-miterlimit:4;stroke-dasharray:1.5, 0.75;stroke-dashoffset:0;stroke-opacity:1;marker-end:url(#marker6710)" />
    <path
       style="opacity:1;fill:none;fill-opacity:1;stroke:#000000;stroke-width:0.375;stroke-miterlimit:4;stroke-dasharray:1.5, 0.75;stroke-dashoffset:0;stroke-opacity:1;marker-end:url(#marker3638)"
       d="m 32.915815,44.017651 c 0,0 -5.701179,-9.708767 -4.524881,-14.698341 1.079647,-4.579603 8.715042,-5.623158 9.741706,-10.214929 C 38.925769,15.557096 36.161739,12.08042 34.684299,8.7593574 33.167356,5.3494952 29.165815,-0.98234829 29.165815,-0.98234829"
       id="path4070" />
    <path
       id="path4072"
       d="m 47.915814,44.017651 c 0,0 -11.004042,-8.6066 -10.867821,-14.698341 0.09162,-4.097102 6.942072,-5.530086 7.743923,-9.549001 C 45.661581,15.411504 43.640449,10.566768 41.010611,6.9835505 38.195357,3.1476989 29.165815,-0.98234829 29.165815,-0.98234829"
       style="opacity:1;fill:none;fill-opacity:1;stroke:#000000;stroke-width:0.375;stroke-miterlimit:4;stroke-dasharray:1.5, 0.75;stroke-dashoffset:0;stroke-opacity:1;marker-end:url(#marker7946)" />
    <path
       style="opacity:1;fill:none;fill-opacity:1;stroke:#000000;stroke-width:0.375;stroke-miterlimit:4;stroke-dasharray:1.5, 0.75;stroke-dashoffset:0;stroke-opacity:1;marker-end:url(#marker3826)"
       d="m 62.915814,44.017651 c 0,0 -14.648817,-6.792929 -14.863386,-13.477474 -0.12407,-3.865163 7.122767,-4.58053 8.076886,-8.328134 C 57.220895,17.924515 55.42905,12.801703 52.569985,9.425285 47.273391,3.1702621 30.292324,-0.98234829 30.292324,-0.98234829"
       id="path4074" />
    <text
       id="text4078"
       y="86.929764"
       x="6.6464787"
       style="font-style:normal;font-weight:normal;font-size:6px;line-height:125%;font-family:Sans;letter-spacing:0px;word-spacing:0px;fill:#000000;fill-opacity:1;stroke:none;stroke-width:0.75px;stroke-linecap:butt;stroke-linejoin:miter;stroke-opacity:1"
       xml:space="preserve"><tspan
         style="stroke-width:0.75px"
         y="86.929764"
         x="6.6464787"
         id="tspan4076">$x_0 \;\;\cdots\;\; x_{n-1}$</tspan></text>
    <text
       id="text4086"
       y="1.0190699"
       x="7.7763128"
       style="font-style:normal;font-weight:normal;font-size:6px;line-height:125%;font-family:Sans;letter-spacing:0px;word-spacing:0px;fill:#000000;fill-opacity:1;stroke:none;stroke-width:0.375;stroke-linecap:butt;stroke-linejoin:miter;stroke-miterlimit:4;stroke-dasharray:1.5, 0.75;stroke-dashoffset:0;stroke-opacity:1"
       xml:space="preserve"><tspan
         style="stroke-width:0.375;stroke-miterlimit:4;stroke-dasharray:1.5, 0.75;stroke-dashoffset:0"
         y="1.0190699"
         x="7.7763128"
         id="tspan4084">$f$</tspan></text>
    <text
       xml:space="preserve"
       style="font-style:normal;font-weight:normal;font-size:6px;line-height:125%;font-family:Sans;letter-spacing:0px;word-spacing:0px;fill:#000000;fill-opacity:1;stroke:none;stroke-width:0.75px;stroke-linecap:butt;stroke-linejoin:miter;stroke-opacity:1"
       x="-23.353521"
       y="77.929764"
       id="text4092"><tspan
         id="tspan4090"
         x="-23.353521"
         y="77.929764"
         style="stroke-width:0.75px">$x$</tspan></text>
    <text
       id="text4096"
       y="47.51907"
       x="-23.723686"
       style="font-style:normal;font-weight:normal;font-size:6px;line-height:125%;font-family:Sans;letter-spacing:0px;word-spacing:0px;fill:#000000;fill-opacity:1;stroke:none;stroke-width:0.75px;stroke-linecap:butt;stroke-linejoin:miter;stroke-opacity:1"
       xml:space="preserve"><tspan
         style="stroke-width:0.75px"
         y="47.51907"
         x="-23.723686"
         id="tspan4094">$y$</tspan></text>
    <path
       style="opacity:1;fill:#000000;fill-opacity:1;stroke:#000000;stroke-width:0.375;stroke-miterlimit:4;stroke-dasharray:none;stroke-dashoffset:0;stroke-opacity:1;marker-end:url(#marker4306)"
       d="M 25.415814,74.017651 -4.5841967,44.017652"
       id="path4302" />
    <path
       id="path4656"
       d="M 25.415814,74.017651 2.9158032,44.017652"
       style="opacity:1;fill:#000000;fill-opacity:1;stroke:#000000;stroke-width:0.375;stroke-miterlimit:4;stroke-dasharray:none;stroke-dashoffset:0;stroke-opacity:1;marker-end:url(#marker4660)" />
    <path
       style="opacity:1;fill:#000000;fill-opacity:1;stroke:#000000;stroke-width:0.375;stroke-miterlimit:4;stroke-dasharray:none;stroke-dashoffset:0;stroke-opacity:1;marker-end:url(#marker5032)"
       d="M 25.415814,74.017651 17.915803,45.127531"
       id="path5028" />
    <path
       id="path5544"
       d="m 25.415814,74.017651 -1.1e-5,-29.999999"
       style="opacity:1;fill:#000000;fill-opacity:1;stroke:#000000;stroke-width:0.375;stroke-miterlimit:4;stroke-dasharray:none;stroke-dashoffset:0;stroke-opacity:1;marker-end:url(#marker5548)" />
    <path
       style="opacity:1;fill:#000000;fill-opacity:1;stroke:#000000;stroke-width:0.375;stroke-miterlimit:4;stroke-dasharray:none;stroke-dashoffset:0;stroke-opacity:1;marker-end:url(#marker5908)"
       d="M 25.415814,74.017651 40.415803,44.017652"
       id="path5904" />
    <path
       id="path6288"
       d="M 25.415814,74.017651 55.415803,44.017652"
       style="opacity:1;fill:#000000;fill-opacity:1;stroke:#000000;stroke-width:0.375;stroke-miterlimit:4;stroke-dasharray:none;stroke-dashoffset:0;stroke-opacity:1;marker-end:url(#marker6292)" />
    <path
       style="opacity:1;fill:none;fill-opacity:1;stroke:#000000;stroke-width:0.375;stroke-miterlimit:4;stroke-dasharray:1.5, 0.75;stroke-dashoffset:0;stroke-opacity:1;marker-end:url(#marker6950)"
       d="m -4.584185,44.017651 c 0,0 0.028013,-10.67013 2.5527224,-15.110988 C -0.15136355,25.599648 5.0493963,24.961242 6.665814,21.517651 8.3693944,17.88837 4.6300711,12.861725 6.8003926,9.4907355 11.256656,2.5691711 29.165803,-0.98234795 29.165803,-0.98234795"
       id="path6946" />
    <path
       id="path7198"
       d="m 2.915815,44.017651 c 0,0 0.4951193,-10.557027 2.9966741,-15 C 8.2368914,24.889316 15.419802,24.047122 16.385573,19.40888 17.106435,15.946842 11.04632,13.09436 12.080634,9.7127113 14.045801,3.2876705 29.165803,-0.98234795 29.165803,-0.98234795"
       style="opacity:1;fill:none;fill-opacity:1;stroke:#000000;stroke-width:0.375;stroke-miterlimit:4;stroke-dasharray:1.5, 0.75;stroke-dashoffset:0;stroke-opacity:1;marker-end:url(#marker7202)" />
    <path
       style="opacity:1;fill:none;fill-opacity:1;stroke:#000000;stroke-width:0.375;stroke-miterlimit:4;stroke-dasharray:1.5, 0.75;stroke-dashoffset:0;stroke-opacity:1;marker-end:url(#marker7976)"
       d="m 17.915815,44.017651 c 0,0 -1.697061,-8.45419 -0.55494,-12.447278 1.426361,-4.986846 8.191276,-7.677424 8.808265,-12.827421 0.368931,-3.079458 -3.547652,-5.605222 -3.306047,-8.697277 0.329828,-4.2211421 6.30271,-11.02802295 6.30271,-11.02802295"
       id="path7972" />
    <path
       id="path8656"
       d="m 25.415815,44.017651 c 0,0 -2.734003,-6.530182 -2.330747,-9.894556 0.674424,-5.626737 6.509201,-9.617331 7.698386,-15.158167 0.624574,-2.910115 -0.189567,-5.95183 -0.420361,-8.919253 -0.286719,-3.6864757 -1.19729,-11.02802295 -1.19729,-11.02802295"
       style="opacity:1;fill:none;fill-opacity:1;stroke:#000000;stroke-width:0.375;stroke-miterlimit:4;stroke-dasharray:1.5, 0.75;stroke-dashoffset:0;stroke-opacity:1;marker-end:url(#marker8660)" />
    <path
       style="opacity:1;fill:none;fill-opacity:1;stroke:#000000;stroke-width:0.375;stroke-miterlimit:4;stroke-dasharray:1.5, 0.75;stroke-dashoffset:0;stroke-opacity:1;marker-end:url(#marker9230)"
       d="m 40.415815,44.017651 c 0,0 -8.363022,-8.273618 -7.880144,-13.44617 0.394707,-4.228055 6.969873,-5.597813 8.364314,-9.60877 0.977382,-2.811332 0.686779,-6.156446 -0.420361,-8.919253 C 38.340367,6.7050603 29.165803,-0.98234795 29.165803,-0.98234795"
       id="path9226" />
    <path
       id="path10030"
       d="m 55.415815,44.017651 c 0,0 -9.953618,-5.708689 -11.87571,-10.671472 -0.987977,-2.550929 -0.23175,-5.639431 0.817135,-8.165927 1.346292,-3.24287 7.023683,-4.647691 6.682867,-8.142337 C 50.123133,7.635507 29.165803,-0.98234795 29.165803,-0.98234795"
       style="opacity:1;fill:none;fill-opacity:1;stroke:#000000;stroke-width:0.375;stroke-miterlimit:4;stroke-dasharray:1.5, 0.75;stroke-dashoffset:0;stroke-opacity:1;marker-end:url(#marker10034)" />
    <path
       style="opacity:1;fill:#999999;fill-opacity:1;stroke:#000000;stroke-width:0.75;stroke-miterlimit:4;stroke-dasharray:none;stroke-dashoffset:0;stroke-opacity:1"
       id="path4030"
       d="m 29.165814,72.665949 a 3.9004242,3.9004242 0 0 1 -2.096828,5.101433 3.9004242,3.9004242 0 0 1 -5.101799,-2.095938 3.9004242,3.9004242 0 0 1 2.095047,-5.102165 3.9004242,3.9004242 0 0 1 5.102531,2.094157" />
    <g
       id="g10911"
       transform="translate(42,57)">
      <rect
         ry="1.0400775e-05"
         y="-8.4823475"
         x="-55.323944"
         height="8.812767"
         width="20.739748"
         id="rect10906"
         style="opacity:1;fill:#ffffff;fill-opacity:1;stroke:none;stroke-width:0.375;stroke-miterlimit:4;stroke-dasharray:none;stroke-dashoffset:0;stroke-opacity:1" />
      <text
         id="text4082"
         y="-1.9809303"
         x="-53.723686"
         style="font-style:normal;font-weight:normal;font-size:6px;line-height:125%;font-family:Sans;letter-spacing:0px;word-spacing:0px;fill:#000000;fill-opacity:1;stroke:none;stroke-width:0.75px;stroke-linecap:butt;stroke-linejoin:miter;stroke-opacity:1"
         xml:space="preserve"><tspan
           style="stroke-width:0.75px"
           y="-1.9809303"
           x="-53.723686"
           id="tspan4080">$y_0$</tspan></text>
    </g>
    <g
       transform="translate(70.5,57)"
       id="g10919">
      <rect
         style="opacity:1;fill:#ffffff;fill-opacity:1;stroke:none;stroke-width:0.375;stroke-miterlimit:4;stroke-dasharray:none;stroke-dashoffset:0;stroke-opacity:1"
         id="rect10913"
         width="20.739748"
         height="8.812767"
         x="-55.323944"
         y="-8.4823475"
         ry="1.0400775e-05" />
      <text
         xml:space="preserve"
         style="font-style:normal;font-weight:normal;font-size:6px;line-height:125%;font-family:Sans;letter-spacing:0px;word-spacing:0px;fill:#000000;fill-opacity:1;stroke:none;stroke-width:0.75px;stroke-linecap:butt;stroke-linejoin:miter;stroke-opacity:1"
         x="-53.723686"
         y="-1.9809303"
         id="text10917"><tspan
           id="tspan10915"
           x="-53.723686"
           y="-1.9809303"
           style="stroke-width:0.75px">$\cdots$</tspan></text>
    </g>
    <g
       id="g10927"
       transform="translate(115.5,57)">
      <rect
         ry="1.0400775e-05"
         y="-8.4823475"
         x="-55.323944"
         height="8.812767"
         width="20.739748"
         id="rect10921"
         style="opacity:1;fill:#ffffff;fill-opacity:1;stroke:none;stroke-width:0.375;stroke-miterlimit:4;stroke-dasharray:none;stroke-dashoffset:0;stroke-opacity:1" />
      <text
         id="text10925"
         y="-1.9809303"
         x="-58.223686"
         style="font-style:normal;font-weight:normal;font-size:6px;line-height:125%;font-family:Sans;letter-spacing:0px;word-spacing:0px;fill:#000000;fill-opacity:1;stroke:none;stroke-width:0.75px;stroke-linecap:butt;stroke-linejoin:miter;stroke-opacity:1"
         xml:space="preserve"><tspan
           style="stroke-width:0.75px"
           y="-1.9809303"
           x="-58.223686"
           id="tspan10923">$y_{m-1}$</tspan></text>
    </g>
  </g>
</svg>
