<?xml version="1.0" encoding="UTF-8" standalone="no"?>
<!-- Created with Inkscape (http://www.inkscape.org/) -->

<svg
   width="106.56879mm"
   height="19.142628mm"
   id="svg2"
   version="1.1"
   xmlns="http://www.w3.org/2000/svg"
   xmlns:svg="http://www.w3.org/2000/svg"
   xmlns:rdf="http://www.w3.org/1999/02/22-rdf-syntax-ns#"
   xmlns:cc="http://creativecommons.org/ns#"
   xmlns:dc="http://purl.org/dc/elements/1.1/">
  <defs
     id="defs4">
    <marker
       orient="auto"
       refY="0"
       refX="0"
       id="Arrow1Mstart"
       style="overflow:visible">
      <path
         id="path4159"
         d="M 0,0 5,-5 -12.5,0 5,5 Z"
         style="fill-rule:evenodd;stroke:#000000;stroke-width:1pt"
         transform="matrix(0.4,0,0,0.4,4,0)" />
    </marker>
    <marker
       orient="auto"
       refY="0"
       refX="0"
       id="Arrow1Lstart"
       style="overflow:visible">
      <path
         id="path4153"
         d="M 0,0 5,-5 -12.5,0 5,5 Z"
         style="fill-rule:evenodd;stroke:#000000;stroke-width:1pt"
         transform="matrix(0.8,0,0,0.8,10,0)" />
    </marker>
    <marker
       orient="auto"
       refY="0"
       refX="0"
       id="Arrow1Mend"
       style="overflow:visible">
      <path
         id="path5026"
         d="M 0,0 5,-5 -12.5,0 5,5 Z"
         style="fill-rule:evenodd;stroke:#000000;stroke-width:1pt"
         transform="matrix(-0.4,0,0,-0.4,-4,0)" />
    </marker>
    <marker
       orient="auto"
       refY="0"
       refX="0"
       id="Arrow1Lend"
       style="overflow:visible">
      <path
         id="path5020"
         d="M 0,0 5,-5 -12.5,0 5,5 Z"
         style="fill-rule:evenodd;stroke:#000000;stroke-width:1pt"
         transform="matrix(-0.8,0,0,-0.8,-10,0)" />
    </marker>
  </defs>
  <metadata
     id="metadata7">
    <rdf:RDF>
      <cc:Work
         rdf:about="">
        <dc:format>image/svg+xml</dc:format>
        <dc:type
           rdf:resource="http://purl.org/dc/dcmitype/StillImage" />
        <dc:title />
      </cc:Work>
    </rdf:RDF>
  </metadata>
  <g
     id="layer1"
     transform="translate(-149.19098,-31.130125)">
    <path
       id="path4028"
       d="m 515,42.362183 -5,-10 h 10 z"
       style="fill:#800000;stroke:#000000;stroke-width:1px;stroke-linecap:butt;stroke-linejoin:miter;stroke-opacity:1" />
    <path
       style="fill:#800000;fill-opacity:1;stroke:#000000;stroke-width:1;stroke-miterlimit:4;stroke-dasharray:none;stroke-dashoffset:0;stroke-opacity:1"
       id="path4575"
       d="m 70,52.362183 -4.446921,-1.507995 -3.763277,2.808362 0.06001,-4.695269 -3.833827,-2.711257 4.484011,-1.393841 1.393841,-4.484012 2.711258,3.833828 4.695269,-0.06001 -2.808362,3.763277 z"
       transform="matrix(0.79369151,0.13758,-0.13758,0.79369151,199.26893,-8.798233)" />
    <circle
       style="fill:#800000;fill-opacity:1;stroke:#000000;stroke-width:1;stroke-miterlimit:4;stroke-dasharray:none;stroke-dashoffset:0;stroke-opacity:1"
       id="path4573"
       transform="translate(124)"
       cx="70"
       cy="37.362183"
       r="5" />
    <path
       style="fill:#800000;stroke:#000000;stroke-width:1px;stroke-linecap:butt;stroke-linejoin:miter;stroke-opacity:1"
       d="m 155,32.362183 -5,10 h 10 z"
       id="path3972" />
    <path
       transform="matrix(0.79369151,0.13758,-0.13758,0.79369151,279.26893,-8.798233)"
       d="m 70,52.362183 -4.446921,-1.507995 -3.763277,2.808362 0.06001,-4.695269 -3.833827,-2.711257 4.484011,-1.393841 1.393841,-4.484012 2.711258,3.833828 4.695269,-0.06001 -2.808362,3.763277 z"
       id="path3986"
       style="fill:#800000;fill-opacity:1;stroke:#000000;stroke-width:1;stroke-miterlimit:4;stroke-dasharray:none;stroke-dashoffset:0;stroke-opacity:1" />
    <circle
       transform="translate(204)"
       id="path3988"
       style="fill:#800000;fill-opacity:1;stroke:#000000;stroke-width:1;stroke-miterlimit:4;stroke-dasharray:none;stroke-dashoffset:0;stroke-opacity:1"
       cx="70"
       cy="37.362183"
       r="5" />
    <path
       style="fill:#800000;fill-opacity:1;stroke:#000000;stroke-width:1;stroke-miterlimit:4;stroke-dasharray:none;stroke-dashoffset:0;stroke-opacity:1"
       id="path4002"
       d="m 70,52.362183 -4.446921,-1.507995 -3.763277,2.808362 0.06001,-4.695269 -3.833827,-2.711257 4.484011,-1.393841 1.393841,-4.484012 2.711258,3.833828 4.695269,-0.06001 -2.808362,3.763277 z"
       transform="matrix(0.79369151,0.13758,-0.13758,0.79369151,359.26893,-8.798233)" />
    <circle
       style="fill:#800000;fill-opacity:1;stroke:#000000;stroke-width:1;stroke-miterlimit:4;stroke-dasharray:none;stroke-dashoffset:0;stroke-opacity:1"
       id="path4004"
       transform="translate(284)"
       cx="70"
       cy="37.362183"
       r="5" />
    <path
       transform="matrix(0.79369151,0.13758,-0.13758,0.79369151,439.26893,-8.798233)"
       d="m 70,52.362183 -4.446921,-1.507995 -3.763277,2.808362 0.06001,-4.695269 -3.833827,-2.711257 4.484011,-1.393841 1.393841,-4.484012 2.711258,3.833828 4.695269,-0.06001 -2.808362,3.763277 z"
       id="path4018"
       style="fill:#800000;fill-opacity:1;stroke:#000000;stroke-width:1;stroke-miterlimit:4;stroke-dasharray:none;stroke-dashoffset:0;stroke-opacity:1" />
    <circle
       transform="translate(364)"
       id="path4020"
       style="fill:#800000;fill-opacity:1;stroke:#000000;stroke-width:1;stroke-miterlimit:4;stroke-dasharray:none;stroke-dashoffset:0;stroke-opacity:1"
       cx="70"
       cy="37.362183"
       r="5" />
    <path
       style="fill:none;stroke:#000000;stroke-width:1px;stroke-linecap:butt;stroke-linejoin:miter;stroke-opacity:1;marker-end:url(#Arrow1Mend)"
       d="m 160,37.362183 h 30"
       id="path3330" />
    <path
       style="fill:none;stroke:#000000;stroke-width:1px;stroke-linecap:butt;stroke-linejoin:miter;stroke-opacity:1;marker-end:url(#Arrow1Mend)"
       d="m 200,37.362183 h 40"
       id="path4312" />
    <path
       style="fill:none;stroke:#000000;stroke-width:1px;stroke-linecap:butt;stroke-linejoin:miter;stroke-opacity:1;marker-end:url(#Arrow1Mend)"
       d="m 250,37.362183 h 20"
       id="path4503" />
    <path
       id="path4693"
       d="m 280,37.362183 h 40"
       style="fill:none;stroke:#000000;stroke-width:1px;stroke-linecap:butt;stroke-linejoin:miter;stroke-opacity:1;marker-end:url(#Arrow1Mend)" />
    <path
       id="path4695"
       d="m 330,37.362183 h 20"
       style="fill:none;stroke:#000000;stroke-width:1px;stroke-linecap:butt;stroke-linejoin:miter;stroke-opacity:1;marker-end:url(#Arrow1Mend)" />
    <path
       style="fill:none;stroke:#000000;stroke-width:1px;stroke-linecap:butt;stroke-linejoin:miter;stroke-opacity:1;marker-end:url(#Arrow1Mend)"
       d="m 360,37.362183 h 40"
       id="path4697" />
    <path
       style="fill:none;stroke:#000000;stroke-width:1px;stroke-linecap:butt;stroke-linejoin:miter;stroke-opacity:1;marker-end:url(#Arrow1Mend)"
       d="m 410,37.362183 h 20"
       id="path4699" />
    <path
       id="path4701"
       d="m 440,37.362183 h 40"
       style="fill:none;stroke:#000000;stroke-width:1px;stroke-linecap:butt;stroke-linejoin:miter;stroke-opacity:1;marker-end:url(#Arrow1Mend)" />
    <path
       id="path4703"
       d="m 490,37.362183 h 20"
       style="fill:none;stroke:#000000;stroke-width:1px;stroke-linecap:butt;stroke-linejoin:miter;stroke-opacity:1;marker-end:url(#Arrow1Mend)" />
    <path
       id="path4705"
       d="m 520,37.362183 h 30"
       style="fill:none;stroke:#000000;stroke-width:1px;stroke-linecap:butt;stroke-linejoin:miter;stroke-opacity:1;marker-end:url(#Arrow1Mend)" />
    <path
       style="fill:#ff0000;stroke:#000000;stroke-width:1px;stroke-linecap:butt;stroke-linejoin:miter;stroke-opacity:1"
       d="m 515,62.362183 -5,-10 h 10 z"
       id="path4726" />
    <path
       transform="matrix(0.79369151,0.13758,-0.13758,0.79369151,199.26893,11.201767)"
       d="m 70,52.362183 -4.446921,-1.507995 -3.763277,2.808362 0.06001,-4.695269 -3.833827,-2.711257 4.484011,-1.393841 1.393841,-4.484012 2.711258,3.833828 4.695269,-0.06001 -2.808362,3.763277 z"
       id="path4728"
       style="fill:#ff0000;fill-opacity:1;stroke:#000000;stroke-width:1;stroke-miterlimit:4;stroke-dasharray:none;stroke-dashoffset:0;stroke-opacity:1" />
    <circle
       transform="translate(124,20)"
       id="path4730"
       style="fill:#ff0000;fill-opacity:1;stroke:#000000;stroke-width:1;stroke-miterlimit:4;stroke-dasharray:none;stroke-dashoffset:0;stroke-opacity:1"
       cx="70"
       cy="37.362183"
       r="5" />
    <path
       id="path4732"
       d="m 155,52.362183 -5,10 h 10 z"
       style="fill:#ff0000;stroke:#000000;stroke-width:1px;stroke-linecap:butt;stroke-linejoin:miter;stroke-opacity:1" />
    <path
       style="fill:#ff0000;fill-opacity:1;stroke:#000000;stroke-width:1;stroke-miterlimit:4;stroke-dasharray:none;stroke-dashoffset:0;stroke-opacity:1"
       id="path4734"
       d="m 70,52.362183 -4.446921,-1.507995 -3.763277,2.808362 0.06001,-4.695269 -3.833827,-2.711257 4.484011,-1.393841 1.393841,-4.484012 2.711258,3.833828 4.695269,-0.06001 -2.808362,3.763277 z"
       transform="matrix(0.79369151,0.13758,-0.13758,0.79369151,279.26893,11.201767)" />
    <circle
       style="fill:#ff0000;fill-opacity:1;stroke:#000000;stroke-width:1;stroke-miterlimit:4;stroke-dasharray:none;stroke-dashoffset:0;stroke-opacity:1"
       id="path4736"
       transform="translate(204,20)"
       cx="70"
       cy="37.362183"
       r="5" />
    <path
       transform="matrix(0.79369151,0.13758,-0.13758,0.79369151,359.26893,11.201767)"
       d="m 70,52.362183 -4.446921,-1.507995 -3.763277,2.808362 0.06001,-4.695269 -3.833827,-2.711257 4.484011,-1.393841 1.393841,-4.484012 2.711258,3.833828 4.695269,-0.06001 -2.808362,3.763277 z"
       id="path4738"
       style="fill:#ff0000;fill-opacity:1;stroke:#000000;stroke-width:1;stroke-miterlimit:4;stroke-dasharray:none;stroke-dashoffset:0;stroke-opacity:1" />
    <circle
       transform="translate(284,20)"
       id="path4740"
       style="fill:#ff0000;fill-opacity:1;stroke:#000000;stroke-width:1;stroke-miterlimit:4;stroke-dasharray:none;stroke-dashoffset:0;stroke-opacity:1"
       cx="70"
       cy="37.362183"
       r="5" />
    <path
       style="fill:#ff0000;fill-opacity:1;stroke:#000000;stroke-width:1;stroke-miterlimit:4;stroke-dasharray:none;stroke-dashoffset:0;stroke-opacity:1"
       id="path4742"
       d="m 70,52.362183 -4.446921,-1.507995 -3.763277,2.808362 0.06001,-4.695269 -3.833827,-2.711257 4.484011,-1.393841 1.393841,-4.484012 2.711258,3.833828 4.695269,-0.06001 -2.808362,3.763277 z"
       transform="matrix(0.79369151,0.13758,-0.13758,0.79369151,439.26893,11.201767)" />
    <circle
       style="fill:#ff0000;fill-opacity:1;stroke:#000000;stroke-width:1;stroke-miterlimit:4;stroke-dasharray:none;stroke-dashoffset:0;stroke-opacity:1"
       id="path4744"
       transform="translate(364,20)"
       cx="70"
       cy="37.362183"
       r="5" />
    <path
       id="path4746"
       d="m 160,57.362183 h 30"
       style="fill:#ff0000;stroke:#000000;stroke-width:1px;stroke-linecap:butt;stroke-linejoin:miter;stroke-opacity:1;marker-end:url(#Arrow1Mend)" />
    <path
       id="path4748"
       d="m 200,57.362183 h 40"
       style="fill:#ff0000;stroke:#000000;stroke-width:1px;stroke-linecap:butt;stroke-linejoin:miter;stroke-opacity:1;marker-end:url(#Arrow1Mend)" />
    <path
       id="path4750"
       d="m 250,57.362183 h 20"
       style="fill:#ff0000;stroke:#000000;stroke-width:1px;stroke-linecap:butt;stroke-linejoin:miter;stroke-opacity:1;marker-end:url(#Arrow1Mend)" />
    <path
       style="fill:#ff0000;stroke:#000000;stroke-width:1px;stroke-linecap:butt;stroke-linejoin:miter;stroke-opacity:1;marker-end:url(#Arrow1Mend)"
       d="m 280,57.362183 h 40"
       id="path4752" />
    <path
       style="fill:#ff0000;stroke:#000000;stroke-width:1px;stroke-linecap:butt;stroke-linejoin:miter;stroke-opacity:1;marker-end:url(#Arrow1Mend)"
       d="m 330,57.362183 h 20"
       id="path4754" />
    <path
       id="path4756"
       d="m 360,57.362183 h 40"
       style="fill:#ff0000;stroke:#000000;stroke-width:1px;stroke-linecap:butt;stroke-linejoin:miter;stroke-opacity:1;marker-end:url(#Arrow1Mend)" />
    <path
       id="path4758"
       d="m 410,57.362183 h 20"
       style="fill:#ff0000;stroke:#000000;stroke-width:1px;stroke-linecap:butt;stroke-linejoin:miter;stroke-opacity:1;marker-end:url(#Arrow1Mend)" />
    <path
       style="fill:#ff0000;stroke:#000000;stroke-width:1px;stroke-linecap:butt;stroke-linejoin:miter;stroke-opacity:1;marker-end:url(#Arrow1Mend)"
       d="m 440,57.362183 h 40"
       id="path4760" />
    <path
       style="fill:#ff0000;stroke:#000000;stroke-width:1px;stroke-linecap:butt;stroke-linejoin:miter;stroke-opacity:1;marker-end:url(#Arrow1Mend)"
       d="m 490,57.362183 h 20"
       id="path4762" />
    <path
       style="fill:#ff0000;stroke:#000000;stroke-width:1px;stroke-linecap:butt;stroke-linejoin:miter;stroke-opacity:1;marker-end:url(#Arrow1Mend)"
       d="m 520,57.362183 h 30"
       id="path4764" />
    <path
       id="path4766"
       d="m 515,82.362183 -5,-10 h 10 z"
       style="fill:#808000;stroke:#000000;stroke-width:1px;stroke-linecap:butt;stroke-linejoin:miter;stroke-opacity:1" />
    <path
       style="fill:#808000;fill-opacity:1;stroke:#000000;stroke-width:1;stroke-miterlimit:4;stroke-dasharray:none;stroke-dashoffset:0;stroke-opacity:1"
       id="path4768"
       d="m 70,52.362183 -4.446921,-1.507995 -3.763277,2.808362 0.06001,-4.695269 -3.833827,-2.711257 4.484011,-1.393841 1.393841,-4.484012 2.711258,3.833828 4.695269,-0.06001 -2.808362,3.763277 z"
       transform="matrix(0.79369151,0.13758,-0.13758,0.79369151,199.26893,31.201767)" />
    <circle
       style="fill:#808000;fill-opacity:1;stroke:#000000;stroke-width:1;stroke-miterlimit:4;stroke-dasharray:none;stroke-dashoffset:0;stroke-opacity:1"
       id="path4770"
       transform="translate(124,40)"
       cx="70"
       cy="37.362183"
       r="5" />
    <path
       style="fill:#808000;stroke:#000000;stroke-width:1px;stroke-linecap:butt;stroke-linejoin:miter;stroke-opacity:1"
       d="m 155,72.362183 -5,10 h 10 z"
       id="path4772" />
    <path
       transform="matrix(0.79369151,0.13758,-0.13758,0.79369151,279.26893,31.201767)"
       d="m 70,52.362183 -4.446921,-1.507995 -3.763277,2.808362 0.06001,-4.695269 -3.833827,-2.711257 4.484011,-1.393841 1.393841,-4.484012 2.711258,3.833828 4.695269,-0.06001 -2.808362,3.763277 z"
       id="path4774"
       style="fill:#808000;fill-opacity:1;stroke:#000000;stroke-width:1;stroke-miterlimit:4;stroke-dasharray:none;stroke-dashoffset:0;stroke-opacity:1" />
    <circle
       transform="translate(204,40)"
       id="path4776"
       style="fill:#808000;fill-opacity:1;stroke:#000000;stroke-width:1;stroke-miterlimit:4;stroke-dasharray:none;stroke-dashoffset:0;stroke-opacity:1"
       cx="70"
       cy="37.362183"
       r="5" />
    <path
       style="fill:#808000;fill-opacity:1;stroke:#000000;stroke-width:1;stroke-miterlimit:4;stroke-dasharray:none;stroke-dashoffset:0;stroke-opacity:1"
       id="path4778"
       d="m 70,52.362183 -4.446921,-1.507995 -3.763277,2.808362 0.06001,-4.695269 -3.833827,-2.711257 4.484011,-1.393841 1.393841,-4.484012 2.711258,3.833828 4.695269,-0.06001 -2.808362,3.763277 z"
       transform="matrix(0.79369151,0.13758,-0.13758,0.79369151,359.26893,31.201767)" />
    <circle
       style="fill:#808000;fill-opacity:1;stroke:#000000;stroke-width:1;stroke-miterlimit:4;stroke-dasharray:none;stroke-dashoffset:0;stroke-opacity:1"
       id="path4780"
       transform="translate(284,40)"
       cx="70"
       cy="37.362183"
       r="5" />
    <path
       transform="matrix(0.79369151,0.13758,-0.13758,0.79369151,439.26893,31.201767)"
       d="m 70,52.362183 -4.446921,-1.507995 -3.763277,2.808362 0.06001,-4.695269 -3.833827,-2.711257 4.484011,-1.393841 1.393841,-4.484012 2.711258,3.833828 4.695269,-0.06001 -2.808362,3.763277 z"
       id="path4782"
       style="fill:#808000;fill-opacity:1;stroke:#000000;stroke-width:1;stroke-miterlimit:4;stroke-dasharray:none;stroke-dashoffset:0;stroke-opacity:1" />
    <circle
       transform="translate(364,40)"
       id="path4784"
       style="fill:#808000;fill-opacity:1;stroke:#000000;stroke-width:1;stroke-miterlimit:4;stroke-dasharray:none;stroke-dashoffset:0;stroke-opacity:1"
       cx="70"
       cy="37.362183"
       r="5" />
    <path
       style="fill:#808000;stroke:#000000;stroke-width:1px;stroke-linecap:butt;stroke-linejoin:miter;stroke-opacity:1;marker-end:url(#Arrow1Mend)"
       d="m 160,77.362183 h 30"
       id="path4786" />
    <path
       style="fill:#808000;stroke:#000000;stroke-width:1px;stroke-linecap:butt;stroke-linejoin:miter;stroke-opacity:1;marker-end:url(#Arrow1Mend)"
       d="m 200,77.362183 h 40"
       id="path4788" />
    <path
       style="fill:#808000;stroke:#000000;stroke-width:1px;stroke-linecap:butt;stroke-linejoin:miter;stroke-opacity:1;marker-end:url(#Arrow1Mend)"
       d="m 250,77.362183 h 20"
       id="path4790" />
    <path
       id="path4792"
       d="m 280,77.362183 h 40"
       style="fill:#808000;stroke:#000000;stroke-width:1px;stroke-linecap:butt;stroke-linejoin:miter;stroke-opacity:1;marker-end:url(#Arrow1Mend)" />
    <path
       id="path4794"
       d="m 330,77.362183 h 20"
       style="fill:#808000;stroke:#000000;stroke-width:1px;stroke-linecap:butt;stroke-linejoin:miter;stroke-opacity:1;marker-end:url(#Arrow1Mend)" />
    <path
       style="fill:#808000;stroke:#000000;stroke-width:1px;stroke-linecap:butt;stroke-linejoin:miter;stroke-opacity:1;marker-end:url(#Arrow1Mend)"
       d="m 360,77.362183 h 40"
       id="path4796" />
    <path
       style="fill:#808000;stroke:#000000;stroke-width:1px;stroke-linecap:butt;stroke-linejoin:miter;stroke-opacity:1;marker-end:url(#Arrow1Mend)"
       d="m 410,77.362183 h 20"
       id="path4798" />
    <path
       id="path4800"
       d="m 440,77.362183 h 40"
       style="fill:#808000;stroke:#000000;stroke-width:1px;stroke-linecap:butt;stroke-linejoin:miter;stroke-opacity:1;marker-end:url(#Arrow1Mend)" />
    <path
       id="path4802"
       d="m 490,77.362183 h 20"
       style="fill:#808000;stroke:#000000;stroke-width:1px;stroke-linecap:butt;stroke-linejoin:miter;stroke-opacity:1;marker-end:url(#Arrow1Mend)" />
    <path
       id="path4804"
       d="m 520,77.362183 h 30"
       style="fill:#808000;stroke:#000000;stroke-width:1px;stroke-linecap:butt;stroke-linejoin:miter;stroke-opacity:1;marker-end:url(#Arrow1Mend)" />
    <path
       style="fill:#ffff00;stroke:#000000;stroke-width:1px;stroke-linecap:butt;stroke-linejoin:miter;stroke-opacity:1"
       d="m 515,102.36218 -5,-9.999997 h 10 z"
       id="path4806" />
    <path
       transform="matrix(0.79369151,0.13758,-0.13758,0.79369151,199.26893,51.201767)"
       d="m 70,52.362183 -4.446921,-1.507995 -3.763277,2.808362 0.06001,-4.695269 -3.833827,-2.711257 4.484011,-1.393841 1.393841,-4.484012 2.711258,3.833828 4.695269,-0.06001 -2.808362,3.763277 z"
       id="path4808"
       style="fill:#ffff00;fill-opacity:1;stroke:#000000;stroke-width:1;stroke-miterlimit:4;stroke-dasharray:none;stroke-dashoffset:0;stroke-opacity:1" />
    <circle
       transform="translate(124,60)"
       id="path4810"
       style="fill:#ffff00;fill-opacity:1;stroke:#000000;stroke-width:1;stroke-miterlimit:4;stroke-dasharray:none;stroke-dashoffset:0;stroke-opacity:1"
       cx="70"
       cy="37.362183"
       r="5" />
    <path
       id="path4812"
       d="m 155,92.362183 -5,9.999997 h 10 z"
       style="fill:#ffff00;stroke:#000000;stroke-width:1px;stroke-linecap:butt;stroke-linejoin:miter;stroke-opacity:1" />
    <path
       style="fill:#ffff00;fill-opacity:1;stroke:#000000;stroke-width:1;stroke-miterlimit:4;stroke-dasharray:none;stroke-dashoffset:0;stroke-opacity:1"
       id="path4814"
       d="m 70,52.362183 -4.446921,-1.507995 -3.763277,2.808362 0.06001,-4.695269 -3.833827,-2.711257 4.484011,-1.393841 1.393841,-4.484012 2.711258,3.833828 4.695269,-0.06001 -2.808362,3.763277 z"
       transform="matrix(0.79369151,0.13758,-0.13758,0.79369151,279.26893,51.201767)" />
    <circle
       style="fill:#ffff00;fill-opacity:1;stroke:#000000;stroke-width:1;stroke-miterlimit:4;stroke-dasharray:none;stroke-dashoffset:0;stroke-opacity:1"
       id="path4816"
       transform="translate(204,60)"
       cx="70"
       cy="37.362183"
       r="5" />
    <path
       transform="matrix(0.79369151,0.13758,-0.13758,0.79369151,359.26893,51.201767)"
       d="m 70,52.362183 -4.446921,-1.507995 -3.763277,2.808362 0.06001,-4.695269 -3.833827,-2.711257 4.484011,-1.393841 1.393841,-4.484012 2.711258,3.833828 4.695269,-0.06001 -2.808362,3.763277 z"
       id="path4818"
       style="fill:#ffff00;fill-opacity:1;stroke:#000000;stroke-width:1;stroke-miterlimit:4;stroke-dasharray:none;stroke-dashoffset:0;stroke-opacity:1" />
    <circle
       transform="translate(284,60)"
       id="path4820"
       style="fill:#ffff00;fill-opacity:1;stroke:#000000;stroke-width:1;stroke-miterlimit:4;stroke-dasharray:none;stroke-dashoffset:0;stroke-opacity:1"
       cx="70"
       cy="37.362183"
       r="5" />
    <path
       style="fill:#ffff00;fill-opacity:1;stroke:#000000;stroke-width:1;stroke-miterlimit:4;stroke-dasharray:none;stroke-dashoffset:0;stroke-opacity:1"
       id="path4822"
       d="m 70,52.362183 -4.446921,-1.507995 -3.763277,2.808362 0.06001,-4.695269 -3.833827,-2.711257 4.484011,-1.393841 1.393841,-4.484012 2.711258,3.833828 4.695269,-0.06001 -2.808362,3.763277 z"
       transform="matrix(0.79369151,0.13758,-0.13758,0.79369151,439.26893,51.201767)" />
    <circle
       style="fill:#ffff00;fill-opacity:1;stroke:#000000;stroke-width:1;stroke-miterlimit:4;stroke-dasharray:none;stroke-dashoffset:0;stroke-opacity:1"
       id="path4824"
       transform="translate(364,60)"
       cx="70"
       cy="37.362183"
       r="5" />
    <path
       id="path4826"
       d="m 160,97.362183 h 30"
       style="fill:#ffff00;stroke:#000000;stroke-width:1px;stroke-linecap:butt;stroke-linejoin:miter;stroke-opacity:1;marker-end:url(#Arrow1Mend)" />
    <path
       id="path4828"
       d="m 200,97.362183 h 40"
       style="fill:#ffff00;stroke:#000000;stroke-width:1px;stroke-linecap:butt;stroke-linejoin:miter;stroke-opacity:1;marker-end:url(#Arrow1Mend)" />
    <path
       id="path4830"
       d="m 250,97.362183 h 20"
       style="fill:#ffff00;stroke:#000000;stroke-width:1px;stroke-linecap:butt;stroke-linejoin:miter;stroke-opacity:1;marker-end:url(#Arrow1Mend)" />
    <path
       style="fill:#ffff00;stroke:#000000;stroke-width:1px;stroke-linecap:butt;stroke-linejoin:miter;stroke-opacity:1;marker-end:url(#Arrow1Mend)"
       d="m 280,97.362183 h 40"
       id="path4832" />
    <path
       style="fill:#ffff00;stroke:#000000;stroke-width:1px;stroke-linecap:butt;stroke-linejoin:miter;stroke-opacity:1;marker-end:url(#Arrow1Mend)"
       d="m 330,97.362183 h 20"
       id="path4834" />
    <path
       id="path4836"
       d="m 360,97.362183 h 40"
       style="fill:#ffff00;stroke:#000000;stroke-width:1px;stroke-linecap:butt;stroke-linejoin:miter;stroke-opacity:1;marker-end:url(#Arrow1Mend)" />
    <path
       id="path4838"
       d="m 410,97.362183 h 20"
       style="fill:#ffff00;stroke:#000000;stroke-width:1px;stroke-linecap:butt;stroke-linejoin:miter;stroke-opacity:1;marker-end:url(#Arrow1Mend)" />
    <path
       style="fill:#ffff00;stroke:#000000;stroke-width:1px;stroke-linecap:butt;stroke-linejoin:miter;stroke-opacity:1;marker-end:url(#Arrow1Mend)"
       d="m 440,97.362183 h 40"
       id="path4840" />
    <path
       style="fill:#ffff00;stroke:#000000;stroke-width:1px;stroke-linecap:butt;stroke-linejoin:miter;stroke-opacity:1;marker-end:url(#Arrow1Mend)"
       d="m 490,97.362183 h 20"
       id="path4842" />
    <path
       style="fill:#ffff00;stroke:#000000;stroke-width:1px;stroke-linecap:butt;stroke-linejoin:miter;stroke-opacity:1;marker-end:url(#Arrow1Mend)"
       d="m 520,97.362183 h 30"
       id="path4844" />
  </g>
</svg>
