<?xml version="1.0" encoding="UTF-8" standalone="no"?>
<!-- Generated by graphviz version 2.36.0 (20140111.2315)
 -->

<!-- Title: %3 Pages: 1 -->

<svg
   xmlns:dc="http://purl.org/dc/elements/1.1/"
   xmlns:cc="http://creativecommons.org/ns#"
   xmlns:rdf="http://www.w3.org/1999/02/22-rdf-syntax-ns#"
   xmlns:svg="http://www.w3.org/2000/svg"
   xmlns="http://www.w3.org/2000/svg"
   xmlns:sodipodi="http://sodipodi.sourceforge.net/DTD/sodipodi-0.dtd"
   xmlns:inkscape="http://www.inkscape.org/namespaces/inkscape"
   width="1253pt"
   height="260pt"
   viewBox="0.00 0.00 1253.00 260.00"
   id="svg2"
   version="1.1"
   inkscape:version="0.48.4 r9939"
   sodipodi:docname="dc.svg">
  <metadata
     id="metadata412">
    <rdf:RDF>
      <cc:Work
         rdf:about="">
        <dc:format>image/svg+xml</dc:format>
        <dc:type
           rdf:resource="http://purl.org/dc/dcmitype/StillImage" />
      </cc:Work>
    </rdf:RDF>
  </metadata>
  <defs
     id="defs410" />
  <sodipodi:namedview
     pagecolor="#ffffff"
     bordercolor="#666666"
     borderopacity="1"
     objecttolerance="10"
     gridtolerance="10"
     guidetolerance="10"
     inkscape:pageopacity="0"
     inkscape:pageshadow="2"
     inkscape:window-width="1185"
     inkscape:window-height="796"
     id="namedview408"
     showgrid="false"
     inkscape:zoom="0.51105818"
     inkscape:cx="704.85602"
     inkscape:cy="162.5"
     inkscape:window-x="65"
     inkscape:window-y="24"
     inkscape:window-maximized="0"
     inkscape:current-layer="svg2" />
  <polygon
     style="fill:#ffffff;stroke:none"
     id="polygon7"
     points="1249,-256 1249,4 -4,4 -4,4 -4,-256 "
     transform="translate(4,256)" />
  <g
     class="node"
     id="node1"
     transform="translate(4,256)">
    <title
       id="title10">D</title>
    <ellipse
       style="fill:none;stroke:#000000"
       sodipodi:ry="18"
       sodipodi:rx="27"
       sodipodi:cy="-234"
       sodipodi:cx="602"
       d="m 629,-234 c 0,9.94113 -12.08831,18 -27,18 -14.91169,0 -27,-8.05887 -27,-18 0,-9.94113 12.08831,-18 27,-18 14.91169,0 27,8.05887 27,18 z"
       id="ellipse12"
       ry="18"
       rx="27"
       cy="-234"
       cx="602" />
    <text
       style="font-size:14px;text-anchor:middle;font-family:'Times,serif'"
       id="text14"
       font-size="14.00"
       y="-230.3"
       x="602">$D$</text>
  </g>
  <g
     class="node"
     id="node2"
     transform="translate(4,256)">
    <title
       id="title17">D1</title>
    <ellipse
       style="fill:none;stroke:#000000"
       sodipodi:ry="18"
       sodipodi:rx="34.170799"
       sodipodi:cy="-162"
       sodipodi:cx="245"
       d="m 279.1708,-162 c 0,9.94113 -15.29879,18 -34.1708,18 -18.87201,0 -34.1708,-8.05887 -34.1708,-18 0,-9.94113 15.29879,-18 34.1708,-18 18.87201,0 34.1708,8.05887 34.1708,18 z"
       id="ellipse19"
       ry="18"
       rx="34.170799"
       cy="-162"
       cx="245" />
    <text
       style="font-size:14px;text-anchor:middle;font-family:'Times,serif'"
       id="text21"
       font-size="14.00"
       y="-158.3"
       x="245">$D_1$</text>
  </g>
  <g
     class="edge"
     id="edge1"
     transform="translate(4,256)">
    <title
       id="title24">D-&gt;D1</title>
    <path
       style="fill:none;stroke:#000000"
       inkscape:connector-curvature="0"
       id="path26"
       d="m 576.325,-227.966 c -61.077,11.976 -215.473,42.25 -289.922,56.848" />
    <polygon
       style="fill:#000000;stroke:#000000"
       id="polygon28"
       points="285.586,-174.525 286.933,-167.656 286.933,-167.656 276.447,-169.166 " />
  </g>
  <g
     class="node"
     id="node3"
     transform="translate(4,256)">
    <title
       id="title31">D2</title>
    <ellipse
       style="fill:none;stroke:#000000"
       sodipodi:ry="18"
       sodipodi:rx="34.170799"
       sodipodi:cy="-162"
       sodipodi:cx="543"
       d="m 577.1708,-162 c 0,9.94113 -15.29879,18 -34.1708,18 -18.87201,0 -34.1708,-8.05887 -34.1708,-18 0,-9.94113 15.29879,-18 34.1708,-18 18.87201,0 34.1708,8.05887 34.1708,18 z"
       id="ellipse33"
       ry="18"
       rx="34.170799"
       cy="-162"
       cx="543" />
    <text
       style="font-size:14px;text-anchor:middle;font-family:'Times,serif'"
       id="text35"
       font-size="14.00"
       y="-158.3"
       x="543">$D_2$</text>
  </g>
  <g
     class="edge"
     id="edge2"
     transform="translate(4,256)">
    <title
       id="title38">D-&gt;D2</title>
    <path
       style="fill:none;stroke:#000000"
       inkscape:connector-curvature="0"
       id="path40"
       d="m 589.198,-217.811 c -7.702,9.138 -17.668,20.962 -26.371,31.287" />
    <polygon
       style="fill:#000000;stroke:#000000"
       id="polygon42"
       points="559.954,-188.546 565.307,-184.035 565.307,-184.035 556.186,-178.644 " />
  </g>
  <g
     class="node"
     id="node5"
     transform="translate(-156,256)">
    <title
       id="title59">Dk</title>
    <ellipse
       style="fill:none;stroke:#000000"
       sodipodi:ry="18"
       sodipodi:rx="34.170799"
       sodipodi:cy="-162"
       sodipodi:cx="1000"
       d="m 1034.1708,-162 c 0,9.94113 -15.2988,18 -34.1708,18 -18.87201,0 -34.1708,-8.05887 -34.1708,-18 0,-9.94113 15.29879,-18 34.1708,-18 18.872,0 34.1708,8.05887 34.1708,18 z"
       id="ellipse61"
       ry="18"
       rx="34.170799"
       cy="-162"
       cx="1000" />
    <text
       style="font-size:14px;text-anchor:middle;font-family:'Times,serif'"
       id="text63"
       font-size="14.00"
       y="-158.3"
       x="1000">$D_k$</text>
  </g>
  <g
     class="edge"
     id="edge4"
     transform="matrix(0.57793622,0,0,0.84984849,268.76356,221.62116)">
    <title
       id="title66">D-&gt;Dk</title>
    <path
       style="fill:none;stroke:#000000"
       inkscape:connector-curvature="0"
       id="path68"
       d="m 627.807,-228.461 c 67.15,11.81 247.807,43.584 330.2,58.075" />
    <polygon
       style="fill:#000000;stroke:#000000"
       id="polygon70"
       points="958.781,-173.803 958.781,-173.803 968.023,-168.624 957.568,-166.909 " />
  </g>
  <g
     class="node"
     id="node6"
     transform="translate(4,256)">
    <title
       id="title73">D11</title>
    <ellipse
       style="fill:none;stroke:#000000"
       sodipodi:ry="18"
       sodipodi:rx="48.1437"
       sodipodi:cy="-90"
       sodipodi:cx="109"
       d="m 157.1437,-90 c 0,9.941125 -21.55467,18 -48.1437,18 -26.589031,0 -48.1437,-8.058875 -48.1437,-18 0,-9.941125 21.554669,-18 48.1437,-18 26.58903,0 48.1437,8.058875 48.1437,18 z"
       id="ellipse75"
       ry="18"
       rx="48.1437"
       cy="-90"
       cx="109" />
    <text
       style="font-size:14px;text-anchor:middle;font-family:'Times,serif'"
       id="text77"
       font-size="14.00"
       y="-86.300003"
       x="109">$D_{11}$</text>
  </g>
  <g
     class="edge"
     id="edge5"
     transform="translate(4,256)">
    <title
       id="title80">D1-&gt;D11</title>
    <path
       style="fill:none;stroke:#000000"
       inkscape:connector-curvature="0"
       id="path82"
       d="m 221.311,-148.807 c -20.962,10.789 -51.874,26.7 -75.964,39.099" />
    <polygon
       style="fill:#000000;stroke:#000000"
       id="polygon84"
       points="143.444,-112.665 146.647,-106.441 146.647,-106.441 136.154,-104.976 " />
  </g>
  <g
     class="node"
     id="node7"
     transform="translate(4,256)">
    <title
       id="title87">D12</title>
    <ellipse
       style="fill:none;stroke:#000000"
       sodipodi:ry="18"
       sodipodi:rx="48.1437"
       sodipodi:cy="-90"
       sodipodi:cx="245"
       d="m 293.1437,-90 c 0,9.941125 -21.55467,18 -48.1437,18 -26.58903,0 -48.1437,-8.058875 -48.1437,-18 0,-9.941125 21.55467,-18 48.1437,-18 26.58903,0 48.1437,8.058875 48.1437,18 z"
       id="ellipse89"
       ry="18"
       rx="48.1437"
       cy="-90"
       cx="245" />
    <text
       style="font-size:14px;text-anchor:middle;font-family:'Times,serif'"
       id="text91"
       font-size="14.00"
       y="-86.300003"
       x="245">$D_{12}$</text>
  </g>
  <g
     class="edge"
     id="edge6"
     transform="translate(4,256)">
    <title
       id="title94">D1-&gt;D12</title>
    <path
       style="fill:none;stroke:#000000"
       inkscape:connector-curvature="0"
       id="path96"
       d="m 245,-143.697 c 0,7.714 0,16.985 0,25.585" />
    <polygon
       style="fill:#000000;stroke:#000000"
       id="polygon98"
       points="241.5,-118.104 248.5,-118.104 248.5,-118.104 245,-108.104 " />
  </g>
  <g
     class="node"
     id="node8"
     transform="translate(4,256)">
    <title
       id="title101">D21</title>
    <ellipse
       style="fill:none;stroke:#000000"
       sodipodi:ry="18"
       sodipodi:rx="48.1437"
       sodipodi:cy="-90"
       sodipodi:cx="425"
       d="m 473.1437,-90 c 0,9.941125 -21.55467,18 -48.1437,18 -26.58903,0 -48.1437,-8.058875 -48.1437,-18 0,-9.941125 21.55467,-18 48.1437,-18 26.58903,0 48.1437,8.058875 48.1437,18 z"
       id="ellipse103"
       ry="18"
       rx="48.1437"
       cy="-90"
       cx="425" />
    <text
       style="font-size:14px;text-anchor:middle;font-family:'Times,serif'"
       id="text105"
       font-size="14.00"
       y="-86.300003"
       x="425">$D_{21}$</text>
  </g>
  <g
     class="edge"
     id="edge7"
     transform="translate(4,256)">
    <title
       id="title108">D2-&gt;D21</title>
    <path
       style="fill:none;stroke:#000000"
       inkscape:connector-curvature="0"
       id="path110"
       d="m 521.082,-147.998 c -17.571,10.424 -42.52,25.224 -62.591,37.131" />
    <polygon
       style="fill:#000000;stroke:#000000"
       id="polygon112"
       points="456.471,-113.739 460.042,-107.718 460.042,-107.718 449.656,-105.626 " />
  </g>
  <g
     class="node"
     id="node9"
     transform="translate(4,256)">
    <title
       id="title115">D22</title>
    <ellipse
       style="fill:none;stroke:#000000"
       sodipodi:ry="18"
       sodipodi:rx="48.1437"
       sodipodi:cy="-90"
       sodipodi:cx="543"
       d="m 591.1437,-90 c 0,9.941125 -21.55467,18 -48.1437,18 -26.58903,0 -48.1437,-8.058875 -48.1437,-18 0,-9.941125 21.55467,-18 48.1437,-18 26.58903,0 48.1437,8.058875 48.1437,18 z"
       id="ellipse117"
       ry="18"
       rx="48.1437"
       cy="-90"
       cx="543" />
    <text
       style="font-size:14px;text-anchor:middle;font-family:'Times,serif'"
       id="text119"
       font-size="14.00"
       y="-86.300003"
       x="543">$D_{22}$</text>
  </g>
  <g
     class="edge"
     id="edge8"
     transform="translate(4,256)">
    <title
       id="title122">D2-&gt;D22</title>
    <path
       style="fill:none;stroke:#000000"
       inkscape:connector-curvature="0"
       id="path124"
       d="m 543,-143.697 c 0,7.714 0,16.985 0,25.585" />
    <polygon
       style="fill:#000000;stroke:#000000"
       id="polygon126"
       points="539.5,-118.104 546.5,-118.104 546.5,-118.104 543,-108.104 " />
  </g>
  <g
     class="node"
     id="node12"
     transform="translate(-156,256)">
    <title
       id="title157">Dk1</title>
    <ellipse
       style="fill:none;stroke:#000000"
       sodipodi:ry="18"
       sodipodi:rx="48.1437"
       sodipodi:cy="-90"
       sodipodi:cx="1000"
       d="m 1048.1437,-90 c 0,9.941125 -21.5547,18 -48.1437,18 -26.58903,0 -48.1437,-8.058875 -48.1437,-18 0,-9.941125 21.55467,-18 48.1437,-18 26.589,0 48.1437,8.058875 48.1437,18 z"
       id="ellipse159"
       ry="18"
       rx="48.1437"
       cy="-90"
       cx="1000" />
    <text
       style="font-size:14px;text-anchor:middle;font-family:'Times,serif'"
       id="text161"
       font-size="14.00"
       y="-86.300003"
       x="1000">$D_{k1}$</text>
  </g>
  <g
     class="edge"
     id="edge11"
     transform="translate(-156,256)">
    <title
       id="title164">Dk-&gt;Dk1</title>
    <path
       style="fill:none;stroke:#000000"
       inkscape:connector-curvature="0"
       id="path166"
       d="m 1000,-143.697 c 0,7.714 0,16.985 0,25.585" />
    <polygon
       style="fill:#000000;stroke:#000000"
       id="polygon168"
       points="996.5,-118.104 1003.5,-118.104 1003.5,-118.104 1000,-108.104 " />
  </g>
  <g
     class="node"
     id="node13"
     transform="translate(-156,256)">
    <title
       id="title171">Dk2</title>
    <ellipse
       style="fill:none;stroke:#000000"
       sodipodi:ry="18"
       sodipodi:rx="48.1437"
       sodipodi:cy="-90"
       sodipodi:cx="1136"
       d="m 1184.1437,-90 c 0,9.941125 -21.5547,18 -48.1437,18 -26.589,0 -48.1437,-8.058875 -48.1437,-18 0,-9.941125 21.5547,-18 48.1437,-18 26.589,0 48.1437,8.058875 48.1437,18 z"
       id="ellipse173"
       ry="18"
       rx="48.1437"
       cy="-90"
       cx="1136" />
    <text
       style="font-size:14px;text-anchor:middle;font-family:'Times,serif'"
       id="text175"
       font-size="14.00"
       y="-86.300003"
       x="1136">$D_{k2}$</text>
  </g>
  <g
     class="edge"
     id="edge12"
     transform="translate(-156,256)">
    <title
       id="title178">Dk-&gt;Dk2</title>
    <path
       style="fill:none;stroke:#000000"
       inkscape:connector-curvature="0"
       id="path180"
       d="m 1023.69,-148.807 c 20.96,10.789 51.87,26.7 75.96,39.099" />
    <polygon
       style="fill:#000000;stroke:#000000"
       id="polygon182"
       points="1098.35,-106.441 1101.56,-112.665 1101.56,-112.665 1108.85,-104.976 " />
  </g>
  <g
     class="edge"
     id="edge13"
     transform="translate(4,256)">
    <title
       id="title192">D11-&gt;D111</title>
    <path
       style="fill:none;stroke:#000000"
       inkscape:connector-curvature="0"
       id="path194"
       d="m 91.0737,-73.1159 c -11.0538,9.7945 -25.3591,22.4701 -37.3458,33.0912" />
    <polygon
       style="fill:#000000;stroke:#000000"
       id="polygon196"
       points="51.4066,-42.6442 56.0489,-37.405 56.0489,-37.405 46.2432,-33.3927 " />
  </g>
  <g
     class="edge"
     id="edge14"
     transform="translate(4,256)">
    <title
       id="title206">D11-&gt;D112</title>
    <path
       style="fill:none;stroke:#000000"
       inkscape:connector-curvature="0"
       id="path208"
       d="m 109,-71.6966 c 0,7.7139 0,16.9841 0,25.5842" />
    <polygon
       style="fill:#000000;stroke:#000000"
       id="polygon210"
       points="105.5,-46.1044 112.5,-46.1043 112.5,-46.1043 109,-36.1043 " />
  </g>
  <g
     class="edge"
     id="edge15"
     transform="translate(4,256)">
    <title
       id="title220">D12-&gt;D121</title>
    <path
       style="fill:none;stroke:#000000"
       inkscape:connector-curvature="0"
       id="path222"
       d="m 231.492,-72.411 c -7.305,8.9703 -16.446,20.1962 -24.46,30.0383" />
    <polygon
       style="fill:#000000;stroke:#000000"
       id="polygon224"
       points="204.231,-44.4752 209.659,-40.0552 209.659,-40.0552 200.63,-34.5108 " />
  </g>
  <g
     class="edge"
     id="edge16"
     transform="translate(4,256)">
    <title
       id="title234">D12-&gt;D122</title>
    <path
       style="fill:none;stroke:#000000"
       inkscape:connector-curvature="0"
       id="path236"
       d="m 250.326,-72.055 c 2.513,7.9964 5.57,17.7242 8.377,26.6555" />
    <polygon
       style="fill:#000000;stroke:#000000"
       id="polygon238"
       points="255.386,-44.2795 262.064,-46.3784 262.064,-46.3784 261.723,-35.789 " />
  </g>
  <g
     class="edge"
     id="edge17"
     transform="translate(4,256)">
    <title
       id="title248">D21-&gt;D211</title>
    <path
       style="fill:none;stroke:#000000"
       inkscape:connector-curvature="0"
       id="path250"
       d="m 407.074,-73.1159 c -11.054,9.7945 -25.359,22.4701 -37.346,33.0912" />
    <polygon
       style="fill:#000000;stroke:#000000"
       id="polygon252"
       points="367.407,-42.6442 372.049,-37.405 372.049,-37.405 362.243,-33.3927 " />
  </g>
  <g
     class="edge"
     id="edge18"
     transform="translate(4,256)">
    <title
       id="title262">D21-&gt;D212</title>
    <path
       style="fill:none;stroke:#000000"
       inkscape:connector-curvature="0"
       id="path264"
       d="m 425,-71.6966 c 0,7.7139 0,16.9841 0,25.5842" />
    <polygon
       style="fill:#000000;stroke:#000000"
       id="polygon266"
       points="421.5,-46.1044 428.5,-46.1043 428.5,-46.1043 425,-36.1043 " />
  </g>
  <g
     class="edge"
     id="edge19"
     transform="translate(4,256)">
    <title
       id="title276">D22-&gt;D221</title>
    <path
       style="fill:none;stroke:#000000"
       inkscape:connector-curvature="0"
       id="path278"
       d="m 533.559,-72.055 c -4.666,8.3757 -10.391,18.6511 -15.556,27.9209" />
    <polygon
       style="fill:#000000;stroke:#000000"
       id="polygon280"
       points="514.895,-45.7462 521.01,-42.3392 521.01,-42.3392 513.085,-35.307 " />
  </g>
  <g
     class="edge"
     id="edge20"
     transform="translate(4,256)">
    <title
       id="title290">D22-&gt;D222</title>
    <path
       style="fill:none;stroke:#000000"
       inkscape:connector-curvature="0"
       id="path292"
       d="m 552.683,-72.055 c 4.786,8.3757 10.658,18.6511 15.955,27.9209" />
    <polygon
       style="fill:#000000;stroke:#000000"
       id="polygon294"
       points="565.681,-42.2529 571.759,-45.7259 571.759,-45.7259 573.682,-35.307 " />
  </g>
  <g
     class="edge"
     id="edge25"
     transform="translate(-156,256)">
    <title
       id="title360">Dk1-&gt;Dk11</title>
    <path
       style="fill:none;stroke:#000000"
       inkscape:connector-curvature="0"
       id="path362"
       d="m 994.674,-72.055 c -2.513,7.9964 -5.57,17.7242 -8.377,26.6555" />
    <polygon
       style="fill:#000000;stroke:#000000"
       id="polygon364"
       points="982.936,-46.3784 989.614,-44.2795 989.614,-44.2795 983.277,-35.789 " />
  </g>
  <g
     class="edge"
     id="edge26"
     transform="translate(-156,256)">
    <title
       id="title374">Dk1-&gt;Dk12</title>
    <path
       style="fill:none;stroke:#000000"
       inkscape:connector-curvature="0"
       id="path376"
       d="m 1013.51,-72.411 c 7.3,8.9703 16.44,20.1962 24.46,30.0383" />
    <polygon
       style="fill:#000000;stroke:#000000"
       id="polygon378"
       points="1035.34,-40.0552 1040.77,-44.4752 1040.77,-44.4752 1044.37,-34.5108 " />
  </g>
  <g
     class="edge"
     id="edge27"
     transform="translate(-156,256)">
    <title
       id="title388">Dk2-&gt;Dk21</title>
    <path
       style="fill:none;stroke:#000000"
       inkscape:connector-curvature="0"
       id="path390"
       d="m 1136,-71.6966 c 0,7.7139 0,16.9841 0,25.5842" />
    <polygon
       style="fill:#000000;stroke:#000000"
       id="polygon392"
       points="1132.5,-46.1044 1139.5,-46.1043 1139.5,-46.1043 1136,-36.1043 " />
  </g>
  <g
     class="edge"
     id="edge28"
     transform="translate(-156,256)">
    <title
       id="title402">Dk2-&gt;Dk22</title>
    <path
       style="fill:none;stroke:#000000"
       inkscape:connector-curvature="0"
       id="path404"
       d="m 1153.93,-73.1159 c 11.05,9.7945 25.36,22.4701 37.34,33.0912" />
    <polygon
       style="fill:#000000;stroke:#000000"
       id="polygon406"
       points="1188.95,-37.405 1193.59,-42.6442 1193.59,-42.6442 1198.76,-33.3927 " />
  </g>
  <text
     xml:space="preserve"
     style="font-size:32px;font-style:normal;font-weight:normal;line-height:125%;letter-spacing:0px;word-spacing:0px;fill:#000000;fill-opacity:1;stroke:none;font-family:Sans"
     x="664.94006"
     y="100.33128"
     id="text3618"
     sodipodi:linespacing="125%"><tspan
       sodipodi:role="line"
       id="tspan3620"
       x="664.94006"
       y="100.33128">...</tspan></text>
  <text
     sodipodi:linespacing="125%"
     id="text3622"
     y="164.33128"
     x="696.94006"
     style="font-size:32px;font-style:normal;font-weight:normal;line-height:125%;letter-spacing:0px;word-spacing:0px;fill:#000000;fill-opacity:1;stroke:none;font-family:Sans"
     xml:space="preserve"><tspan
       y="164.33128"
       x="696.94006"
       id="tspan3624"
       sodipodi:role="line">...</tspan></text>
  <text
     xml:space="preserve"
     style="font-size:32px;font-style:normal;font-weight:normal;line-height:125%;letter-spacing:0px;word-spacing:0px;fill:#000000;fill-opacity:1;stroke:none;font-family:Sans"
     x="24.940063"
     y="244.33128"
     id="text3626"
     sodipodi:linespacing="125%"><tspan
       sodipodi:role="line"
       id="tspan3628"
       x="24.940063"
       y="244.33128">...</tspan></text>
  <text
     sodipodi:linespacing="125%"
     id="text3630"
     y="244.33128"
     x="104.94006"
     style="font-size:32px;font-style:normal;font-weight:normal;line-height:125%;letter-spacing:0px;word-spacing:0px;fill:#000000;fill-opacity:1;stroke:none;font-family:Sans"
     xml:space="preserve"><tspan
       y="244.33128"
       x="104.94006"
       id="tspan3632"
       sodipodi:role="line">...</tspan></text>
  <text
     sodipodi:linespacing="125%"
     id="text3634"
     y="244.33128"
     x="184.94006"
     style="font-size:32px;font-style:normal;font-weight:normal;line-height:125%;letter-spacing:0px;word-spacing:0px;fill:#000000;fill-opacity:1;stroke:none;font-family:Sans"
     xml:space="preserve"><tspan
       y="244.33128"
       x="184.94006"
       id="tspan3636"
       sodipodi:role="line">...</tspan></text>
  <text
     xml:space="preserve"
     style="font-size:32px;font-style:normal;font-weight:normal;line-height:125%;letter-spacing:0px;word-spacing:0px;fill:#000000;fill-opacity:1;stroke:none;font-family:Sans"
     x="264.94006"
     y="244.33128"
     id="text3638"
     sodipodi:linespacing="125%"><tspan
       sodipodi:role="line"
       id="tspan3640"
       x="264.94006"
       y="244.33128">...</tspan></text>
  <text
     sodipodi:linespacing="125%"
     id="text3642"
     y="244.33128"
     x="344.94006"
     style="font-size:32px;font-style:normal;font-weight:normal;line-height:125%;letter-spacing:0px;word-spacing:0px;fill:#000000;fill-opacity:1;stroke:none;font-family:Sans"
     xml:space="preserve"><tspan
       y="244.33128"
       x="344.94006"
       id="tspan3644"
       sodipodi:role="line">...</tspan></text>
  <text
     xml:space="preserve"
     style="font-size:32px;font-style:normal;font-weight:normal;line-height:125%;letter-spacing:0px;word-spacing:0px;fill:#000000;fill-opacity:1;stroke:none;font-family:Sans"
     x="424.94006"
     y="244.33128"
     id="text3646"
     sodipodi:linespacing="125%"><tspan
       sodipodi:role="line"
       id="tspan3648"
       x="424.94006"
       y="244.33128">...</tspan></text>
  <text
     xml:space="preserve"
     style="font-size:32px;font-style:normal;font-weight:normal;line-height:125%;letter-spacing:0px;word-spacing:0px;fill:#000000;fill-opacity:1;stroke:none;font-family:Sans"
     x="504.94006"
     y="244.33128"
     id="text3650"
     sodipodi:linespacing="125%"><tspan
       sodipodi:role="line"
       id="tspan3652"
       x="504.94006"
       y="244.33128">...</tspan></text>
  <text
     sodipodi:linespacing="125%"
     id="text3654"
     y="244.33128"
     x="584.94006"
     style="font-size:32px;font-style:normal;font-weight:normal;line-height:125%;letter-spacing:0px;word-spacing:0px;fill:#000000;fill-opacity:1;stroke:none;font-family:Sans"
     xml:space="preserve"><tspan
       y="244.33128"
       x="584.94006"
       id="tspan3656"
       sodipodi:role="line">...</tspan></text>
  <text
     xml:space="preserve"
     style="font-size:32px;font-style:normal;font-weight:normal;line-height:125%;letter-spacing:0px;word-spacing:0px;fill:#000000;fill-opacity:1;stroke:none;font-family:Sans"
     x="808.94006"
     y="244.33128"
     id="text3658"
     sodipodi:linespacing="125%"><tspan
       sodipodi:role="line"
       id="tspan3660"
       x="808.94006"
       y="244.33128">...</tspan></text>
  <text
     sodipodi:linespacing="125%"
     id="text3662"
     y="244.33128"
     x="888.94006"
     style="font-size:32px;font-style:normal;font-weight:normal;line-height:125%;letter-spacing:0px;word-spacing:0px;fill:#000000;fill-opacity:1;stroke:none;font-family:Sans"
     xml:space="preserve"><tspan
       y="244.33128"
       x="888.94006"
       id="tspan3664"
       sodipodi:role="line">...</tspan></text>
  <text
     sodipodi:linespacing="125%"
     id="text3666"
     y="244.33128"
     x="968.94006"
     style="font-size:32px;font-style:normal;font-weight:normal;line-height:125%;letter-spacing:0px;word-spacing:0px;fill:#000000;fill-opacity:1;stroke:none;font-family:Sans"
     xml:space="preserve"><tspan
       y="244.33128"
       x="968.94006"
       id="tspan3668"
       sodipodi:role="line">...</tspan></text>
  <text
     xml:space="preserve"
     style="font-size:32px;font-style:normal;font-weight:normal;line-height:125%;letter-spacing:0px;word-spacing:0px;fill:#000000;fill-opacity:1;stroke:none;font-family:Sans"
     x="1048.9402"
     y="244.33128"
     id="text3670"
     sodipodi:linespacing="125%"><tspan
       sodipodi:role="line"
       id="tspan3672"
       x="1048.9402"
       y="244.33128">...</tspan></text>
</svg>
