<?xml version="1.0" encoding="UTF-8" standalone="no"?>
<svg
   fill="#000000"
   height="24"
   viewBox="0 0 24 24"
   width="24"
   version="1.1"
   id="svg19239"
   sodipodi:docname="dice5.svg"
   inkscape:version="1.2.2 (b0a8486541, 2022-12-01)"
   xmlns:inkscape="http://www.inkscape.org/namespaces/inkscape"
   xmlns:sodipodi="http://sodipodi.sourceforge.net/DTD/sodipodi-0.dtd"
   xmlns="http://www.w3.org/2000/svg"
   xmlns:svg="http://www.w3.org/2000/svg">
  <defs
     id="defs19243" />
  <sodipodi:namedview
     id="namedview19241"
     pagecolor="#ffffff"
     bordercolor="#000000"
     borderopacity="0.25"
     inkscape:showpageshadow="2"
     inkscape:pageopacity="0.0"
     inkscape:pagecheckerboard="0"
     inkscape:deskcolor="#d1d1d1"
     showgrid="false"
     inkscape:zoom="42.791667"
     inkscape:cx="11.988315"
     inkscape:cy="12.023369"
     inkscape:window-width="3840"
     inkscape:window-height="2025"
     inkscape:window-x="0"
     inkscape:window-y="0"
     inkscape:window-maximized="1"
     inkscape:current-layer="svg19239" />
  <path
     d="M 0,0 H 24 V 24 H 0 Z m 21.02,19 c 0,1.1 -0.9,2 -2,2 h -14 c -1.1,0 -2,-0.9 -2,-2 V 5 c 0,-1.1 0.9,-2 2,-2 h 14 c 1.1,0 2,0.9 2,2 z"
     fill="none"
     id="path19235" />
  <path
     d="M 19,3 H 5 C 3.9,3 3,3.9 3,5 v 14 c 0,1.1 0.9,2 2,2 h 14 c 1.1,0 2,-0.9 2,-2 V 5 C 21,3.9 20.1,3 19,3 Z M 7.5,18 C 6.67,18 6,17.33 6,16.5 6,15.67 6.67,15 7.5,15 8.33,15 9,15.67 9,16.5 9,17.33 8.33,18 7.5,18 Z m 0,-9 C 6.67,9 6,8.33 6,7.5 6,6.67 6.67,6 7.5,6 8.33,6 9,6.67 9,7.5 9,8.33 8.33,9 7.5,9 Z m 4.5,4.5 c -0.83,0 -1.5,-0.67 -1.5,-1.5 0,-0.83 0.67,-1.5 1.5,-1.5 0.83,0 1.5,0.67 1.5,1.5 0,0.83 -0.67,1.5 -1.5,1.5 z M 16.5,18 C 15.67,18 15,17.33 15,16.5 15,15.67 15.67,15 16.5,15 c 0.83,0 1.5,0.67 1.5,1.5 0,0.83 -0.67,1.5 -1.5,1.5 z m 0,-9 C 15.67,9 15,8.33 15,7.5 15,6.67 15.67,6 16.5,6 17.33,6 18,6.67 18,7.5 18,8.33 17.33,9 16.5,9 Z"
     id="path19237" />
</svg>
