<?xml version="1.0" encoding="UTF-8" standalone="no"?>
<!-- Generated by graphviz version 2.36.0 (20140111.2315)
 -->

<!-- Title: %3 Pages: 1 -->

<svg
   width="292.55167pt"
   height="176.8pt"
   viewBox="0 0 292.55167 176.8"
   id="svg2"
   version="1.1"
   inkscape:version="1.2.2 (b0a8486541, 2022-12-01)"
   sodipodi:docname="greedy_theorem_1.svg"
   xmlns:inkscape="http://www.inkscape.org/namespaces/inkscape"
   xmlns:sodipodi="http://sodipodi.sourceforge.net/DTD/sodipodi-0.dtd"
   xmlns="http://www.w3.org/2000/svg"
   xmlns:svg="http://www.w3.org/2000/svg"
   xmlns:rdf="http://www.w3.org/1999/02/22-rdf-syntax-ns#"
   xmlns:cc="http://creativecommons.org/ns#"
   xmlns:dc="http://purl.org/dc/elements/1.1/">
  <metadata
     id="metadata412">
    <rdf:RDF>
      <cc:Work
         rdf:about="">
        <dc:format>image/svg+xml</dc:format>
        <dc:type
           rdf:resource="http://purl.org/dc/dcmitype/StillImage" />
      </cc:Work>
    </rdf:RDF>
  </metadata>
  <defs
     id="defs410">
    <marker
       inkscape:stockid="Arrow1Mend"
       orient="auto"
       refY="0"
       refX="0"
       id="Arrow1Mend"
       style="overflow:visible">
      <path
         id="path3893"
         d="M 0,0 5,-5 -12.5,0 5,5 Z"
         style="fill-rule:evenodd;stroke:#000000;stroke-width:1pt"
         transform="matrix(-0.4,0,0,-0.4,-4,0)" />
    </marker>
    <marker
       inkscape:stockid="Arrow1Lstart"
       orient="auto"
       refY="0"
       refX="0"
       id="Arrow1Lstart"
       style="overflow:visible">
      <path
         id="path3884"
         d="M 0,0 5,-5 -12.5,0 5,5 Z"
         style="fill-rule:evenodd;stroke:#000000;stroke-width:1pt"
         transform="matrix(0.8,0,0,0.8,10,0)" />
    </marker>
    <marker
       inkscape:stockid="Arrow2Lstart"
       orient="auto"
       refY="0"
       refX="0"
       id="Arrow2Lstart"
       style="overflow:visible">
      <path
         id="path3902"
         style="fill-rule:evenodd;stroke-width:0.625;stroke-linejoin:round"
         d="M 8.7185878,4.0337352 -2.2072895,0.01601326 8.7185884,-4.0017078 c -1.7454984,2.3720609 -1.7354408,5.6174519 -6e-7,8.035443 z"
         transform="matrix(1.1,0,0,1.1,1.1,0)" />
    </marker>
    <marker
       inkscape:stockid="Arrow1Lend"
       orient="auto"
       refY="0"
       refX="0"
       id="Arrow1Lend"
       style="overflow:visible">
      <path
         id="path3947"
         d="M 0,0 5,-5 -12.5,0 5,5 Z"
         style="fill-rule:evenodd;stroke:#000000;stroke-width:1pt"
         transform="matrix(-0.8,0,0,-0.8,-10,0)" />
    </marker>
  </defs>
  <sodipodi:namedview
     pagecolor="#ffffff"
     bordercolor="#666666"
     borderopacity="1"
     objecttolerance="10"
     gridtolerance="10"
     guidetolerance="10"
     inkscape:pageopacity="0"
     inkscape:pageshadow="2"
     inkscape:window-width="1504"
     inkscape:window-height="1285"
     id="namedview408"
     showgrid="true"
     inkscape:zoom="1.0221164"
     inkscape:cx="213.28295"
     inkscape:cy="21.034786"
     inkscape:window-x="26"
     inkscape:window-y="23"
     inkscape:window-maximized="0"
     inkscape:current-layer="svg2"
     inkscape:snap-global="true"
     inkscape:showpageshadow="2"
     inkscape:pagecheckerboard="0"
     inkscape:deskcolor="#d1d1d1"
     inkscape:document-units="pt">
    <inkscape:grid
       type="xygrid"
       id="grid3134"
       originx="-196.64834"
       originy="-19.6" />
  </sodipodi:namedview>
  <path
     style="fill:none;stroke:#000000;stroke-width:2.4;stroke-linecap:butt;stroke-linejoin:miter;stroke-miterlimit:4;stroke-dasharray:none;stroke-opacity:1"
     d="m 195.35167,8.4 -96.000004,16 v 128 l 96.000004,16 96,-16 v -128 z"
     id="path8405"
     inkscape:connector-curvature="0" />
  <path
     sodipodi:nodetypes="caaaaccccc"
     inkscape:connector-curvature="0"
     id="path8411"
     d="m 99.351666,96.4 c 0,0 41.289204,-25.825041 64.000004,-24 21.43027,1.722137 34.88129,36.02771 56,32 16.77268,-3.19885 14.95113,-39.055746 32,-40 11.2964,-0.625652 12.68629,24 24,24 7.54247,0 16,-16 16,-16 v -32 l -96,-16 -96.000004,16 z"
     style="fill:#00ffff;stroke:#000000;stroke-width:2.4;stroke-linecap:butt;stroke-linejoin:miter;stroke-miterlimit:4;stroke-dasharray:none;stroke-opacity:1" />
  <path
     style="fill:#00ff00;stroke:#000000;stroke-width:2.4;stroke-linecap:butt;stroke-linejoin:miter;stroke-miterlimit:4;stroke-dasharray:none;stroke-opacity:1"
     d="m 99.351666,80.4 c 0,0 41.365484,-26.605698 64.000004,-24 19.10344,2.199198 28.86397,33.89484 48,32 18.76441,-1.85804 21.14381,-40 40,-40 11.31371,0 12.68628,24 24,24 7.54247,0 16,-16 16,-16 v -32 l -96,-16 -96.000004,16 z"
     id="path8407"
     inkscape:connector-curvature="0"
     sodipodi:nodetypes="caaaaccccc" />
  <text
     xml:space="preserve"
     style="font-style:normal;font-weight:normal;line-height:0%;font-family:sans-serif;text-align:end;letter-spacing:0px;word-spacing:0px;text-anchor:end;fill:#000000;fill-opacity:1;stroke:none"
     x="83.743973"
     y="61.004539"
     id="text8945"><tspan
       sodipodi:role="line"
       id="tspan8947"
       x="83.743973"
       y="61.004539"
       style="font-size:16px;line-height:1.25;font-family:sans-serif;text-align:end;text-anchor:end">terminated</tspan></text>
  <text
     id="text8949"
     y="91.404541"
     x="84.150253"
     style="font-style:normal;font-weight:normal;line-height:0%;font-family:sans-serif;text-align:end;letter-spacing:0px;word-spacing:0px;text-anchor:end;fill:#000000;fill-opacity:1;stroke:none"
     xml:space="preserve"><tspan
       style="font-size:16px;line-height:1.25;font-family:sans-serif;text-align:end;text-anchor:end"
       y="91.404541"
       x="84.150253"
       id="tspan8951"
       sodipodi:role="line">ready</tspan></text>
  <path
     style="fill:none;stroke:#ff0000;stroke-width:2.4;stroke-linecap:butt;stroke-linejoin:miter;stroke-miterlimit:4;stroke-dasharray:none;stroke-opacity:1"
     d="m 195.35167,8.4 24,16 -24,24 32,24 -8,24 16,8 -24,16 16,8 -24,16 -8,24"
     id="path8959"
     inkscape:connector-curvature="0" />
  <circle
     style="opacity:1;fill:#00ff00;fill-opacity:1;stroke:#000000;stroke-width:0.8;stroke-miterlimit:4;stroke-dasharray:none;stroke-dashoffset:0;stroke-opacity:1"
     id="path8955"
     cx="195.35167"
     cy="8.3999996"
     r="8" />
  <circle
     id="path8957"
     style="fill:#ffffff;fill-opacity:1;stroke:#000000;stroke-width:0.8;stroke-miterlimit:4;stroke-dasharray:none;stroke-dashoffset:0;stroke-opacity:1"
     cx="195.35167"
     cy="168.39999"
     r="8" />
  <path
     style="fill:none;stroke:#000000;stroke-width:0.8px;stroke-linecap:butt;stroke-linejoin:miter;stroke-opacity:1"
     d="m 99.351666,24.4 -8,32 8,24"
     id="path8961"
     inkscape:connector-curvature="0" />
  <path
     style="fill:none;stroke:#000000;stroke-width:0.8px;stroke-linecap:butt;stroke-linejoin:miter;stroke-opacity:1"
     d="m 99.351666,80.4 -8,8 8,8"
     id="path8963"
     inkscape:connector-curvature="0" />
  <circle
     id="path8965"
     style="fill:#00ffff;fill-opacity:1;stroke:#000000;stroke-width:0.8;stroke-miterlimit:4;stroke-dasharray:none;stroke-dashoffset:0;stroke-opacity:1"
     cx="220.95166"
     cy="94.800003"
     r="8" />
</svg>
