<?xml version="1.0" encoding="UTF-8" standalone="yes"?>
<svg xmlns="http://www.w3.org/2000/svg" width="500" height="500" viewBox="0 0 500 500" ><rect x="0" y="0" width="500" height="500" stroke="black" fill="none"/>
<circle cx="271" cy="167" r="4" stroke="none" fill="red"/>
<rect x="0" y="0" width="271" height="500" stroke="black" fill="none"/>
<circle cx="134" cy="136" r="4" stroke="none" fill="red"/>
<rect x="0" y="0" width="271" height="136" stroke="black" fill="none"/>
<circle cx="88" cy="93" r="4" stroke="none" fill="red"/>
<rect x="0" y="0" width="88" height="136" stroke="black" fill="none"/>
<circle cx="8" cy="8" r="4" stroke="none" fill="red"/>
<circle cx="28" cy="64" r="4" stroke="none" fill="red"/>
<circle cx="52" cy="103" r="4" stroke="none" fill="red"/>
<circle cx="18" cy="102" r="4" stroke="none" fill="red"/>
<circle cx="84" cy="126" r="4" stroke="none" fill="red"/>
<circle cx="80" cy="74" r="4" stroke="none" fill="red"/>
<circle cx="61" cy="88" r="4" stroke="none" fill="red"/>
<circle cx="31" cy="2" r="4" stroke="none" fill="red"/>
<circle cx="54" cy="87" r="4" stroke="none" fill="red"/>
<circle cx="69" cy="55" r="4" stroke="none" fill="red"/>
<rect x="88" y="0" width="183" height="136" stroke="black" fill="none"/>
<circle cx="230" cy="48" r="4" stroke="none" fill="red"/>
<rect x="88" y="0" width="183" height="48" stroke="black" fill="none"/>
<circle cx="173" cy="37" r="4" stroke="none" fill="red"/>
<rect x="88" y="0" width="84" height="48" stroke="black" fill="none"/>
<circle cx="114" cy="48" r="4" stroke="none" fill="red"/>
<circle cx="147" cy="44" r="4" stroke="none" fill="red"/>
<circle cx="112" cy="3" r="4" stroke="none" fill="red"/>
<circle cx="157" cy="17" r="4" stroke="none" fill="red"/>
<circle cx="116" cy="14" r="4" stroke="none" fill="red"/>
<circle cx="144" cy="46" r="4" stroke="none" fill="red"/>
<rect x="173" y="0" width="98" height="48" stroke="black" fill="none"/>
<circle cx="236" cy="5" r="4" stroke="none" fill="red"/>
<circle cx="193" cy="8" r="4" stroke="none" fill="red"/>
<circle cx="203" cy="3" r="4" stroke="none" fill="red"/>
<circle cx="175" cy="37" r="4" stroke="none" fill="red"/>
<circle cx="233" cy="40" r="4" stroke="none" fill="red"/>
<circle cx="208" cy="28" r="4" stroke="none" fill="red"/>
<circle cx="264" cy="12" r="4" stroke="none" fill="red"/>
<rect x="88" y="48" width="183" height="87" stroke="black" fill="none"/>
<circle cx="178" cy="77" r="4" stroke="none" fill="red"/>
<rect x="88" y="48" width="90" height="87" stroke="black" fill="none"/>
<circle cx="100" cy="67" r="4" stroke="none" fill="red"/>
<circle cx="110" cy="82" r="4" stroke="none" fill="red"/>
<circle cx="119" cy="85" r="4" stroke="none" fill="red"/>
<circle cx="143" cy="76" r="4" stroke="none" fill="red"/>
<circle cx="152" cy="119" r="4" stroke="none" fill="red"/>
<rect x="178" y="48" width="92" height="87" stroke="black" fill="none"/>
<circle cx="226" cy="52" r="4" stroke="none" fill="red"/>
<circle cx="239" cy="61" r="4" stroke="none" fill="red"/>
<circle cx="211" cy="55" r="4" stroke="none" fill="red"/>
<circle cx="244" cy="108" r="4" stroke="none" fill="red"/>
<circle cx="268" cy="117" r="4" stroke="none" fill="red"/>
<circle cx="187" cy="69" r="4" stroke="none" fill="red"/>
<circle cx="219" cy="119" r="4" stroke="none" fill="red"/>
<circle cx="268" cy="104" r="4" stroke="none" fill="red"/>
<circle cx="249" cy="65" r="4" stroke="none" fill="red"/>
<rect x="0" y="136" width="271" height="363" stroke="black" fill="none"/>
<circle cx="36" cy="469" r="4" stroke="none" fill="red"/>
<rect x="0" y="136" width="36" height="363" stroke="black" fill="none"/>
<circle cx="19" cy="415" r="4" stroke="none" fill="red"/>
<rect x="0" y="136" width="36" height="279" stroke="black" fill="none"/>
<circle cx="26" cy="363" r="4" stroke="none" fill="red"/>
<rect x="0" y="136" width="26" height="279" stroke="black" fill="none"/>
<circle cx="24" cy="401" r="4" stroke="none" fill="red"/>
<circle cx="6" cy="259" r="4" stroke="none" fill="red"/>
<circle cx="12" cy="261" r="4" stroke="none" fill="red"/>
<circle cx="14" cy="308" r="4" stroke="none" fill="red"/>
<circle cx="12" cy="258" r="4" stroke="none" fill="red"/>
<circle cx="7" cy="357" r="4" stroke="none" fill="red"/>
<circle cx="8" cy="254" r="4" stroke="none" fill="red"/>
<circle cx="11" cy="361" r="4" stroke="none" fill="red"/>
<circle cx="18" cy="255" r="4" stroke="none" fill="red"/>
<circle cx="8" cy="189" r="4" stroke="none" fill="red"/>
<rect x="26" y="136" width="9" height="279" stroke="black" fill="none"/>
<circle cx="35" cy="406" r="4" stroke="none" fill="red"/>
<circle cx="28" cy="263" r="4" stroke="none" fill="red"/>
<rect x="0" y="415" width="36" height="84" stroke="black" fill="none"/>
<circle cx="6" cy="423" r="4" stroke="none" fill="red"/>
<circle cx="3" cy="482" r="4" stroke="none" fill="red"/>
<circle cx="3" cy="498" r="4" stroke="none" fill="red"/>
<circle cx="10" cy="430" r="4" stroke="none" fill="red"/>
<circle cx="11" cy="454" r="4" stroke="none" fill="red"/>
<circle cx="3" cy="437" r="4" stroke="none" fill="red"/>
<rect x="36" y="136" width="235" height="363" stroke="black" fill="none"/>
<circle cx="58" cy="377" r="4" stroke="none" fill="red"/>
<rect x="36" y="136" width="235" height="241" stroke="black" fill="none"/>
<circle cx="208" cy="366" r="4" stroke="none" fill="red"/>
<rect x="36" y="136" width="172" height="241" stroke="black" fill="none"/>
<circle cx="83" cy="286" r="4" stroke="none" fill="red"/>
<rect x="36" y="136" width="172" height="150" stroke="black" fill="none"/>
<circle cx="90" cy="162" r="4" stroke="none" fill="red"/>
<rect x="36" y="136" width="54" height="150" stroke="black" fill="none"/>
<circle cx="67" cy="184" r="4" stroke="none" fill="red"/>
<circle cx="60" cy="244" r="4" stroke="none" fill="red"/>
<circle cx="81" cy="192" r="4" stroke="none" fill="red"/>
<circle cx="55" cy="218" r="4" stroke="none" fill="red"/>
<circle cx="84" cy="197" r="4" stroke="none" fill="red"/>
<circle cx="90" cy="240" r="4" stroke="none" fill="red"/>
<circle cx="85" cy="209" r="4" stroke="none" fill="red"/>
<rect x="90" y="136" width="117" height="150" stroke="black" fill="none"/>
<circle cx="93" cy="215" r="4" stroke="none" fill="red"/>
<rect x="90" y="136" width="117" height="79" stroke="black" fill="none"/>
<circle cx="113" cy="165" r="4" stroke="none" fill="red"/>
<circle cx="93" cy="144" r="4" stroke="none" fill="red"/>
<circle cx="144" cy="146" r="4" stroke="none" fill="red"/>
<circle cx="153" cy="201" r="4" stroke="none" fill="red"/>
<circle cx="138" cy="148" r="4" stroke="none" fill="red"/>
<circle cx="188" cy="154" r="4" stroke="none" fill="red"/>
<circle cx="200" cy="197" r="4" stroke="none" fill="red"/>
<circle cx="134" cy="207" r="4" stroke="none" fill="red"/>
<circle cx="194" cy="156" r="4" stroke="none" fill="red"/>
<circle cx="104" cy="154" r="4" stroke="none" fill="red"/>
<rect x="90" y="215" width="117" height="70" stroke="black" fill="none"/>
<circle cx="135" cy="220" r="4" stroke="none" fill="red"/>
<circle cx="145" cy="275" r="4" stroke="none" fill="red"/>
<circle cx="192" cy="271" r="4" stroke="none" fill="red"/>
<circle cx="135" cy="235" r="4" stroke="none" fill="red"/>
<circle cx="160" cy="243" r="4" stroke="none" fill="red"/>
<rect x="36" y="286" width="172" height="90" stroke="black" fill="none"/>
<circle cx="153" cy="317" r="4" stroke="none" fill="red"/>
<rect x="36" y="286" width="116" height="90" stroke="black" fill="none"/>
<circle cx="128" cy="302" r="4" stroke="none" fill="red"/>
<circle cx="53" cy="325" r="4" stroke="none" fill="red"/>
<circle cx="123" cy="346" r="4" stroke="none" fill="red"/>
<circle cx="134" cy="366" r="4" stroke="none" fill="red"/>
<circle cx="111" cy="374" r="4" stroke="none" fill="red"/>
<rect x="153" y="286" width="55" height="90" stroke="black" fill="none"/>
<circle cx="178" cy="356" r="4" stroke="none" fill="red"/>
<circle cx="199" cy="324" r="4" stroke="none" fill="red"/>
<circle cx="179" cy="340" r="4" stroke="none" fill="red"/>
<circle cx="161" cy="292" r="4" stroke="none" fill="red"/>
<circle cx="172" cy="294" r="4" stroke="none" fill="red"/>
<circle cx="159" cy="334" r="4" stroke="none" fill="red"/>
<circle cx="156" cy="326" r="4" stroke="none" fill="red"/>
<rect x="208" y="136" width="63" height="241" stroke="black" fill="none"/>
<circle cx="227" cy="289" r="4" stroke="none" fill="red"/>
<rect x="208" y="136" width="63" height="153" stroke="black" fill="none"/>
<circle cx="255" cy="222" r="4" stroke="none" fill="red"/>
<circle cx="269" cy="271" r="4" stroke="none" fill="red"/>
<circle cx="258" cy="193" r="4" stroke="none" fill="red"/>
<circle cx="221" cy="227" r="4" stroke="none" fill="red"/>
<circle cx="245" cy="273" r="4" stroke="none" fill="red"/>
<circle cx="232" cy="187" r="4" stroke="none" fill="red"/>
<circle cx="253" cy="264" r="4" stroke="none" fill="red"/>
<rect x="208" y="289" width="63" height="87" stroke="black" fill="none"/>
<circle cx="227" cy="294" r="4" stroke="none" fill="red"/>
<circle cx="226" cy="305" r="4" stroke="none" fill="red"/>
<circle cx="237" cy="295" r="4" stroke="none" fill="red"/>
<circle cx="249" cy="301" r="4" stroke="none" fill="red"/>
<rect x="36" y="377" width="235" height="122" stroke="black" fill="none"/>
<circle cx="87" cy="493" r="4" stroke="none" fill="red"/>
<rect x="36" y="377" width="50" height="122" stroke="black" fill="none"/>
<circle cx="51" cy="487" r="4" stroke="none" fill="red"/>
<circle cx="68" cy="491" r="4" stroke="none" fill="red"/>
<circle cx="74" cy="400" r="4" stroke="none" fill="red"/>
<circle cx="61" cy="397" r="4" stroke="none" fill="red"/>
<circle cx="57" cy="446" r="4" stroke="none" fill="red"/>
<rect x="87" y="377" width="184" height="122" stroke="black" fill="none"/>
<circle cx="269" cy="446" r="4" stroke="none" fill="red"/>
<rect x="87" y="377" width="184" height="68" stroke="black" fill="none"/>
<circle cx="145" cy="427" r="4" stroke="none" fill="red"/>
<rect x="87" y="377" width="58" height="68" stroke="black" fill="none"/>
<circle cx="144" cy="390" r="4" stroke="none" fill="red"/>
<circle cx="103" cy="411" r="4" stroke="none" fill="red"/>
<circle cx="137" cy="438" r="4" stroke="none" fill="red"/>
<circle cx="129" cy="428" r="4" stroke="none" fill="red"/>
<circle cx="131" cy="410" r="4" stroke="none" fill="red"/>
<circle cx="136" cy="438" r="4" stroke="none" fill="red"/>
<rect x="145" y="377" width="126" height="68" stroke="black" fill="none"/>
<circle cx="217" cy="410" r="4" stroke="none" fill="red"/>
<circle cx="242" cy="385" r="4" stroke="none" fill="red"/>
<circle cx="180" cy="437" r="4" stroke="none" fill="red"/>
<circle cx="212" cy="427" r="4" stroke="none" fill="red"/>
<circle cx="159" cy="382" r="4" stroke="none" fill="red"/>
<circle cx="148" cy="435" r="4" stroke="none" fill="red"/>
<circle cx="153" cy="406" r="4" stroke="none" fill="red"/>
<circle cx="206" cy="442" r="4" stroke="none" fill="red"/>
<rect x="87" y="446" width="184" height="53" stroke="black" fill="none"/>
<circle cx="266" cy="486" r="4" stroke="none" fill="red"/>
<circle cx="243" cy="455" r="4" stroke="none" fill="red"/>
<circle cx="139" cy="495" r="4" stroke="none" fill="red"/>
<circle cx="157" cy="483" r="4" stroke="none" fill="red"/>
<circle cx="250" cy="449" r="4" stroke="none" fill="red"/>
<circle cx="132" cy="474" r="4" stroke="none" fill="red"/>
<circle cx="262" cy="476" r="4" stroke="none" fill="red"/>
<circle cx="169" cy="494" r="4" stroke="none" fill="red"/>
<rect x="271" y="0" width="228" height="500" stroke="black" fill="none"/>
<circle cx="428" cy="134" r="4" stroke="none" fill="red"/>
<rect x="271" y="0" width="228" height="134" stroke="black" fill="none"/>
<circle cx="426" cy="129" r="4" stroke="none" fill="red"/>
<rect x="271" y="0" width="154" height="134" stroke="black" fill="none"/>
<circle cx="297" cy="118" r="4" stroke="none" fill="red"/>
<rect x="271" y="0" width="154" height="118" stroke="black" fill="none"/>
<circle cx="359" cy="54" r="4" stroke="none" fill="red"/>
<rect x="271" y="0" width="87" height="118" stroke="black" fill="none"/>
<circle cx="349" cy="80" r="4" stroke="none" fill="red"/>
<rect x="271" y="0" width="87" height="80" stroke="black" fill="none"/>
<circle cx="283" cy="23" r="4" stroke="none" fill="red"/>
<circle cx="284" cy="32" r="4" stroke="none" fill="red"/>
<circle cx="284" cy="16" r="4" stroke="none" fill="red"/>
<circle cx="282" cy="62" r="4" stroke="none" fill="red"/>
<rect x="271" y="80" width="87" height="38" stroke="black" fill="none"/>
<circle cx="340" cy="94" r="4" stroke="none" fill="red"/>
<circle cx="354" cy="103" r="4" stroke="none" fill="red"/>
<circle cx="300" cy="97" r="4" stroke="none" fill="red"/>
<circle cx="273" cy="92" r="4" stroke="none" fill="red"/>
<circle cx="304" cy="88" r="4" stroke="none" fill="red"/>
<circle cx="358" cy="110" r="4" stroke="none" fill="red"/>
<rect x="359" y="0" width="66" height="118" stroke="black" fill="none"/>
<circle cx="386" cy="14" r="4" stroke="none" fill="red"/>
<circle cx="382" cy="56" r="4" stroke="none" fill="red"/>
<circle cx="386" cy="88" r="4" stroke="none" fill="red"/>
<circle cx="403" cy="8" r="4" stroke="none" fill="red"/>
<circle cx="361" cy="112" r="4" stroke="none" fill="red"/>
<circle cx="393" cy="32" r="4" stroke="none" fill="red"/>
<circle cx="422" cy="23" r="4" stroke="none" fill="red"/>
<circle cx="387" cy="76" r="4" stroke="none" fill="red"/>
<circle cx="395" cy="36" r="4" stroke="none" fill="red"/>
<circle cx="392" cy="110" r="4" stroke="none" fill="red"/>
<rect x="271" y="118" width="154" height="15" stroke="black" fill="none"/>
<circle cx="373" cy="131" r="4" stroke="none" fill="red"/>
<circle cx="420" cy="125" r="4" stroke="none" fill="red"/>
<circle cx="420" cy="130" r="4" stroke="none" fill="red"/>
<circle cx="393" cy="122" r="4" stroke="none" fill="red"/>
<circle cx="339" cy="121" r="4" stroke="none" fill="red"/>
<rect x="426" y="0" width="73" height="134" stroke="black" fill="none"/>
<circle cx="474" cy="34" r="4" stroke="none" fill="red"/>
<rect x="426" y="0" width="73" height="34" stroke="black" fill="none"/>
<circle cx="476" cy="3" r="4" stroke="none" fill="red"/>
<circle cx="426" cy="6" r="4" stroke="none" fill="red"/>
<circle cx="451" cy="31" r="4" stroke="none" fill="red"/>
<circle cx="437" cy="33" r="4" stroke="none" fill="red"/>
<circle cx="447" cy="14" r="4" stroke="none" fill="red"/>
<circle cx="435" cy="31" r="4" stroke="none" fill="red"/>
<circle cx="459" cy="1" r="4" stroke="none" fill="red"/>
<circle cx="484" cy="30" r="4" stroke="none" fill="red"/>
<rect x="426" y="34" width="73" height="99" stroke="black" fill="none"/>
<circle cx="456" cy="113" r="4" stroke="none" fill="red"/>
<rect x="426" y="34" width="30" height="99" stroke="black" fill="none"/>
<circle cx="429" cy="74" r="4" stroke="none" fill="red"/>
<circle cx="442" cy="54" r="4" stroke="none" fill="red"/>
<circle cx="446" cy="66" r="4" stroke="none" fill="red"/>
<circle cx="454" cy="60" r="4" stroke="none" fill="red"/>
<circle cx="427" cy="97" r="4" stroke="none" fill="red"/>
<rect x="456" y="34" width="43" height="99" stroke="black" fill="none"/>
<circle cx="484" cy="57" r="4" stroke="none" fill="red"/>
<circle cx="499" cy="86" r="4" stroke="none" fill="red"/>
<circle cx="494" cy="48" r="4" stroke="none" fill="red"/>
<circle cx="462" cy="133" r="4" stroke="none" fill="red"/>
<circle cx="478" cy="111" r="4" stroke="none" fill="red"/>
<rect x="271" y="134" width="228" height="365" stroke="black" fill="none"/>
<circle cx="411" cy="424" r="4" stroke="none" fill="red"/>
<rect x="271" y="134" width="140" height="365" stroke="black" fill="none"/>
<circle cx="357" cy="333" r="4" stroke="none" fill="red"/>
<rect x="271" y="134" width="140" height="199" stroke="black" fill="none"/>
<circle cx="298" cy="228" r="4" stroke="none" fill="red"/>
<rect x="271" y="134" width="26" height="199" stroke="black" fill="none"/>
<circle cx="287" cy="238" r="4" stroke="none" fill="red"/>
<circle cx="292" cy="312" r="4" stroke="none" fill="red"/>
<circle cx="295" cy="226" r="4" stroke="none" fill="red"/>
<circle cx="273" cy="177" r="4" stroke="none" fill="red"/>
<circle cx="278" cy="160" r="4" stroke="none" fill="red"/>
<circle cx="281" cy="151" r="4" stroke="none" fill="red"/>
<circle cx="298" cy="266" r="4" stroke="none" fill="red"/>
<rect x="298" y="134" width="113" height="199" stroke="black" fill="none"/>
<circle cx="312" cy="179" r="4" stroke="none" fill="red"/>
<rect x="298" y="134" width="113" height="45" stroke="black" fill="none"/>
<circle cx="403" cy="177" r="4" stroke="none" fill="red"/>
<circle cx="355" cy="176" r="4" stroke="none" fill="red"/>
<circle cx="323" cy="149" r="4" stroke="none" fill="red"/>
<circle cx="336" cy="152" r="4" stroke="none" fill="red"/>
<circle cx="351" cy="169" r="4" stroke="none" fill="red"/>
<circle cx="337" cy="156" r="4" stroke="none" fill="red"/>
<rect x="298" y="179" width="113" height="153" stroke="black" fill="none"/>
<circle cx="350" cy="324" r="4" stroke="none" fill="red"/>
<rect x="298" y="179" width="51" height="153" stroke="black" fill="none"/>
<circle cx="334" cy="318" r="4" stroke="none" fill="red"/>
<circle cx="313" cy="276" r="4" stroke="none" fill="red"/>
<circle cx="342" cy="306" r="4" stroke="none" fill="red"/>
<circle cx="314" cy="207" r="4" stroke="none" fill="red"/>
<circle cx="309" cy="281" r="4" stroke="none" fill="red"/>
<circle cx="331" cy="191" r="4" stroke="none" fill="red"/>
<circle cx="304" cy="257" r="4" stroke="none" fill="red"/>
<circle cx="332" cy="201" r="4" stroke="none" fill="red"/>
<circle cx="300" cy="285" r="4" stroke="none" fill="red"/>
<circle cx="299" cy="200" r="4" stroke="none" fill="red"/>
<rect x="350" y="179" width="61" height="153" stroke="black" fill="none"/>
<circle cx="379" cy="267" r="4" stroke="none" fill="red"/>
<circle cx="363" cy="291" r="4" stroke="none" fill="red"/>
<circle cx="383" cy="279" r="4" stroke="none" fill="red"/>
<circle cx="361" cy="281" r="4" stroke="none" fill="red"/>
<circle cx="403" cy="248" r="4" stroke="none" fill="red"/>
<circle cx="381" cy="320" r="4" stroke="none" fill="red"/>
<circle cx="386" cy="331" r="4" stroke="none" fill="red"/>
<rect x="271" y="333" width="140" height="166" stroke="black" fill="none"/>
<circle cx="338" cy="479" r="4" stroke="none" fill="red"/>
<rect x="271" y="333" width="66" height="166" stroke="black" fill="none"/>
<circle cx="333" cy="440" r="4" stroke="none" fill="red"/>
<rect x="271" y="333" width="66" height="106" stroke="black" fill="none"/>
<circle cx="281" cy="365" r="4" stroke="none" fill="red"/>
<circle cx="326" cy="360" r="4" stroke="none" fill="red"/>
<circle cx="335" cy="345" r="4" stroke="none" fill="red"/>
<circle cx="304" cy="398" r="4" stroke="none" fill="red"/>
<circle cx="324" cy="416" r="4" stroke="none" fill="red"/>
<circle cx="302" cy="400" r="4" stroke="none" fill="red"/>
<circle cx="305" cy="368" r="4" stroke="none" fill="red"/>
<circle cx="276" cy="422" r="4" stroke="none" fill="red"/>
<rect x="271" y="440" width="66" height="59" stroke="black" fill="none"/>
<circle cx="334" cy="469" r="4" stroke="none" fill="red"/>
<circle cx="328" cy="452" r="4" stroke="none" fill="red"/>
<circle cx="330" cy="478" r="4" stroke="none" fill="red"/>
<circle cx="285" cy="457" r="4" stroke="none" fill="red"/>
<circle cx="318" cy="454" r="4" stroke="none" fill="red"/>
<circle cx="330" cy="441" r="4" stroke="none" fill="red"/>
<circle cx="274" cy="453" r="4" stroke="none" fill="red"/>
<rect x="338" y="333" width="73" height="166" stroke="black" fill="none"/>
<circle cx="390" cy="454" r="4" stroke="none" fill="red"/>
<rect x="338" y="333" width="73" height="121" stroke="black" fill="none"/>
<circle cx="385" cy="436" r="4" stroke="none" fill="red"/>
<circle cx="409" cy="382" r="4" stroke="none" fill="red"/>
<circle cx="398" cy="335" r="4" stroke="none" fill="red"/>
<circle cx="361" cy="382" r="4" stroke="none" fill="red"/>
<circle cx="375" cy="409" r="4" stroke="none" fill="red"/>
<circle cx="392" cy="453" r="4" stroke="none" fill="red"/>
<circle cx="374" cy="405" r="4" stroke="none" fill="red"/>
<rect x="338" y="454" width="73" height="45" stroke="black" fill="none"/>
<circle cx="395" cy="472" r="4" stroke="none" fill="red"/>
<circle cx="379" cy="458" r="4" stroke="none" fill="red"/>
<circle cx="406" cy="499" r="4" stroke="none" fill="red"/>
<circle cx="401" cy="478" r="4" stroke="none" fill="red"/>
<rect x="411" y="134" width="88" height="365" stroke="black" fill="none"/>
<circle cx="483" cy="281" r="4" stroke="none" fill="red"/>
<rect x="411" y="134" width="88" height="147" stroke="black" fill="none"/>
<circle cx="436" cy="235" r="4" stroke="none" fill="red"/>
<rect x="411" y="134" width="24" height="147" stroke="black" fill="none"/>
<circle cx="432" cy="197" r="4" stroke="none" fill="red"/>
<circle cx="430" cy="145" r="4" stroke="none" fill="red"/>
<circle cx="425" cy="218" r="4" stroke="none" fill="red"/>
<circle cx="418" cy="218" r="4" stroke="none" fill="red"/>
<circle cx="422" cy="250" r="4" stroke="none" fill="red"/>
<rect x="436" y="134" width="63" height="147" stroke="black" fill="none"/>
<circle cx="488" cy="247" r="4" stroke="none" fill="red"/>
<circle cx="438" cy="218" r="4" stroke="none" fill="red"/>
<circle cx="494" cy="271" r="4" stroke="none" fill="red"/>
<circle cx="499" cy="164" r="4" stroke="none" fill="red"/>
<circle cx="499" cy="141" r="4" stroke="none" fill="red"/>
<rect x="411" y="281" width="88" height="218" stroke="black" fill="none"/>
<circle cx="468" cy="477" r="4" stroke="none" fill="red"/>
<rect x="411" y="281" width="56" height="218" stroke="black" fill="none"/>
<circle cx="443" cy="362" r="4" stroke="none" fill="red"/>
<rect x="411" y="281" width="56" height="81" stroke="black" fill="none"/>
<circle cx="462" cy="304" r="4" stroke="none" fill="red"/>
<circle cx="453" cy="361" r="4" stroke="none" fill="red"/>
<circle cx="456" cy="335" r="4" stroke="none" fill="red"/>
<circle cx="452" cy="355" r="4" stroke="none" fill="red"/>
<circle cx="432" cy="287" r="4" stroke="none" fill="red"/>
<circle cx="434" cy="281" r="4" stroke="none" fill="red"/>
<circle cx="418" cy="321" r="4" stroke="none" fill="red"/>
<circle cx="433" cy="339" r="4" stroke="none" fill="red"/>
<circle cx="430" cy="321" r="4" stroke="none" fill="red"/>
<rect x="411" y="362" width="56" height="137" stroke="black" fill="none"/>
<circle cx="455" cy="435" r="4" stroke="none" fill="red"/>
<circle cx="449" cy="384" r="4" stroke="none" fill="red"/>
<circle cx="424" cy="449" r="4" stroke="none" fill="red"/>
<circle cx="417" cy="374" r="4" stroke="none" fill="red"/>
<circle cx="451" cy="450" r="4" stroke="none" fill="red"/>
<circle cx="430" cy="408" r="4" stroke="none" fill="red"/>
<circle cx="464" cy="484" r="4" stroke="none" fill="red"/>
<circle cx="451" cy="464" r="4" stroke="none" fill="red"/>
<circle cx="429" cy="420" r="4" stroke="none" fill="red"/>
<rect x="468" y="281" width="31" height="218" stroke="black" fill="none"/>
<circle cx="476" cy="342" r="4" stroke="none" fill="red"/>
<circle cx="472" cy="383" r="4" stroke="none" fill="red"/>
<circle cx="489" cy="401" r="4" stroke="none" fill="red"/>
<circle cx="474" cy="295" r="4" stroke="none" fill="red"/>
<circle cx="485" cy="315" r="4" stroke="none" fill="red"/>
<circle cx="497" cy="446" r="4" stroke="none" fill="red"/>
<circle cx="488" cy="333" r="4" stroke="none" fill="red"/>
<circle cx="496" cy="382" r="4" stroke="none" fill="red"/>
</svg>
