<?xml version="1.0" encoding="UTF-8" standalone="no"?>
<svg
   xmlns:dc="http://purl.org/dc/elements/1.1/"
   xmlns:cc="http://creativecommons.org/ns#"
   xmlns:rdf="http://www.w3.org/1999/02/22-rdf-syntax-ns#"
   xmlns:svg="http://www.w3.org/2000/svg"
   xmlns="http://www.w3.org/2000/svg"
   xmlns:xlink="http://www.w3.org/1999/xlink"
   xmlns:sodipodi="http://sodipodi.sourceforge.net/DTD/sodipodi-0.dtd"
   xmlns:inkscape="http://www.inkscape.org/namespaces/inkscape"
   id="svg2"
   viewBox="0 0 220.14981 322.91159"
   version="1.1"
   inkscape:version="0.48.4 r9939"
   sodipodi:docname="wakatta.svg"
   width="100%"
   height="100%">
  <sodipodi:namedview
     id="namedview93"
     fit-margin-left="0"
     inkscape:zoom="0.93101488"
     borderopacity="1"
     inkscape:current-layer="imagebot_220"
     inkscape:cx="425.91935"
     inkscape:cy="114.52841"
     inkscape:window-maximized="0"
     showgrid="false"
     fit-margin-right="0"
     bordercolor="#666666"
     inkscape:window-x="65"
     guidetolerance="10"
     objecttolerance="10"
     inkscape:window-y="24"
     fit-margin-bottom="0"
     inkscape:window-width="1476"
     inkscape:pageopacity="0"
     inkscape:pageshadow="2"
     pagecolor="#ffffff"
     gridtolerance="10"
     inkscape:window-height="1144"
     fit-margin-top="0" />
  <defs
     id="defs4">
    <linearGradient
       id="imagebot_455"
       x2="5.7017"
       y1="-.24507"
       x1="5.5152"
       y2="1.1214">
      <stop
         id="stop7"
         stop-color="#fefefe"
         offset="0" />
      <stop
         id="stop9"
         stop-color="#d2d3d5"
         offset="1" />
    </linearGradient>
    <linearGradient
       id="imagebot_457"
       x1="190.71"
       xlink:href="#imagebot_455"
       gradientUnits="userSpaceOnUse"
       y1="344.31"
       gradientTransform="scale(.85257 1.1729)"
       x2="119.75"
       y2="447.1" />
    <radialGradient
       id="imagebot_432"
       gradientUnits="userSpaceOnUse"
       cy="156.6"
       cx="295.34"
       r="81.222">
      <stop
         id="stop13"
         stop-color="#fefefe"
         offset="0" />
      <stop
         id="stop15"
         stop-color="#fdd1a1"
         offset="1" />
    </radialGradient>
    <linearGradient
       id="imagebot_453"
       y2="392.99"
       gradientUnits="userSpaceOnUse"
       y1="786.87"
       gradientTransform="scale(1.1168 .89545)"
       x2="260.87"
       x1="272.38">
      <stop
         id="stop27"
         stop-opacity=".99609"
         stop-color="#00f"
         offset=".00391" />
      <stop
         id="stop29"
         stop-color="#fefefe"
         offset="1" />
    </linearGradient>
    <linearGradient
       id="linearGradient3088"
       y2="403.79"
       xlink:href="#imagebot_455"
       gradientUnits="userSpaceOnUse"
       x2="1235.7"
       gradientTransform="scale(.74698 1.3387)"
       y1="259.44"
       x1="1216" />
    <linearGradient
       y2="1284.3"
       y1="1309.3"
       gradientTransform="scale(1.3864,0.72129)"
       x2="1222.2"
       gradientUnits="userSpaceOnUse"
       x1="1197.1"
       id="imagebot_390">
      <stop
         offset=".01172"
         stop-color="#ff56aa"
         stop-opacity=".99609"
         id="stop44" />
      <stop
         offset=".99609"
         stop-color="#f00"
         stop-opacity=".99609"
         id="stop46" />
    </linearGradient>
    <linearGradient
       y2="483.35"
       y1="716.57"
       gradientTransform="scale(1.0267,0.97399)"
       x2="760.27"
       gradientUnits="userSpaceOnUse"
       x1="514.46"
       id="imagebot_398">
      <stop
         offset=".01953"
         stop-color="#ffc1e6"
         stop-opacity=".99219"
         id="stop31" />
      <stop
         offset="1"
         stop-color="#fff"
         stop-opacity=".99609"
         id="stop33" />
      <stop
         offset="1"
         stop-color="#ff0"
         stop-opacity=".99609"
         id="stop35" />
      <stop
         offset="1"
         stop-color="#ff7f00"
         stop-opacity=".99609"
         id="stop37" />
      <stop
         offset="1"
         stop-color="#ff0"
         stop-opacity=".99609"
         id="stop39" />
      <stop
         offset="1"
         stop-color="#ff7f00"
         stop-opacity=".99609"
         id="stop41" />
    </linearGradient>
    <linearGradient
       y2="1016.9"
       y1="1361.5"
       gradientTransform="scale(1.1138,0.89781)"
       x2="621.68"
       gradientUnits="userSpaceOnUse"
       x1="313.14"
       id="imagebot_404">
      <stop
         offset="0"
         stop-color="#f0f"
         stop-opacity=".99609"
         id="stop26" />
      <stop
         offset="1"
         stop-color="#faf"
         stop-opacity=".99609"
         id="stop28" />
    </linearGradient>
    <linearGradient
       y2="1284"
       y1="1329.8"
       gradientTransform="scale(1.4144,0.70699)"
       x2="1201.9"
       gradientUnits="userSpaceOnUse"
       x1="1156.2"
       id="imagebot_385">
      <stop
         offset="0"
         stop-color="#ffaaba"
         stop-opacity=".99609"
         id="stop21" />
      <stop
         offset="1"
         stop-color="#fff"
         stop-opacity=".99609"
         id="stop23" />
    </linearGradient>
    <radialGradient
       r="55.205"
       gradientTransform="scale(1.0698,0.93476)"
       cx="425.89"
       cy="170.64"
       gradientUnits="userSpaceOnUse"
       id="imagebot_368">
      <stop
         offset="0"
         stop-color="#fefefe"
         id="stop16" />
      <stop
         offset="1"
         stop-color="#fdd1a1"
         id="stop18" />
    </radialGradient>
  </defs>
  <g
     id="imagebot_220"
     transform="translate(-237.28 -239.75)">
    <title
       id="title32" />
    <metadata
       id="metadata34">image/svg+xmlOpen Clip Art LibraryTorii2011-04-18T08:54:48http://openclipart.org/detail/132907/torii-by-gnokiignokiiItsukushimaarchitecturebuildingclip artclipartculturejapanjapaneselandmarkrelegionshintotorii
   <rdf:RDF>
  <cc:Work
     rdf:about="">
    <dc:format>image/svg+xml</dc:format>
    <dc:type
       rdf:resource="http://purl.org/dc/dcmitype/StillImage" />
  </cc:Work>
</rdf:RDF>
</metadata>
    <metadata
       id="metadata36">image/svg+xmlOpen Clip Art LibrarySnow-capped mountain and the sun2009-06-07T05:09:50http://openclipart.org/detail/26487/snow-capped-mountain-and-the-sun-by-missiridiamissiridiaclip artclipartcloudcloudimagelandscapelandscapemediamountainmountainpublic domainscenerysceneryskyskysvg</metadata>
    <metadata
       id="metadata38">image/svg+xmlOpen Clip Art LibraryMaple autumn2010-08-25T19:01:18Maple tree in autumn colors.http://openclipart.org/detail/82261/maple-autumn-by-shokuninshokuninautumnbrownclip artclipartfallfall2010.treeleavesnatureorange</metadata>
    <metadata
       id="metadata49">image/svg+xmlOpen Clip Art Libraryamerican football2006-12-23T20:53:04an icon of an american football from a U.S. patent drawinghttp://openclipart.org/detail/2236/american-football-by-johnny_automaticjohnny_automaticactivityactivityballballclip artclipartexternalsourcefootballfootballgamegameiconiconimagemediapngpublic domainrugbyrugbysportsportsvgusptouspto</metadata>
    <g
       id="imagebot_408"
       clip-rule="evenodd"
       transform="matrix(-2.4084,0,0,2.4084,2838.3,-2085.8)">
      <g
         id="imagebot_466"
         style="stroke:#373435;stroke-width:6.953;fill:none"
         transform="translate(-.32768)">
        <polyline
           id="imagebot_470"
           points="697.72 441.16 650.84 470.73 676.63 507.73 676.23 507.11"
           transform="matrix(-.12951 0 0 .12951 1080 965.38)" />
        <g
           id="imagebot_467">
          <polyline
             id="imagebot_469"
             points="520.6 437.04 650.84 470.73 699.97 475.83"
             transform="matrix(-.12951 0 0 .12951 1080 965.38)" />
          <polyline
             id="imagebot_468"
             points="642.73 531.51 650.84 470.73 677.4 426.15"
             transform="matrix(-.12951 0 0 .12951 1080 965.38)" />
        </g>
      </g>
      <g
         id="imagebot_461"
         style="stroke:#373435;stroke-width:6.953;fill:none"
         transform="translate(-.32768)">
        <polyline
           id="imagebot_465"
           points="1.1153 528.95 66.255 551.02 108.45 601.65"
           transform="matrix(-.12951 0 0 .12951 1080 965.38)" />
        <g
           id="imagebot_462">
          <polyline
             id="imagebot_464"
             points="126.32 474.67 66.255 551.02 54.378 591.97"
             transform="matrix(-.12951 0 0 .12951 1080 965.38)" />
          <polyline
             id="imagebot_463"
             points="78.808 603.62 66.255 551.02 17.666 565.15"
             transform="matrix(-.12951 0 0 .12951 1080 965.38)" />
        </g>
      </g>
      <ellipse
         id="imagebot_460"
         sodipodi:rx="236.95"
         sodipodi:ry="54.452999"
         style="fill-rule:evenodd;fill:#848688"
         d="m 663.8,982.5 c 0,30.0736 -106.08612,54.453 -236.94999,54.453 -130.86387,0 -236.95,-24.3794 -236.95,-54.453 0,-30.07356 106.08613,-54.453 236.95,-54.453 130.86387,0 236.94999,24.37944 236.94999,54.453 z"
         cy="982.5"
         rx="236.95"
         ry="54.453"
         transform="matrix(-.12951 0 0 .12951 1080 965.38)"
         sodipodi:cy="982.5"
         cx="426.85"
         sodipodi:cx="426.85001" />
      <polyline
         id="imagebot_459"
         style="stroke:#373435;stroke-width:6.953;fill:none"
         points="361.86 698.11 342.07 977 426.85 982.5"
         transform="matrix(-.12951 0 0 .12951 1079.6 965.38)" />
      <polyline
         id="imagebot_458"
         style="stroke:#373435;stroke-width:6.953;fill:none"
         points="260.11 699.21 226.81 981.34 150.4 993.97"
         transform="matrix(-.12951 0 0 .12951 1079.6 965.38)" />
      <g
         id="imagebot_435"
         transform="translate(-.32768)">
        <path
           id="imagebot_456"
           d="m122.73 409.39 50.7 92.76c-16.413 13.454-30.7 16.497-42.858 9.128-0.559-15.853 4.224-27.382 14.35-34.586-31.932 13.327-40.394 5.233-25.388-24.284-24.478 2.204-27.667-8.589-9.566-32.378 4.537-3.288 8.791-6.835 12.762-10.64z"
           style="fill-rule:evenodd;stroke:#373435;stroke-width:6.953;fill:url(#imagebot_457)"
           transform="matrix(-.12951 0 0 .12951 1080 965.38)"
           inkscape:connector-curvature="0" />
        <path
           id="imagebot_454"
           d="m477.12 497.09c-0.946-4.754-0.325-1.61-0.325-1.999l37.1-109.64c45.937 16.596 46.202 30.331 0.796 41.205 47.296 19.535 42.88 29.346-13.246 29.435 49.489 28.63 46.668 38.074-8.462 28.331 29.243 8.058 38.318 17.501 27.226 28.331-12.063 13.297-26.427 8.077-43.091-15.662z"
           style="fill-rule:evenodd;stroke:#373435;stroke-width:6.953;fill:url(#linearGradient3088)"
           transform="matrix(-.12951 0 0 .12951 1080 965.38)"
           inkscape:connector-curvature="0" />
        <polygon
           id="imagebot_452"
           style="fill-rule:evenodd;stroke:#373435;stroke-width:6.953;fill:url(#imagebot_453)"
           points="514.21 384.92 477.12 497.09 440.85 502.64 501.41 696.61 81.297 701.13 181.42 516.77 121.02 406.26 269.33 356.55 352.14 355.38"
           transform="matrix(-.12951 0 0 .12951 1080 965.38)" />
        <line
           id="imagebot_451"
           style="stroke:#373435;stroke-width:3.4765;fill:none"
           x1="181.42"
           transform="matrix(-.12951 0 0 .12951 1080 965.38)"
           y1="516.77"
           x2="269.02"
           y2="357.09" />
        <line
           id="imagebot_450"
           style="stroke:#373435;stroke-width:3.4765;fill:none"
           x1="403.88"
           transform="matrix(-.12951 0 0 .12951 1080 965.38)"
           y1="364.81"
           x2="440.85"
           y2="502.64" />
        <ellipse
           id="imagebot_445"
           sodipodi:rx="22.076"
           sodipodi:ry="21.34"
           style="fill-rule:evenodd;fill:#ffff00"
           d="m 282.52601,503.92001 c 0,11.78576 -9.88376,21.34 -22.076,21.34 -12.19224,0 -22.076,-9.55424 -22.076,-21.34 0,-11.78575 9.88376,-21.34 22.076,-21.34 12.19224,0 22.076,9.55425 22.076,21.34 z"
           cy="503.92"
           rx="22.076"
           ry="21.34"
           transform="matrix(-.12951 0 0 .12951 1080 965.38)"
           sodipodi:cy="503.92001"
           cx="260.45"
           sodipodi:cx="260.45001" />
        <ellipse
           id="imagebot_444"
           sodipodi:rx="22.076"
           sodipodi:ry="23.547001"
           style="fill-rule:evenodd;fill:#ffff00"
           d="m 378.18599,431.07001 c 0,13.00465 -9.88377,23.547 -22.076,23.547 -12.19224,0 -22.076,-10.54235 -22.076,-23.547 0,-13.00465 9.88376,-23.547 22.076,-23.547 12.19223,0 22.076,10.54235 22.076,23.547 z"
           cy="431.07"
           rx="22.076"
           ry="23.547"
           transform="matrix(-.12951 0 0 .12951 1080 965.38)"
           sodipodi:cy="431.07001"
           cx="356.11"
           sodipodi:cx="356.10999" />
        <ellipse
           id="imagebot_443"
           sodipodi:rx="22.444"
           sodipodi:ry="23.179001"
           style="fill-rule:evenodd;fill:#ffff00"
           d="m 482.67401,413.78 c 0,12.80141 -10.04852,23.179 -22.444,23.179 -12.39548,0 -22.444,-10.37759 -22.444,-23.179 0,-12.80141 10.04852,-23.179 22.444,-23.179 12.39548,0 22.444,10.37759 22.444,23.179 z"
           cy="413.78"
           rx="22.444"
           ry="23.179"
           transform="matrix(-.12951 0 0 .12951 1080 965.49)"
           sodipodi:cy="413.78"
           cx="460.23"
           sodipodi:cx="460.23001" />
        <ellipse
           id="imagebot_442"
           sodipodi:rx="18.764"
           sodipodi:ry="19.868"
           style="fill-rule:evenodd;fill:#ffff00"
           d="m 197.16399,425.17999 c 0,10.9728 -8.40093,19.868 -18.764,19.868 -10.36307,0 -18.764,-8.8952 -18.764,-19.868 0,-10.97279 8.40093,-19.868 18.764,-19.868 10.36307,0 18.764,8.89521 18.764,19.868 z"
           cy="425.18"
           rx="18.764"
           ry="19.868"
           transform="matrix(-.12951 0 0 .12951 1080 965.38)"
           sodipodi:cy="425.17999"
           cx="178.4"
           sodipodi:cx="178.39999" />
        <ellipse
           id="imagebot_441"
           sodipodi:rx="22.076"
           sodipodi:ry="22.444"
           style="fill-rule:evenodd;fill:#ffff00"
           d="m 432.636,528.57001 c 0,12.39548 -9.88376,22.444 -22.076,22.444 -12.19224,0 -22.076,-10.04852 -22.076,-22.444 0,-12.39548 9.88376,-22.444 22.076,-22.444 12.19224,0 22.076,10.04852 22.076,22.444 z"
           cy="528.57"
           rx="22.076"
           ry="22.444"
           transform="matrix(-.12951 0 0 .12951 1080 965.38)"
           sodipodi:cy="528.57001"
           cx="410.56"
           sodipodi:cx="410.56" />
        <ellipse
           id="imagebot_440"
           sodipodi:rx="24.650999"
           sodipodi:ry="22.076"
           style="fill-rule:evenodd;fill:#ffff00"
           d="m 321.52099,584.87 c 0,12.19223 -11.03662,22.076 -24.65099,22.076 -13.61438,0 -24.651,-9.88377 -24.651,-22.076 0,-12.19224 11.03662,-22.07601 24.651,-22.07601 13.61437,0 24.65099,9.88377 24.65099,22.07601 z"
           cy="584.87"
           rx="24.651"
           ry="22.076"
           transform="matrix(-.12951 0 0 .12951 1080 965.38)"
           sodipodi:cy="584.87"
           cx="296.87"
           sodipodi:cx="296.87" />
        <ellipse
           id="imagebot_439"
           sodipodi:rx="19.5"
           sodipodi:ry="20.604"
           style="fill-rule:evenodd;fill:#ffff00"
           d="m 462.07999,605.46997 c 0,11.37928 -8.73045,20.604 -19.5,20.604 -10.76956,0 -19.5,-9.22472 -19.5,-20.604 0,-11.37927 8.73044,-20.604 19.5,-20.604 10.76955,0 19.5,9.22473 19.5,20.604 z"
           cy="605.47"
           rx="19.5"
           ry="20.604"
           transform="matrix(-.12951 0 0 .12951 1080 965.38)"
           sodipodi:cy="605.46997"
           cx="442.58"
           sodipodi:cx="442.57999" />
        <ellipse
           id="imagebot_438"
           sodipodi:rx="24.283001"
           sodipodi:ry="20.236"
           style="fill-rule:evenodd;fill:#ffff00"
           d="m 205.263,624.96997 c 0,11.17603 -10.87187,20.236 -24.283,20.236 -13.41114,0 -24.28301,-9.05997 -24.28301,-20.236 0,-11.17603 10.87187,-20.236 24.28301,-20.236 13.41113,0 24.283,9.05997 24.283,20.236 z"
           cy="624.97"
           rx="24.283"
           ry="20.236"
           transform="matrix(-.12951 0 0 .12951 1080 965.38)"
           sodipodi:cy="624.96997"
           cx="180.98"
           sodipodi:cx="180.98" />
        <path
           id="imagebot_437"
           d="m242.52 412.85c3.381 2.981 7.783 4.784 12.595 4.784 10.666 0 19.342-8.775 19.312-19.771-0.024-8.587-5.353-15.981-12.713-18.682-2.393 4.272-8.29 16.966-19.194 33.669z"
           style="fill-rule:evenodd;fill:#ffff00"
           transform="matrix(-.12951 0 0 .12951 1080 965.38)"
           inkscape:connector-curvature="0" />
        <path
           id="imagebot_436"
           d="m387.12 670.18c13.615 0 24.651 10.708 24.651 23.916-18.397-0.217-31.825-0.217-49.302 0 0-13.208 11.036-23.916 24.651-23.916z"
           style="fill-rule:evenodd;fill:#ffff00"
           transform="matrix(-.12951 0 0 .12951 1080 965.38)"
           inkscape:connector-curvature="0" />
      </g>
      <g
         id="imagebot_409">
        <g
           id="imagebot_427"
           style="stroke:#373435">
          <ellipse
             id="imagebot_434"
             sodipodi:rx="21.846001"
             sodipodi:ry="18.014"
             style="fill-rule:evenodd;stroke-width:6.953;fill:#fdd1a1"
             d="m 178.676,204.78999 c 0,9.94886 -9.78079,18.014 -21.846,18.014 -12.06521,0 -21.846,-8.06514 -21.846,-18.014 0,-9.94885 9.78079,-18.014 21.846,-18.014 12.06521,0 21.846,8.06515 21.846,18.014 z"
             cy="204.79"
             rx="21.846"
             ry="18.014"
             transform="matrix(-.12951 0 0 .12951 1080 965.38)"
             sodipodi:cy="204.78999"
             cx="156.83"
             sodipodi:cx="156.83" />
          <ellipse
             id="imagebot_433"
             sodipodi:rx="21.846001"
             sodipodi:ry="18.014"
             style="fill-rule:evenodd;stroke-width:6.953;fill:#fdd1a1"
             d="m 571.12603,203.67999 c 0,9.94886 -9.78079,18.014 -21.846,18.014 -12.06521,0 -21.846,-8.06514 -21.846,-18.014 0,-9.94885 9.78079,-18.014 21.846,-18.014 12.06521,0 21.846,8.06515 21.846,18.014 z"
             cy="203.68"
             rx="21.846"
             ry="18.014"
             transform="matrix(-.12951 0 0 .12951 1080 965.38)"
             sodipodi:cy="203.67999"
             cx="549.28"
             sodipodi:cx="549.28003" />
          <path
             id="imagebot_431"
             d="m162.67 257.19c-64.301-261.45 364.45-315.62 380.2-54.43-35.86 180.84-294.78 236.04-380.2 54.43z"
             style="fill-rule:evenodd;stroke-width:6.953;fill:url(#imagebot_432)"
             transform="matrix(-.12951 0 0 .12951 1080 965.38)"
             inkscape:connector-curvature="0" />
          <ellipse
             id="imagebot_430"
             sodipodi:rx="9.9646997"
             sodipodi:ry="12.264"
             style="fill-rule:evenodd;stroke-width:1.3906;fill:#373435"
             d="m 371.16471,119.98 c 0,6.77322 -4.46135,12.264 -9.9647,12.264 -5.50335,0 -9.9647,-5.49078 -9.9647,-12.264 0,-6.77322 4.46135,-12.264 9.9647,-12.264 5.50335,0 9.9647,5.49078 9.9647,12.264 z"
             cy="119.98"
             rx="9.9647"
             ry="12.264"
             transform="matrix(-.12951 0 0 .12951 1080 965.38)"
             sodipodi:cy="119.98"
             cx="361.2"
             sodipodi:cx="361.20001" />
          <ellipse
             id="imagebot_429"
             sodipodi:rx="9.9646997"
             sodipodi:ry="12.264"
             style="fill-rule:evenodd;stroke-width:1.3906;fill:#373435"
             d="m 320.57469,125.34 c 0,6.77322 -4.46135,12.264 -9.9647,12.264 -5.50336,0 -9.9647,-5.49078 -9.9647,-12.264 0,-6.77322 4.46134,-12.264 9.9647,-12.264 5.50335,0 9.9647,5.49078 9.9647,12.264 z"
             cy="125.34"
             rx="9.9647"
             ry="12.264"
             transform="matrix(-.12951 0 0 .12951 1080 965.38)"
             sodipodi:cy="125.34"
             cx="310.61"
             sodipodi:cx="310.60999" />
          <path
             id="imagebot_428"
             d="m457.02 162.9c-18.09 183.96-213.56 182.17-234.56 6.13"
             style="stroke-width:10.429;fill:none"
             transform="matrix(-.12951 0 0 .12951 1080 965.38)"
             inkscape:connector-curvature="0" />
        </g>
        <g
           id="imagebot_424"
           style="stroke:#373435;stroke-width:3.4765;fill-rule:evenodd">
          <polygon
             id="imagebot_426"
             style="fill:#ffff00"
             points="233.59 82.64 299.82 85.95 294.68 39.513 171.04 105.08 190.91 44.006"
             transform="matrix(-.12951 0 0 .12951 1080 965.38)" />
          <ellipse
             id="imagebot_425"
             sodipodi:rx="21.34"
             sodipodi:ry="20.236"
             style="fill:#0000ff"
             d="m 254.93,82.639999 c 0,11.176035 -9.55425,20.236001 -21.34,20.236001 -11.78576,0 -21.34,-9.059966 -21.34,-20.236001 0,-11.176034 9.55424,-20.236 21.34,-20.236 11.78575,0 21.34,9.059966 21.34,20.236 z"
             cy="82.64"
             rx="21.34"
             ry="20.236"
             transform="matrix(-.12951 0 0 .12951 1080 965.38)"
             sodipodi:cy="82.639999"
             cx="233.59"
             sodipodi:cx="233.59" />
        </g>
        <g
           id="imagebot_421"
           style="stroke:#373435;stroke-width:3.4765;fill-rule:evenodd">
          <polygon
             id="imagebot_423"
             style="fill:#ffff00"
             points="552.96 87.422 552.22 30.761 482.31 56.516 430.8 59.46 466.12 3.4258 494.82 55.781"
             transform="matrix(-.12951 0 0 .12951 1080 965.38)" />
          <ellipse
             id="imagebot_422"
             sodipodi:rx="20.972"
             sodipodi:ry="20.236"
             style="fill:#0000ff"
             d="m 515.79201,55.780998 c 0,11.176034 -9.38949,20.236 -20.972,20.236 -11.58252,0 -20.972,-9.059966 -20.972,-20.236 0,-11.176034 9.38948,-20.236 20.972,-20.236 11.58251,0 20.972,9.059966 20.972,20.236 z"
             cy="55.781"
             rx="20.972"
             ry="20.236"
             transform="matrix(-.12951 0 0 .12951 1080 965.38)"
             sodipodi:cy="55.780998"
             cx="494.82"
             sodipodi:cx="494.82001" />
        </g>
        <g
           id="imagebot_417"
           style="stroke:#d7cc75;stroke-width:6.953;fill:none">
          <path
             id="imagebot_420"
             d="m89.734 225c-9.9811 0-22.722-11.246-4.7204-26.86 29.242-25.361 36.958 36.279 14.991 13.131-9.114-9.605-0.1759-16.729 2.607-26.376 17.165-5.942 15.713-23.12 44.31-9.629 4.313 18.444-24.829 4.14-17.387-5.792-0.029-0.112 11.215-33.391 32.682-16.893 1.458 1.119 10.115 4.785 11.406 7.295"
             transform="matrix(-.12951 0 0 .12951 1080 965.38)"
             inkscape:connector-curvature="0" />
          <path
             id="imagebot_419"
             d="m34.947 162.66c3.0857-8.283 24.347-44.043 32.651-18.765 0.8684 2.644-1.3475 7.827-3.8262 8.831-8.1205-6.045 3.5995-32.552 31.148-35.291 13.157-1.307 26.177 27.564 5.886 27.564 0-37.062 43.645-34.411 45.593-10.575 2.195 26.861-41.294-3.576-2.67-20.605 20.938-9.231 29.879 7.686 29.192 27.869-0.065 1.904 0 9.677 0 12.142"
             transform="matrix(-.12951 0 0 .12951 1080 965.38)"
             inkscape:connector-curvature="0" />
          <path
             id="imagebot_418"
             d="m57.72 67.186c-3.903-3.781-7.805-18.008-2.144-22.012-0.164-0.725-0.196-0.391 0.367-1.089 1.021-4.216 23.997-21.791 40.378-0.814 15.809 20.246-30.082 52.383-19.774 24.378 5.116-13.899 42.363-21.636 46.393-1.935-8.004 9.7871 3.8 5.6827-12.267 18.365-18.016 14.221-10.602-12.283-9.167-13.782 13.642-22 50.703-21.287 48.903 7.4641-1.737 27.747-41.308-6.7424-5.687-13.856 14.703-2.9356 24.352-1.7271 32.175 19.941 0.134 0.9908 0.074 0.6633 0.483 1.7619"
             transform="matrix(-.12951 0 0 .12951 1080 965.38)"
             inkscape:connector-curvature="0" />
        </g>
        <g
           id="imagebot_413"
           style="stroke:#d7cc75;stroke-width:6.953;fill:none">
          <path
             id="imagebot_416"
             d="m700.13 57.988-0.946 0.2733c-5.032 1.4525-8.072 3.48-10.092 4.1419-3.195 33.981 2.941 10.293 1.408 6.1604-14.531-39.191-56.104 19.585-35.899 12.73 7.045-2.3898 1.543-22.003-2.733-21.034-5.521-7.7867-28.951 6.5678-31.454 11.868-4.064 0.6153-6.94 15.562-6.349 19.311 21.178 3.3416 20.41-43.125-20.173-28.363-13.889 5.0527-25.712 35.745-2.975 28.457 3.5-10.916 9.361-47.495-12.72-36.152l-0.777 0.3998c-4.124 3.3361-35.957 6.0061-37.709 12.509"
             transform="matrix(-.12951 0 0 .12951 1080 965.38)"
             inkscape:connector-curvature="0" />
          <path
             id="imagebot_415"
             d="m579.82 149.97c0.479-0.695 4.421-39.901-31.305-25.576-1.09 0.437-0.367 0.189-1.441 0.189-0.002 0.004-27.754 24.033 1.567 19.133 2.083-0.349 3.913-3.097 3.521-5.183 17.409-14.503-23.925-40.771-35.784-20.205-7.97 13.824 45.314 3.131 6.686-26.312-13.648-10.402-18.474 1.2933-24.189 1.2933"
             transform="matrix(-.12951 0 0 .12951 1080 965.38)"
             inkscape:connector-curvature="0" />
          <path
             id="imagebot_414"
             d="m593.06 234.6c16.549-18.689 6.598-30.07 7.422-34.648-30.473-21.614-77.386 37.491-44.552 22.622 31.99-14.486 5.568-64.06-13.403-42.239-8.945 10.289 6.253 10.497 8.957 7.538 14.158-15.491 23.641-30.744-6.834-37.192-6.211-1.315-22.471 4.525-23.074 8.415 15.175 12.209 50.313-19.263 20.257-40.814-18.424-13.212-29.538 2.627-42.228 2.627"
             transform="matrix(-.12951 0 0 .12951 1080 965.38)"
             inkscape:connector-curvature="0" />
        </g>
        <g
           id="imagebot_410"
           style="stroke:#d7cc75;stroke-width:6.953;fill:none">
          <path
             id="imagebot_412"
             d="m447.36 91.838c0.617-18.5-53.043-25.351-55.19 1.8398 2.375 2.0504 29.709-4.557 17.787-25.661-16.184-28.649-62.024 18.915-28.709 11.248 16.944-3.8993 52.86-36.464 0.326-52.362-2.118-0.6404-4.298-1.9302-6.329-2.0282"
             transform="matrix(-.12951 0 0 .12951 1080 965.38)"
             inkscape:connector-curvature="0" />
          <path
             id="imagebot_411"
             d="m352.8 80.432c-7.535 3.1212-15.082 0.2211-23.837 1.6875-8.553 1.4323-19.968 22.349 6.029 3.432 17.634-12.831 4.473-30.052-22.937-28.636-6.225 0.3219-13.571 10.271 1.65 10.271 7.389 0 45.209-21.463 3.006-32.074-10.968-2.7576-27.099-1.9183-38.233-0.3045"
             transform="matrix(-.12951 0 0 .12951 1080 965.38)"
             inkscape:connector-curvature="0" />
        </g>
      </g>
    </g>
    <metadata
       id="metadata107">image/svg+xmlOpen Clip Art LibraryAfrican Hut2012-07-14T08:12:06http://openclipart.org/detail/171170/african-hut-by-gnokii-171170gnokiiafricaafricanafrikacabinclip artclipartcottagehutkraallodgescene</metadata>
    <g
       transform="translate(43.423438,149.90287)"
       id="imagebot_220-6">
      <title
         id="title49" />
      <metadata
         id="metadata51">image/svg+xmlOpen Clip Art LibraryTorii2011-04-18T08:54:48http://openclipart.org/detail/132907/torii-by-gnokiignokiiItsukushimaarchitecturebuildingclip artclipartculturejapanjapaneselandmarkrelegionshintotorii
   <rdf:RDF>
  <cc:Work
     rdf:about="">
    <dc:format>image/svg+xml</dc:format>
    <dc:type
       rdf:resource="http://purl.org/dc/dcmitype/StillImage" />
  </cc:Work>
</rdf:RDF>
</metadata>
      <metadata
         id="metadata53">image/svg+xmlOpen Clip Art LibrarySnow-capped mountain and the sun2009-06-07T05:09:50http://openclipart.org/detail/26487/snow-capped-mountain-and-the-sun-by-missiridiamissiridiaclip artclipartcloudcloudimagelandscapelandscapemediamountainmountainpublic domainscenerysceneryskyskysvg</metadata>
      <metadata
         id="metadata55">image/svg+xmlOpen Clip Art LibraryMaple autumn2010-08-25T19:01:18Maple tree in autumn colors.http://openclipart.org/detail/82261/maple-autumn-by-shokuninshokuninautumnbrownclip artclipartfallfall2010.treeleavesnatureorange</metadata>
      <metadata
         id="metadata66">image/svg+xmlOpen Clip Art Libraryamerican football2006-12-23T20:53:04an icon of an american football from a U.S. patent drawinghttp://openclipart.org/detail/2236/american-football-by-johnny_automaticjohnny_automaticactivityactivityballballclip artclipartexternalsourcefootballfootballgamegameiconiconimagemediapngpublic domainrugbyrugbysportsportsvgusptouspto</metadata>
      <g
         transform="matrix(-2.0597,0,0,2.0597,3048.4,-1853.2)"
         id="imagebot_354">
        <g
           transform="matrix(0.88552,0,0,0.88552,76.928,108.22)"
           clip-rule="evenodd"
           id="imagebot_391">
          <ellipse
             sodipodi:cx="337.5"
             cx="337.5"
             cy="1460.8"
             transform="matrix(0.10147,0,0,0.10147,1458.4,958.71)"
             ry="150.8"
             rx="337.5"
             sodipodi:ry="150.8"
             d="m 675,1460.8 c 0,83.2846 -151.1039,150.8001 -337.5,150.8001 C 151.1039,1611.6001 0,1544.0846 0,1460.8 0,1377.5155 151.1039,1310 337.5,1310 c 186.3961,0 337.5,67.5155 337.5,150.8 z"
             style="fill:#848688;fill-rule:evenodd"
             sodipodi:cy="1460.8"
             sodipodi:rx="337.5"
             id="imagebot_407" />
          <polyline
             transform="matrix(0.10147,0,0,0.10147,1458.4,958.71)"
             points="727.05 1527.2 581.04 1503.3 576.26 1208.9"
             style="fill:none;stroke:#373435;stroke-width:11.30799961"
             id="imagebot_406" />
          <polyline
             transform="matrix(0.10147,0,0,0.10147,1458.4,958.71)"
             points="399.13 1204.1 384.77 1491.3 255.52 1534.4"
             style="fill:none;stroke:#373435;stroke-width:11.30799961"
             id="imagebot_405" />
          <polygon
             transform="matrix(0.10147,0,0,0.10147,1458.8,959.04)"
             points="300.99,1241.2 478.12,1243.6 506.84,1174.2 533.17,1235.2 740.22,1201.7 689.95,946.77 646.87,891.72 329.72,932.41 "
             style="fill:url(#imagebot_404);fill-rule:evenodd;stroke:#373435;stroke-width:11.30799961"
             id="imagebot_403" />
          <path
             d="m 306.98,593.71 c -7.674,6.064 -1.8,2.653 -10.771,5.984 l -122.07,77.792 131.65,124.47 11.969,39.495"
             transform="matrix(0.10147,0,0,0.10147,1458.8,959.04)"
             style="fill:none;stroke:#373435;stroke-width:11.30799961"
             inkscape:connector-curvature="0"
             id="imagebot_402" />
          <polyline
             transform="matrix(0.10147,0,0,0.10147,1458.8,959.04)"
             points="704.32 824.7 873.06 702.62 747.4 608.08"
             style="fill:none;stroke:#373435;stroke-width:11.30799961"
             id="imagebot_401" />
          <path
             d="m 416.46,921.28 c 21.461,98.79 -12.239,153.96 -101.1,165.51"
             transform="matrix(0.10147,0,0,0.10147,1458.8,959.04)"
             style="fill:none;stroke:#373435;stroke-width:11.30799961"
             inkscape:connector-curvature="0"
             id="imagebot_400" />
          <path
             d="m 610.22,896.42 c -4.189,133.45 27.177,190.92 94.097,172.42"
             transform="matrix(0.10147,0,0,0.10147,1458.8,959.04)"
             style="fill:none;stroke:#373435;stroke-width:11.30799961"
             inkscape:connector-curvature="0"
             id="imagebot_399" />
          <polygon
             transform="matrix(0.10147,0,0,0.10147,1458.8,959.04)"
             points="376.39,669.11 273.47,951.56 735.43,908.47 644.48,682.28 747.4,697.84 774.92,542.25 536.76,487.2 450.59,476.43 273.47,556.61 306.98,681.08 "
             style="fill:url(#imagebot_398);fill-rule:evenodd;stroke:#373435;stroke-width:11.30799961"
             id="imagebot_397" />
          <polygon
             transform="matrix(0.10147,0,0,0.10147,1458.8,959.04)"
             points="335.45,528.56 376.39,669.11 644.48,682.28 704.82,526.05 665.14,516.88 630.15,631.33 397.09,628.01 395.53,624.84 362.03,516.52 "
             style="fill:#ff7fc5;fill-rule:evenodd"
             id="imagebot_396" />
          <polyline
             transform="matrix(0.10147,0,0,0.10147,1458.8,959.04)"
             points="644.48 682.28 593.31 500.27 593.31 500.27"
             style="fill:none;stroke:#373435;stroke-width:5.65420008"
             id="imagebot_395" />
          <polyline
             transform="matrix(0.10147,0,0,0.10147,1458.8,959.04)"
             points="795.27 846.24 715.09 836.66 759.37 895.31"
             style="fill:none;stroke:#373435;stroke-width:11.30799961"
             id="imagebot_394" />
          <path
             d="m 257.91,874.96 c 1.903,-3.633 2.466,-5.202 4.787,-8.377 l 43.084,-64.628 -73.004,51.463 1.197,-2.394"
             transform="matrix(0.10147,0,0,0.10147,1458.8,959.04)"
             style="fill:none;stroke:#373435;stroke-width:11.30799961"
             inkscape:connector-curvature="0"
             id="imagebot_393" />
          <line
             x1="376.39001"
             y1="669.10999"
             x2="463.76001"
             transform="matrix(0.10147,0,0,0.10147,1458.8,959.04)"
             y2="495.57999"
             style="fill:none;stroke:#373435;stroke-width:5.65420008"
             id="imagebot_392" />
        </g>
        <g
           id="imagebot_355">
          <g
             transform="translate(-0.16777,-0.16777)"
             id="imagebot_383">
            <ellipse
               sodipodi:cx="1677.1"
               cx="1677.1"
               cy="935.38"
               transform="matrix(0.99496,0.63703,-0.79931,1.2484,511.7,-1278.3)"
               ry="8.5232"
               rx="16.844"
               sodipodi:ry="8.5232"
               d="m 1693.944,935.38 c 0,4.70724 -7.5413,8.5232 -16.844,8.5232 -9.3027,0 -16.844,-3.81596 -16.844,-8.5232 0,-4.70723 7.5413,-8.5232 16.844,-8.5232 9.3027,0 16.844,3.81597 16.844,8.5232 z"
               style="fill:url(#imagebot_390);stroke:#000000"
               sodipodi:cy="935.38"
               sodipodi:rx="16.844"
               id="imagebot_389" />
            <g
               transform="matrix(0.28558,-1.6173,1.6173,0.28558,-563,3010.6)"
               clip-rule="evenodd"
               style="fill:#ff00ff;fill-rule:evenodd;stroke:#373435;stroke-width:3.47650003"
               id="imagebot_386">
              <polygon
                 transform="matrix(-0.058548,0.12594,-0.12594,-0.058548,1477.5,929.6)"
                 points="552.96,87.422 552.22,30.761 482.31,56.516 430.8,59.46 466.12,3.4258 494.82,55.781 "
                 id="imagebot_388" />
              <ellipse
                 sodipodi:cx="494.82001"
                 cx="494.82001"
                 cy="55.780998"
                 transform="matrix(-0.058548,0.12594,-0.12594,-0.058548,1477.9,929.79)"
                 ry="20.236"
                 rx="20.972"
                 sodipodi:ry="20.236"
                 d="m 515.79201,55.780998 c 0,11.176034 -9.38949,20.236 -20.972,20.236 -11.58252,0 -20.972,-9.059966 -20.972,-20.236 0,-11.176034 9.38948,-20.236 20.972,-20.236 11.58251,0 20.972,9.059966 20.972,20.236 z"
                 sodipodi:cy="55.780998"
                 sodipodi:rx="20.972"
                 id="imagebot_387" />
            </g>
            <ellipse
               sodipodi:cx="1667.7"
               cx="1667.7"
               cy="923.97998"
               transform="matrix(1.0364,0.56708,-0.71154,1.3004,350.82,-1174.8)"
               ry="15.682"
               rx="31.872999"
               sodipodi:ry="15.682"
               d="m 1699.573,923.97998 c 0,8.66093 -14.2701,15.682 -31.873,15.682 -17.603,0 -31.873,-7.02107 -31.873,-15.682 0,-8.66093 14.27,-15.682 31.873,-15.682 17.6029,0 31.873,7.02107 31.873,15.682 z"
               style="fill:url(#imagebot_385);stroke:#000000"
               sodipodi:cy="923.97998"
               sodipodi:rx="31.872999"
               id="imagebot_384" />
          </g>
          <g
             transform="translate(0,0.16777)"
             id="imagebot_377">
            <g
               transform="matrix(-0.021283,-0.040346,-0.033622,0.017736,1455.9,1003.9)"
               id="imagebot_381">
              <path
                 d="m 220.97,0.668 c 97.219,-6.261 201.14,38.968 255.3,122.53 19.273,29.735 -43.39,78.156 -63.825,93.52 -42.576,32.007 -94.626,50.303 -147.61,54.14 -96.04,6.95 -211.92,-37.66 -261.59,-125.51 -16.453,-29.09 53.141,-79.43 72.946,-93.82 42.384,-30.791 92.644,-47.507 144.77,-50.864"
                 inkscape:connector-curvature="0"
                 style="fill:#bf0000"
                 id="imagebot_382" />
            </g>
            <g
               clip-rule="evenodd"
               style="fill:#ff00ff;fill-rule:evenodd;stroke:#373435;stroke-width:3.47650003"
               id="imagebot_378">
              <polygon
                 transform="matrix(-0.058548,0.12594,-0.12594,-0.058548,1477.5,929.6)"
                 points="552.96,87.422 552.22,30.761 482.31,56.516 430.8,59.46 466.12,3.4258 494.82,55.781 "
                 id="imagebot_380" />
              <ellipse
                 sodipodi:cx="494.82001"
                 cx="494.82001"
                 cy="55.780998"
                 transform="matrix(-0.058548,0.12594,-0.12594,-0.058548,1477.9,929.79)"
                 ry="20.236"
                 rx="20.972"
                 sodipodi:ry="20.236"
                 d="m 515.79201,55.780998 c 0,11.176034 -9.38949,20.236 -20.972,20.236 -11.58252,0 -20.972,-9.059966 -20.972,-20.236 0,-11.176034 9.38948,-20.236 20.972,-20.236 11.58251,0 20.972,9.059966 20.972,20.236 z"
                 sodipodi:cy="55.780998"
                 sodipodi:rx="20.972"
                 id="imagebot_379" />
            </g>
          </g>
          <g
             transform="translate(0,0.16777)"
             id="imagebot_371">
            <g
               transform="matrix(0.024817,-0.038274,0.031895,0.020681,1375.5,1003.3)"
               id="imagebot_375">
              <path
                 d="m 220.97,0.668 c 97.219,-6.261 201.14,38.968 255.3,122.53 19.273,29.735 -43.39,78.156 -63.825,93.52 -42.576,32.007 -94.626,50.303 -147.61,54.14 -96.04,6.95 -211.92,-37.66 -261.59,-125.51 -16.453,-29.09 53.141,-79.43 72.946,-93.82 42.384,-30.791 92.644,-47.507 144.77,-50.864"
                 inkscape:connector-curvature="0"
                 style="fill:#bf0000"
                 id="imagebot_376" />
            </g>
            <g
               clip-rule="evenodd"
               style="fill:#ff00ff;fill-rule:evenodd;stroke:#373435;stroke-width:3.47650003"
               id="imagebot_372">
              <polygon
                 transform="matrix(-0.093976,-0.10226,0.10226,-0.093976,1406.1,1020.1)"
                 points="233.59,82.64 299.82,85.95 294.68,39.513 171.04,105.08 190.91,44.006 "
                 id="imagebot_374" />
              <ellipse
                 sodipodi:cx="233.59"
                 cx="233.59"
                 cy="82.639999"
                 transform="matrix(-0.093976,-0.10226,0.10226,-0.093976,1406.1,1020.1)"
                 ry="20.236"
                 rx="21.34"
                 sodipodi:ry="20.236"
                 d="m 254.93,82.639999 c 0,11.176035 -9.55425,20.236001 -21.34,20.236001 -11.78576,0 -21.34,-9.059966 -21.34,-20.236001 0,-11.176034 9.55424,-20.236 21.34,-20.236 11.78575,0 21.34,9.059966 21.34,20.236 z"
                 sodipodi:cy="82.639999"
                 sodipodi:rx="21.34"
                 id="imagebot_373" />
            </g>
          </g>
          <g
             transform="translate(-0.16777,0)"
             id="imagebot_356">
            <g
               transform="matrix(0.88552,0,0,0.88552,-33.698,99.317)"
               clip-rule="evenodd"
               style="stroke:#373435"
               id="imagebot_363">
              <ellipse
                 sodipodi:cx="156.83"
                 cx="156.83"
                 cy="204.78999"
                 transform="matrix(0.15208,0,0,0.15208,1585,963.38)"
                 ry="18.014"
                 rx="21.846001"
                 sodipodi:ry="18.014"
                 d="m 178.676,204.78999 c 0,9.94886 -9.78079,18.014 -21.846,18.014 -12.06521,0 -21.846,-8.06514 -21.846,-18.014 0,-9.94885 9.78079,-18.014 21.846,-18.014 12.06521,0 21.846,8.06515 21.846,18.014 z"
                 style="fill:#fdd1a1;fill-rule:evenodd;stroke-width:6.95300007"
                 sodipodi:cy="204.78999"
                 sodipodi:rx="21.846001"
                 id="imagebot_370" />
              <ellipse
                 sodipodi:cx="549.28003"
                 cx="549.28003"
                 cy="203.67999"
                 transform="matrix(0.15208,0,0,0.15208,1585,963.38)"
                 ry="18.014"
                 rx="21.846001"
                 sodipodi:ry="18.014"
                 d="m 571.12603,203.67999 c 0,9.94886 -9.78079,18.014 -21.846,18.014 -12.06521,0 -21.846,-8.06514 -21.846,-18.014 0,-9.94885 9.78079,-18.014 21.846,-18.014 12.06521,0 21.846,8.06515 21.846,18.014 z"
                 style="fill:#fdd1a1;fill-rule:evenodd;stroke-width:6.95300007"
                 sodipodi:cy="203.67999"
                 sodipodi:rx="21.846001"
                 id="imagebot_369" />
              <path
                 d="M 162.67,257.19 C 98.369,-4.26 527.12,-58.43 542.87,202.76 507.01,383.6 248.09,438.8 162.67,257.19 z"
                 transform="matrix(0.15208,0,0,0.15208,1585.8,963.38)"
                 style="fill:url(#imagebot_368);fill-rule:evenodd;stroke-width:6.95300007"
                 inkscape:connector-curvature="0"
                 id="imagebot_367" />
              <ellipse
                 sodipodi:cx="361.20001"
                 cx="361.20001"
                 cy="119.98"
                 transform="matrix(0.15208,0,0,0.15208,1585,963.38)"
                 ry="12.264"
                 rx="9.9646997"
                 sodipodi:ry="12.264"
                 d="m 371.16471,119.98 c 0,6.77322 -4.46135,12.264 -9.9647,12.264 -5.50335,0 -9.9647,-5.49078 -9.9647,-12.264 0,-6.77322 4.46135,-12.264 9.9647,-12.264 5.50335,0 9.9647,5.49078 9.9647,12.264 z"
                 style="fill:#373435;fill-rule:evenodd;stroke-width:1.39059997"
                 sodipodi:cy="119.98"
                 sodipodi:rx="9.9646997"
                 id="imagebot_366" />
              <ellipse
                 sodipodi:cx="310.60999"
                 cx="310.60999"
                 cy="125.34"
                 transform="matrix(0.15208,0,0,0.15208,1585,963.38)"
                 ry="12.264"
                 rx="9.9646997"
                 sodipodi:ry="12.264"
                 d="m 320.57469,125.34 c 0,6.77322 -4.46135,12.264 -9.9647,12.264 -5.50336,0 -9.9647,-5.49078 -9.9647,-12.264 0,-6.77322 4.46134,-12.264 9.9647,-12.264 5.50335,0 9.9647,5.49078 9.9647,12.264 z"
                 style="fill:#373435;fill-rule:evenodd;stroke-width:1.39059997"
                 sodipodi:cy="125.34"
                 sodipodi:rx="9.9646997"
                 id="imagebot_365" />
              <path
                 d="M 457.02,162.9 C 438.93,346.86 243.46,345.07 222.46,169.03"
                 transform="matrix(0.15208,0,0,0.15208,1585,963.38)"
                 style="fill:none;stroke-width:10.4289999"
                 inkscape:connector-curvature="0"
                 id="imagebot_364" />
            </g>
            <g
               transform="translate(0,0.16777)"
               style="fill:none;stroke:#bf0000"
               id="imagebot_357">
              <line
                 x1="1509.3"
                 y1="959.71997"
                 x2="1508.3"
                 transform="matrix(0.88552,0,0,0.88552,76.76,107.22)"
                 y2="963.97998"
                 id="imagebot_362" />
              <line
                 x1="1512.2"
                 y1="959.71997"
                 x2="1513.2"
                 transform="matrix(0.88552,0,0,0.88552,76.928,106.77)"
                 y2="964.96002"
                 id="imagebot_361" />
              <line
                 x1="1517.5"
                 y1="960.04999"
                 x2="1518.1"
                 transform="matrix(0.88552,0,0,0.88552,76.928,107.06)"
                 y2="964.96002"
                 id="imagebot_360" />
              <line
                 x1="1521.4"
                 y1="960.70001"
                 x2="1522.4"
                 transform="matrix(0.88552,0,0,0.88552,77.218,106.77)"
                 y2="964.64001"
                 id="imagebot_359" />
              <line
                 x1="1505"
                 y1="960.04999"
                 x2="1503.4"
                 transform="matrix(0.88552,0,0,0.88552,76.928,108.05)"
                 y2="963"
                 id="imagebot_358" />
            </g>
          </g>
        </g>
      </g>
      <metadata
         id="metadata118">image/svg+xmlOpen Clip Art LibraryAfrican Hut2012-07-14T08:12:06http://openclipart.org/detail/171170/african-hut-by-gnokii-171170gnokiiafricaafricanafrikacabinclip artclipartcottagehutkraallodgescene</metadata>
    </g>
  </g>
  <metadata
     id="metadata78">
    <rdf:RDF>
      <cc:Work>
        <dc:format>image/svg+xml</dc:format>
        <dc:type
           rdf:resource="http://purl.org/dc/dcmitype/StillImage" />
        <cc:license
           rdf:resource="http://creativecommons.org/licenses/publicdomain/" />
        <dc:publisher>
          <cc:Agent
             rdf:about="http://openclipart.org/">
            <dc:title>Openclipart</dc:title>
          </cc:Agent>
        </dc:publisher>
      </cc:Work>
      <cc:License
         rdf:about="http://creativecommons.org/licenses/publicdomain/">
        <cc:permits
           rdf:resource="http://creativecommons.org/ns#Reproduction" />
        <cc:permits
           rdf:resource="http://creativecommons.org/ns#Distribution" />
        <cc:permits
           rdf:resource="http://creativecommons.org/ns#DerivativeWorks" />
      </cc:License>
    </rdf:RDF>
  </metadata>
</svg>
