<?xml version="1.0" encoding="UTF-8" standalone="no"?>
<!-- Generated by graphviz version 2.36.0 (20140111.2315)
 -->

<!-- Title: %3 Pages: 1 -->

<svg
   width="259.12366pt"
   height="512.44214pt"
   viewBox="0 0 259.12366 512.44214"
   id="svg2"
   version="1.1"
   inkscape:version="1.2.2 (b0a8486541, 2022-12-01)"
   sodipodi:docname="ws_analyze_critical.svg"
   xmlns:inkscape="http://www.inkscape.org/namespaces/inkscape"
   xmlns:sodipodi="http://sodipodi.sourceforge.net/DTD/sodipodi-0.dtd"
   xmlns="http://www.w3.org/2000/svg"
   xmlns:svg="http://www.w3.org/2000/svg"
   xmlns:rdf="http://www.w3.org/1999/02/22-rdf-syntax-ns#"
   xmlns:cc="http://creativecommons.org/ns#"
   xmlns:dc="http://purl.org/dc/elements/1.1/">
  <metadata
     id="metadata412">
    <rdf:RDF>
      <cc:Work
         rdf:about="">
        <dc:format>image/svg+xml</dc:format>
        <dc:type
           rdf:resource="http://purl.org/dc/dcmitype/StillImage" />
      </cc:Work>
    </rdf:RDF>
  </metadata>
  <defs
     id="defs410">
    <marker
       inkscape:stockid="Arrow1Mend"
       orient="auto"
       refY="0"
       refX="0"
       id="Arrow1Mend"
       style="overflow:visible">
      <path
         id="path3893"
         d="M 0,0 5,-5 -12.5,0 5,5 Z"
         style="fill-rule:evenodd;stroke:#000000;stroke-width:1pt"
         transform="matrix(-0.4,0,0,-0.4,-4,0)" />
    </marker>
    <marker
       inkscape:stockid="Arrow1Lstart"
       orient="auto"
       refY="0"
       refX="0"
       id="Arrow1Lstart"
       style="overflow:visible">
      <path
         id="path3884"
         d="M 0,0 5,-5 -12.5,0 5,5 Z"
         style="fill-rule:evenodd;stroke:#000000;stroke-width:1pt"
         transform="matrix(0.8,0,0,0.8,10,0)" />
    </marker>
    <marker
       inkscape:stockid="Arrow2Lstart"
       orient="auto"
       refY="0"
       refX="0"
       id="Arrow2Lstart"
       style="overflow:visible">
      <path
         id="path3902"
         style="fill-rule:evenodd;stroke-width:0.625;stroke-linejoin:round"
         d="M 8.7185878,4.0337352 -2.2072895,0.01601326 8.7185884,-4.0017078 c -1.7454984,2.3720609 -1.7354408,5.6174519 -6e-7,8.035443 z"
         transform="matrix(1.1,0,0,1.1,1.1,0)" />
    </marker>
    <marker
       inkscape:stockid="Arrow1Lend"
       orient="auto"
       refY="0"
       refX="0"
       id="Arrow1Lend"
       style="overflow:visible">
      <path
         id="path3947"
         d="M 0,0 5,-5 -12.5,0 5,5 Z"
         style="fill-rule:evenodd;stroke:#000000;stroke-width:1pt"
         transform="matrix(-0.8,0,0,-0.8,-10,0)" />
    </marker>
  </defs>
  <sodipodi:namedview
     pagecolor="#ffffff"
     bordercolor="#666666"
     borderopacity="1"
     objecttolerance="10"
     gridtolerance="10"
     guidetolerance="10"
     inkscape:pageopacity="0"
     inkscape:pageshadow="2"
     inkscape:window-width="3840"
     inkscape:window-height="2025"
     id="namedview408"
     showgrid="true"
     inkscape:zoom="1.4454909"
     inkscape:cx="121.75794"
     inkscape:cy="-34.244422"
     inkscape:window-x="0"
     inkscape:window-y="0"
     inkscape:window-maximized="1"
     inkscape:current-layer="svg2"
     inkscape:snap-global="true"
     inkscape:showpageshadow="2"
     inkscape:pagecheckerboard="0"
     inkscape:deskcolor="#d1d1d1"
     inkscape:document-units="pt">
    <inkscape:grid
       type="xygrid"
       id="grid3134"
       originx="-461.00427"
       originy="-19.600001" />
  </sodipodi:namedview>
  <path
     sodipodi:nodetypes="caaaaac"
     inkscape:connector-curvature="0"
     id="path5258"
     d="m 56.595752,424.4 c 0,0 -3.31501,5.09833 -4,8 -0.91901,3.893 1.53074,8.30448 0,12 -2.16478,5.22625 -10.36074,6.58587 -12,12 -1.97015,6.50697 4.90241,13.26146 4,20 -0.79146,5.91009 -6.63002,10.19666 -8,16 -1.53169,6.48833 0,20 0,20"
     style="fill:none;stroke:#000000;stroke-width:0.8;stroke-linecap:butt;stroke-linejoin:miter;stroke-miterlimit:4;stroke-dasharray:3.2, 3.2;stroke-dashoffset:0;stroke-opacity:1" />
  <path
     style="fill:none;stroke:#ff0000;stroke-width:2.4;stroke-linecap:butt;stroke-linejoin:miter;stroke-miterlimit:4;stroke-dasharray:none;stroke-opacity:1"
     d="m 138.99575,8.4 -95.999998,408 48,72"
     id="path5222"
     inkscape:connector-curvature="0"
     sodipodi:nodetypes="ccc" />
  <text
     xml:space="preserve"
     style="font-style:normal;font-weight:normal;font-size:9.6px;line-height:0%;font-family:sans-serif;letter-spacing:0px;word-spacing:0px;fill:#000000;fill-opacity:1;stroke:none;stroke-width:0.8"
     x="0"
     y="43.162189"
     id="text4413"><tspan
       sodipodi:role="line"
       id="tspan4415"
       x="0"
       y="43.162189"
       style="font-size:32px;line-height:1.25;font-family:sans-serif;stroke-width:0.8"> </tspan></text>
  <text
     xml:space="preserve"
     style="font-style:normal;font-weight:normal;line-height:0%;font-family:sans-serif;letter-spacing:0px;word-spacing:0px;fill:#000000;fill-opacity:1;stroke:none"
     x="159.79568"
     y="12.4"
     id="text4531"><tspan
       sodipodi:role="line"
       id="tspan4533"
       x="159.79568"
       y="12.4"
       style="font-size:12.8px;line-height:1.25;font-family:sans-serif">{\tt create\_task}</tspan></text>
  <path
     style="fill:none;stroke:#000000;stroke-width:0.8;stroke-linecap:butt;stroke-linejoin:miter;stroke-miterlimit:4;stroke-dasharray:none;stroke-opacity:1"
     d="m 150.99575,8.4 16,24"
     id="path5154"
     inkscape:connector-curvature="0" />
  <path
     style="fill:none;stroke:#000000;stroke-width:0.8;stroke-linecap:butt;stroke-linejoin:miter;stroke-miterlimit:4;stroke-dasharray:3.2, 3.2;stroke-dashoffset:0;stroke-opacity:1"
     d="m 150.99575,8.4 c 0,0 -3.31501,5.098332 -4,8 -0.91901,3.892996 1.53074,8.304482 0,12 -2.16478,5.226252 -10.36073,6.58587 -12,12 -1.97015,6.506974 4.90241,13.261463 4,20 -0.79146,5.910088 -6.63001,10.196664 -8,16 -1.53169,6.488328 0,20 0,20"
     id="path5156"
     inkscape:connector-curvature="0"
     sodipodi:nodetypes="caaaaac" />
  <circle
     style="fill:#ffffff;stroke:#000000;stroke-width:0.8;stroke-miterlimit:4;stroke-dasharray:none;stroke-dashoffset:0;stroke-opacity:1"
     id="path5134"
     cx="150.99576"
     cy="8.3999996"
     r="8" />
  <path
     inkscape:connector-curvature="0"
     id="path5182"
     d="m 58.195752,422.8 16,24"
     style="fill:none;stroke:#000000;stroke-width:0.8;stroke-linecap:butt;stroke-linejoin:miter;stroke-miterlimit:4;stroke-dasharray:none;stroke-opacity:1" />
  <circle
     id="path5186"
     style="fill:#ffffff;stroke:#000000;stroke-width:0.8;stroke-miterlimit:4;stroke-dasharray:none;stroke-dashoffset:0;stroke-opacity:1"
     cx="58.195751"
     cy="422.79999"
     r="8" />
  <circle
     style="fill:#000000;fill-opacity:1;stroke:#000000;stroke-width:0.8;stroke-miterlimit:4;stroke-dasharray:none;stroke-dashoffset:0;stroke-opacity:1"
     id="path5188"
     cx="89.795753"
     cy="288.79999"
     r="2" />
  <circle
     id="path5190"
     style="fill:#000000;fill-opacity:1;stroke:#000000;stroke-width:0.8;stroke-miterlimit:4;stroke-dasharray:none;stroke-dashoffset:0;stroke-opacity:1"
     cx="86.595749"
     cy="304.79999"
     r="2" />
  <circle
     style="fill:#000000;fill-opacity:1;stroke:#000000;stroke-width:0.8;stroke-miterlimit:4;stroke-dasharray:none;stroke-dashoffset:0;stroke-opacity:1"
     id="path5192"
     cx="83.395752"
     cy="320.79999"
     r="2" />
  <text
     id="text5202"
     y="425.19998"
     x="66.996117"
     style="font-style:normal;font-weight:normal;line-height:0%;font-family:sans-serif;letter-spacing:0px;word-spacing:0px;fill:#000000;fill-opacity:1;stroke:none"
     xml:space="preserve"><tspan
       style="font-size:12.8px;line-height:1.25;font-family:sans-serif"
       y="425.19998"
       x="66.996117"
       id="tspan5204"
       sodipodi:role="line">{\tt create\_task}</tspan></text>
  <circle
     id="path5206"
     style="fill:#ffffff;stroke:#00ff00;stroke-width:0.8;stroke-miterlimit:4;stroke-dasharray:none;stroke-dashoffset:0;stroke-opacity:1"
     cx="166.99576"
     cy="34"
     r="8" />
  <circle
     style="fill:#ffd5d5;stroke:#000000;stroke-width:0.8;stroke-miterlimit:4;stroke-dasharray:none;stroke-dashoffset:0;stroke-opacity:1"
     id="path5212"
     cx="74.195755"
     cy="448.39999"
     r="8" />
  <rect
     style="fill:none;fill-opacity:1;stroke:#000000;stroke-width:0.8;stroke-miterlimit:4;stroke-dasharray:none;stroke-dashoffset:0;stroke-opacity:1"
     id="rect5214"
     width="32"
     height="20"
     x="150.99576"
     y="24.4" />
  <rect
     y="438.79999"
     x="58.195946"
     height="20"
     width="32"
     id="rect5220"
     style="fill:none;stroke:#000000;stroke-width:0.8;stroke-miterlimit:4;stroke-dasharray:none;stroke-dashoffset:0;stroke-opacity:1" />
  <text
     id="text5224"
     y="133.85187"
     x="-204.24937"
     style="font-style:normal;font-weight:normal;line-height:0%;font-family:sans-serif;letter-spacing:0px;word-spacing:0px;fill:#000000;fill-opacity:1;stroke:none"
     xml:space="preserve"
     transform="rotate(-74.646701)"><tspan
       style="font-size:12.8px;line-height:1.25;font-family:sans-serif"
       y="133.85187"
       x="-204.24937"
       id="tspan5226"
       sodipodi:role="line">a ready path</tspan></text>
  <text
     id="text5228"
     y="98.800003"
     x="138.99576"
     style="font-style:normal;font-weight:normal;line-height:0%;font-family:sans-serif;letter-spacing:0px;word-spacing:0px;fill:#000000;fill-opacity:1;stroke:none"
     xml:space="preserve"><tspan
       style="font-size:12.8px;line-height:1.25;font-family:sans-serif"
       y="98.800003"
       x="138.99576"
       id="tspan5230"
       sodipodi:role="line">{\tt create\_task}</tspan></text>
  <path
     inkscape:connector-curvature="0"
     id="path5232"
     d="m 130.19575,94.8 16,24"
     style="fill:none;stroke:#000000;stroke-width:0.8;stroke-linecap:butt;stroke-linejoin:miter;stroke-miterlimit:4;stroke-dasharray:none;stroke-opacity:1" />
  <path
     sodipodi:nodetypes="caaaaac"
     inkscape:connector-curvature="0"
     id="path5234"
     d="m 130.19575,94.8 c 0,0 -3.31501,5.09833 -4,8 -0.91901,3.893 1.53074,8.30448 0,12 -2.16478,5.22625 -10.36074,6.58587 -12,12 -1.97015,6.50697 4.90241,13.26146 4,20 -0.79146,5.91009 -6.63002,10.19666 -8,16 -1.53169,6.48833 0,20 0,20"
     style="fill:none;stroke:#000000;stroke-width:0.8;stroke-linecap:butt;stroke-linejoin:miter;stroke-miterlimit:4;stroke-dasharray:3.2, 3.2;stroke-dashoffset:0;stroke-opacity:1" />
  <circle
     id="path5236"
     style="fill:#ffffff;stroke:#000000;stroke-width:0.8;stroke-miterlimit:4;stroke-dasharray:none;stroke-dashoffset:0;stroke-opacity:1"
     cx="130.19576"
     cy="94.800003"
     r="8" />
  <circle
     style="fill:#ffffff;stroke:#00ff00;stroke-width:0.8;stroke-miterlimit:4;stroke-dasharray:none;stroke-dashoffset:0;stroke-opacity:1"
     id="path5238"
     cx="146.19576"
     cy="120.4"
     r="8" />
  <rect
     y="110.80001"
     x="130.19583"
     height="20"
     width="32"
     id="rect5240"
     style="fill:none;stroke:#000000;stroke-width:0.8;stroke-miterlimit:4;stroke-dasharray:none;stroke-dashoffset:0;stroke-opacity:1" />
  <text
     xml:space="preserve"
     style="font-style:normal;font-weight:normal;line-height:0%;font-family:sans-serif;letter-spacing:0px;word-spacing:0px;fill:#000000;fill-opacity:1;stroke:none"
     x="118.19607"
     y="188.39996"
     id="text5242"><tspan
       sodipodi:role="line"
       id="tspan5244"
       x="118.19607"
       y="188.39996"
       style="font-size:12.8px;line-height:1.25;font-family:sans-serif">{\tt create\_task}</tspan></text>
  <path
     style="fill:none;stroke:#000000;stroke-width:0.8;stroke-linecap:butt;stroke-linejoin:miter;stroke-miterlimit:4;stroke-dasharray:none;stroke-opacity:1"
     d="m 109.39575,184.4 16,24"
     id="path5246"
     inkscape:connector-curvature="0" />
  <path
     style="fill:none;stroke:#000000;stroke-width:0.8;stroke-linecap:butt;stroke-linejoin:miter;stroke-miterlimit:4;stroke-dasharray:3.2, 3.2;stroke-dashoffset:0;stroke-opacity:1"
     d="m 109.39575,184.4 c 0,0 -3.31501,5.09833 -4,8 -0.91901,3.893 1.53074,8.30448 0,12 -2.16478,5.22625 -10.360738,6.58587 -11.999998,12 -1.97015,6.50697 4.90241,13.26146 4,20 -0.79146,5.91009 -6.63002,10.19666 -8,16 -1.53169,6.48833 0,20 0,20"
     id="path5248"
     inkscape:connector-curvature="0"
     sodipodi:nodetypes="caaaaac" />
  <circle
     style="fill:#ffffff;stroke:#000000;stroke-width:0.8;stroke-miterlimit:4;stroke-dasharray:none;stroke-dashoffset:0;stroke-opacity:1"
     id="path5250"
     cx="109.39575"
     cy="184.39999"
     r="8" />
  <circle
     id="path5252"
     style="fill:#ffffff;stroke:#00ff00;stroke-width:0.8;stroke-miterlimit:4;stroke-dasharray:none;stroke-dashoffset:0;stroke-opacity:1"
     cx="125.39575"
     cy="210"
     r="8" />
  <rect
     style="fill:none;stroke:#000000;stroke-width:0.8;stroke-miterlimit:4;stroke-dasharray:none;stroke-dashoffset:0;stroke-opacity:1"
     id="rect5254"
     width="32"
     height="20"
     x="109.39614"
     y="200.39998" />
  <path
     sodipodi:nodetypes="caaaaac"
     inkscape:connector-curvature="0"
     id="path5256"
     d="m 77.395752,333.2 c 0,0 -3.31501,5.09833 -4,8 -0.91901,3.893 1.53074,8.30448 0,12 -2.16478,5.22625 -10.36074,6.58587 -12,12 -1.97015,6.50697 4.90241,13.26146 4,20 -0.79146,5.91009 -6.63002,10.19666 -8,16 -1.53169,6.48833 0,20 0,20"
     style="fill:none;stroke:#000000;stroke-width:0.8;stroke-linecap:butt;stroke-linejoin:miter;stroke-miterlimit:4;stroke-dasharray:3.2, 3.2;stroke-dashoffset:0;stroke-opacity:1" />
  <text
     xml:space="preserve"
     style="font-style:normal;font-weight:normal;line-height:0%;font-family:sans-serif;letter-spacing:0px;word-spacing:0px;fill:#000000;fill-opacity:1;stroke:none"
     x="95.795799"
     y="454.79999"
     id="text5260"><tspan
       sodipodi:role="line"
       id="tspan5262"
       x="95.795799"
       y="454.79999"
       style="font-size:12.8px;line-height:1.25;font-family:sans-serif">$n$</tspan></text>
</svg>
