<?xml version="1.0" encoding="UTF-8" standalone="no"?>
<!-- Generated by graphviz version 2.36.0 (20140111.2315)
 -->

<!-- Title: %3 Pages: 1 -->

<svg
   xmlns:dc="http://purl.org/dc/elements/1.1/"
   xmlns:cc="http://creativecommons.org/ns#"
   xmlns:rdf="http://www.w3.org/1999/02/22-rdf-syntax-ns#"
   xmlns:svg="http://www.w3.org/2000/svg"
   xmlns="http://www.w3.org/2000/svg"
   xmlns:sodipodi="http://sodipodi.sourceforge.net/DTD/sodipodi-0.dtd"
   xmlns:inkscape="http://www.inkscape.org/namespaces/inkscape"
   width="1253pt"
   height="260pt"
   viewBox="0.00 0.00 1253.00 260.00"
   id="svg2"
   version="1.1"
   inkscape:version="0.48.4 r9939"
   sodipodi:docname="ws_analyze_critical.svg">
  <metadata
     id="metadata412">
    <rdf:RDF>
      <cc:Work
         rdf:about="">
        <dc:format>image/svg+xml</dc:format>
        <dc:type
           rdf:resource="http://purl.org/dc/dcmitype/StillImage" />
        <dc:title />
      </cc:Work>
    </rdf:RDF>
  </metadata>
  <defs
     id="defs410">
    <marker
       inkscape:stockid="Arrow1Mend"
       orient="auto"
       refY="0.0"
       refX="0.0"
       id="Arrow1Mend"
       style="overflow:visible;">
      <path
         id="path3893"
         d="M 0.0,0.0 L 5.0,-5.0 L -12.5,0.0 L 5.0,5.0 L 0.0,0.0 z "
         style="fill-rule:evenodd;stroke:#000000;stroke-width:1.0pt;"
         transform="scale(0.4) rotate(180) translate(10,0)" />
    </marker>
    <marker
       inkscape:stockid="Arrow1Lstart"
       orient="auto"
       refY="0.0"
       refX="0.0"
       id="Arrow1Lstart"
       style="overflow:visible">
      <path
         id="path3884"
         d="M 0.0,0.0 L 5.0,-5.0 L -12.5,0.0 L 5.0,5.0 L 0.0,0.0 z "
         style="fill-rule:evenodd;stroke:#000000;stroke-width:1.0pt"
         transform="scale(0.8) translate(12.5,0)" />
    </marker>
    <marker
       inkscape:stockid="Arrow2Lstart"
       orient="auto"
       refY="0.0"
       refX="0.0"
       id="Arrow2Lstart"
       style="overflow:visible">
      <path
         id="path3902"
         style="fill-rule:evenodd;stroke-width:0.62500000;stroke-linejoin:round"
         d="M 8.7185878,4.0337352 L -2.2072895,0.016013256 L 8.7185884,-4.0017078 C 6.9730900,-1.6296469 6.9831476,1.6157441 8.7185878,4.0337352 z "
         transform="scale(1.1) translate(1,0)" />
    </marker>
    <marker
       inkscape:stockid="Arrow1Lend"
       orient="auto"
       refY="0.0"
       refX="0.0"
       id="Arrow1Lend"
       style="overflow:visible;">
      <path
         id="path3947"
         d="M 0.0,0.0 L 5.0,-5.0 L -12.5,0.0 L 5.0,5.0 L 0.0,0.0 z "
         style="fill-rule:evenodd;stroke:#000000;stroke-width:1.0pt;"
         transform="scale(0.8) rotate(180) translate(12.5,0)" />
    </marker>
  </defs>
  <sodipodi:namedview
     pagecolor="#ffffff"
     bordercolor="#666666"
     borderopacity="1"
     objecttolerance="10"
     gridtolerance="10"
     guidetolerance="10"
     inkscape:pageopacity="0"
     inkscape:pageshadow="2"
     inkscape:window-width="2495"
     inkscape:window-height="1416"
     id="namedview408"
     showgrid="true"
     inkscape:zoom="1.4454909"
     inkscape:cx="736.68064"
     inkscape:cy="-8.7812084"
     inkscape:window-x="65"
     inkscape:window-y="24"
     inkscape:window-maximized="1"
     inkscape:current-layer="svg2"
     inkscape:snap-global="true">
    <inkscape:grid
       type="xygrid"
       id="grid3134" />
  </sodipodi:namedview>
  <path
     sodipodi:nodetypes="caaaaac"
     inkscape:connector-curvature="0"
     id="path5258"
     d="m 517.6,444 c 0,0 -3.31501,5.09833 -4,8 -0.91901,3.893 1.53074,8.30448 0,12 -2.16478,5.22625 -10.36074,6.58587 -12,12 -1.97015,6.50697 4.90241,13.26146 4,20 -0.79146,5.91009 -6.63002,10.19666 -8,16 -1.53169,6.48833 0,20 0,20"
     style="fill:none;stroke:#000000;stroke-width:0.80000001;stroke-linecap:butt;stroke-linejoin:miter;stroke-miterlimit:4;stroke-opacity:1;stroke-dasharray:3.2, 3.2;stroke-dashoffset:0" />
  <path
     style="fill:none;stroke:#ff0000;stroke-width:2.4000001;stroke-linecap:butt;stroke-linejoin:miter;stroke-miterlimit:4;stroke-opacity:1;stroke-dasharray:none"
     d="m 600,28 -96,408 48,72"
     id="path5222"
     inkscape:connector-curvature="0"
     sodipodi:nodetypes="ccc" />
  <text
     xml:space="preserve"
     style="font-size:40px;font-style:normal;font-weight:normal;line-height:125%;letter-spacing:0px;word-spacing:0px;fill:#000000;fill-opacity:1;stroke:none;font-family:Sans"
     x="576.25531"
     y="78.452736"
     id="text4413"
     sodipodi:linespacing="125%"
     transform="scale(0.8,0.8)"><tspan
       sodipodi:role="line"
       id="tspan4415"
       x="576.25531"
       y="78.452736" /></text>
  <text
     xml:space="preserve"
     style="font-size:32px;font-style:normal;font-weight:normal;line-height:125%;letter-spacing:0px;word-spacing:0px;fill:#000000;fill-opacity:1;stroke:none;font-family:Sans"
     x="620.79993"
     y="32"
     id="text4531"
     sodipodi:linespacing="125%"><tspan
       sodipodi:role="line"
       id="tspan4533"
       x="620.79993"
       y="32"
       style="font-size:12.80000019px">{\tt create\_task}</tspan></text>
  <path
     style="fill:none;stroke:#000000;stroke-width:1;stroke-linecap:butt;stroke-linejoin:miter;stroke-opacity:1;stroke-miterlimit:4;stroke-dasharray:none"
     d="m 765,35 20,30"
     id="path5154"
     inkscape:connector-curvature="0"
     transform="scale(0.8,0.8)" />
  <path
     style="fill:none;stroke:#000000;stroke-width:1;stroke-linecap:butt;stroke-linejoin:miter;stroke-miterlimit:4;stroke-opacity:1;stroke-dasharray:4,4;stroke-dashoffset:0"
     d="m 765,35 c 0,0 -4.14376,6.372915 -5,10 -1.14876,4.866245 1.91342,10.380602 0,15 -2.70598,6.532815 -12.95092,8.232337 -15,15 -2.46269,8.133718 6.12801,16.576829 5,25 -0.98933,7.38761 -8.28752,12.74583 -10,20 -1.91461,8.11041 0,25 0,25"
     id="path5156"
     inkscape:connector-curvature="0"
     transform="scale(0.8,0.8)"
     sodipodi:nodetypes="caaaaac" />
  <path
     sodipodi:type="arc"
     style="fill:#ffffff;stroke:#000000;stroke-width:1;stroke-miterlimit:4;stroke-opacity:1;stroke-dasharray:none;stroke-dashoffset:0"
     id="path5134"
     sodipodi:cx="765"
     sodipodi:cy="35"
     sodipodi:rx="10"
     sodipodi:ry="10"
     d="m 775,35 a 10,10 0 1 1 -20,0 10,10 0 1 1 20,0 z"
     transform="scale(0.8,0.8)" />
  <path
     inkscape:connector-curvature="0"
     id="path5182"
     d="m 519.2,442.4 16,24"
     style="fill:none;stroke:#000000;stroke-width:0.80000001;stroke-linecap:butt;stroke-linejoin:miter;stroke-miterlimit:4;stroke-opacity:1;stroke-dasharray:none" />
  <path
     transform="matrix(0.8,0,0,0.8,-92.8,414.4)"
     d="m 775,35 a 10,10 0 1 1 -20,0 10,10 0 1 1 20,0 z"
     sodipodi:ry="10"
     sodipodi:rx="10"
     sodipodi:cy="35"
     sodipodi:cx="765"
     id="path5186"
     style="fill:#ffffff;stroke:#000000;stroke-width:1;stroke-miterlimit:4;stroke-opacity:1;stroke-dasharray:none;stroke-dashoffset:0"
     sodipodi:type="arc" />
  <path
     sodipodi:type="arc"
     style="fill:#000000;fill-opacity:1;stroke:#000000;stroke-width:1;stroke-miterlimit:4;stroke-opacity:1;stroke-dasharray:none;stroke-dashoffset:0"
     id="path5188"
     sodipodi:cx="542.5"
     sodipodi:cy="177.5"
     sodipodi:rx="2.5"
     sodipodi:ry="2.5"
     d="m 545,177.5 a 2.5,2.5 0 1 1 -5,0 2.5,2.5 0 1 1 5,0 z"
     transform="matrix(0.8,0,0,0.8,116.8,166.4)" />
  <path
     transform="matrix(0.8,0,0,0.8,113.6,182.4)"
     d="m 545,177.5 a 2.5,2.5 0 1 1 -5,0 2.5,2.5 0 1 1 5,0 z"
     sodipodi:ry="2.5"
     sodipodi:rx="2.5"
     sodipodi:cy="177.5"
     sodipodi:cx="542.5"
     id="path5190"
     style="fill:#000000;fill-opacity:1;stroke:#000000;stroke-width:1;stroke-miterlimit:4;stroke-opacity:1;stroke-dasharray:none;stroke-dashoffset:0"
     sodipodi:type="arc" />
  <path
     sodipodi:type="arc"
     style="fill:#000000;fill-opacity:1;stroke:#000000;stroke-width:1;stroke-miterlimit:4;stroke-opacity:1;stroke-dasharray:none;stroke-dashoffset:0"
     id="path5192"
     sodipodi:cx="542.5"
     sodipodi:cy="177.5"
     sodipodi:rx="2.5"
     sodipodi:ry="2.5"
     d="m 545,177.5 a 2.5,2.5 0 1 1 -5,0 2.5,2.5 0 1 1 5,0 z"
     transform="matrix(0.8,0,0,0.8,110.4,198.4)" />
  <text
     sodipodi:linespacing="125%"
     id="text5202"
     y="444.79999"
     x="528.00037"
     style="font-size:32px;font-style:normal;font-weight:normal;line-height:125%;letter-spacing:0px;word-spacing:0px;fill:#000000;fill-opacity:1;stroke:none;font-family:Sans"
     xml:space="preserve"><tspan
       style="font-size:12.80000019px"
       y="444.79999"
       x="528.00037"
       id="tspan5204"
       sodipodi:role="line">{\tt create\_task}</tspan></text>
  <path
     transform="matrix(0.8,0,0,0.8,16,25.6)"
     d="m 775,35 a 10,10 0 1 1 -20,0 10,10 0 1 1 20,0 z"
     sodipodi:ry="10"
     sodipodi:rx="10"
     sodipodi:cy="35"
     sodipodi:cx="765"
     id="path5206"
     style="fill:#ffffff;stroke:#00ff00;stroke-width:1;stroke-miterlimit:4;stroke-opacity:1;stroke-dasharray:none;stroke-dashoffset:0"
     sodipodi:type="arc" />
  <path
     sodipodi:type="arc"
     style="fill:#ffd5d5;stroke:#000000;stroke-width:1;stroke-miterlimit:4;stroke-opacity:1;stroke-dasharray:none;stroke-dashoffset:0"
     id="path5212"
     sodipodi:cx="765"
     sodipodi:cy="35"
     sodipodi:rx="10"
     sodipodi:ry="10"
     d="m 775,35 a 10,10 0 1 1 -20,0 10,10 0 1 1 20,0 z"
     transform="matrix(0.8,0,0,0.8,-76.8,440)" />
  <rect
     style="fill:none;fill-opacity:1;stroke:#000000;stroke-width:1;stroke-miterlimit:4;stroke-opacity:1;stroke-dasharray:none;stroke-dashoffset:0"
     id="rect5214"
     width="40"
     height="25"
     x="765"
     y="55"
     transform="scale(0.8,0.8)" />
  <rect
     y="458.39999"
     x="519.2002"
     height="20"
     width="32"
     id="rect5220"
     style="fill:none;stroke:#000000;stroke-width:0.80000001;stroke-miterlimit:4;stroke-opacity:1;stroke-dasharray:none;stroke-dashoffset:0" />
  <text
     sodipodi:linespacing="125%"
     id="text5224"
     y="583.59308"
     x="-101.08968"
     style="font-size:32px;font-style:normal;font-weight:normal;line-height:125%;letter-spacing:0px;word-spacing:0px;fill:#000000;fill-opacity:1;stroke:none;font-family:Sans"
     xml:space="preserve"
     transform="matrix(0.26477021,-0.96431153,0.96431153,0.26477021,0,0)"><tspan
       style="font-size:12.80000019px"
       y="583.59308"
       x="-101.08968"
       id="tspan5226"
       sodipodi:role="line">a ready path</tspan></text>
  <text
     sodipodi:linespacing="125%"
     id="text5228"
     y="118.4"
     x="600"
     style="font-size:32px;font-style:normal;font-weight:normal;line-height:125%;letter-spacing:0px;word-spacing:0px;fill:#000000;fill-opacity:1;stroke:none;font-family:Sans"
     xml:space="preserve"><tspan
       style="font-size:12.80000019px"
       y="118.4"
       x="600"
       id="tspan5230"
       sodipodi:role="line">{\tt create\_task}</tspan></text>
  <path
     inkscape:connector-curvature="0"
     id="path5232"
     d="m 591.2,114.4 16,24"
     style="fill:none;stroke:#000000;stroke-width:0.80000001;stroke-linecap:butt;stroke-linejoin:miter;stroke-miterlimit:4;stroke-opacity:1;stroke-dasharray:none" />
  <path
     sodipodi:nodetypes="caaaaac"
     inkscape:connector-curvature="0"
     id="path5234"
     d="m 591.2,114.4 c 0,0 -3.31501,5.09833 -4,8 -0.91901,3.893 1.53074,8.30448 0,12 -2.16478,5.22625 -10.36074,6.58587 -12,12 -1.97015,6.50697 4.90241,13.26146 4,20 -0.79146,5.91009 -6.63002,10.19666 -8,16 -1.53169,6.48833 0,20 0,20"
     style="fill:none;stroke:#000000;stroke-width:0.80000001;stroke-linecap:butt;stroke-linejoin:miter;stroke-miterlimit:4;stroke-opacity:1;stroke-dasharray:3.2, 3.2;stroke-dashoffset:0" />
  <path
     transform="matrix(0.8,0,0,0.8,-20.8,86.4)"
     d="m 775,35 a 10,10 0 1 1 -20,0 10,10 0 1 1 20,0 z"
     sodipodi:ry="10"
     sodipodi:rx="10"
     sodipodi:cy="35"
     sodipodi:cx="765"
     id="path5236"
     style="fill:#ffffff;stroke:#000000;stroke-width:1;stroke-miterlimit:4;stroke-opacity:1;stroke-dasharray:none;stroke-dashoffset:0"
     sodipodi:type="arc" />
  <path
     sodipodi:type="arc"
     style="fill:#ffffff;stroke:#00ff00;stroke-width:1;stroke-miterlimit:4;stroke-opacity:1;stroke-dasharray:none;stroke-dashoffset:0"
     id="path5238"
     sodipodi:cx="765"
     sodipodi:cy="35"
     sodipodi:rx="10"
     sodipodi:ry="10"
     d="m 775,35 a 10,10 0 1 1 -20,0 10,10 0 1 1 20,0 z"
     transform="matrix(0.8,0,0,0.8,-4.8,112)" />
  <rect
     y="130.40001"
     x="591.20007"
     height="20"
     width="32"
     id="rect5240"
     style="fill:none;stroke:#000000;stroke-width:0.80000001;stroke-miterlimit:4;stroke-opacity:1;stroke-dasharray:none;stroke-dashoffset:0" />
  <text
     xml:space="preserve"
     style="font-size:32px;font-style:normal;font-weight:normal;line-height:125%;letter-spacing:0px;word-spacing:0px;fill:#000000;fill-opacity:1;stroke:none;font-family:Sans"
     x="579.20032"
     y="207.99997"
     id="text5242"
     sodipodi:linespacing="125%"><tspan
       sodipodi:role="line"
       id="tspan5244"
       x="579.20032"
       y="207.99997"
       style="font-size:12.80000019px">{\tt create\_task}</tspan></text>
  <path
     style="fill:none;stroke:#000000;stroke-width:0.80000001;stroke-linecap:butt;stroke-linejoin:miter;stroke-miterlimit:4;stroke-opacity:1;stroke-dasharray:none"
     d="m 570.4,204 16,24"
     id="path5246"
     inkscape:connector-curvature="0" />
  <path
     style="fill:none;stroke:#000000;stroke-width:0.80000001;stroke-linecap:butt;stroke-linejoin:miter;stroke-miterlimit:4;stroke-opacity:1;stroke-dasharray:3.2, 3.2;stroke-dashoffset:0"
     d="m 570.4,204 c 0,0 -3.31501,5.09833 -4,8 -0.91901,3.893 1.53074,8.30448 0,12 -2.16478,5.22625 -10.36074,6.58587 -12,12 -1.97015,6.50697 4.90241,13.26146 4,20 -0.79146,5.91009 -6.63002,10.19666 -8,16 -1.53169,6.48833 0,20 0,20"
     id="path5248"
     inkscape:connector-curvature="0"
     sodipodi:nodetypes="caaaaac" />
  <path
     sodipodi:type="arc"
     style="fill:#ffffff;stroke:#000000;stroke-width:1;stroke-miterlimit:4;stroke-opacity:1;stroke-dasharray:none;stroke-dashoffset:0"
     id="path5250"
     sodipodi:cx="765"
     sodipodi:cy="35"
     sodipodi:rx="10"
     sodipodi:ry="10"
     d="m 775,35 a 10,10 0 1 1 -20,0 10,10 0 1 1 20,0 z"
     transform="matrix(0.8,0,0,0.8,-41.6,176)" />
  <path
     transform="matrix(0.8,0,0,0.8,-25.6,201.6)"
     d="m 775,35 a 10,10 0 1 1 -20,0 10,10 0 1 1 20,0 z"
     sodipodi:ry="10"
     sodipodi:rx="10"
     sodipodi:cy="35"
     sodipodi:cx="765"
     id="path5252"
     style="fill:#ffffff;stroke:#00ff00;stroke-width:1;stroke-miterlimit:4;stroke-opacity:1;stroke-dasharray:none;stroke-dashoffset:0"
     sodipodi:type="arc" />
  <rect
     style="fill:none;stroke:#000000;stroke-width:0.80000001;stroke-miterlimit:4;stroke-opacity:1;stroke-dasharray:none;stroke-dashoffset:0"
     id="rect5254"
     width="32"
     height="20"
     x="570.40039"
     y="219.99998" />
  <path
     sodipodi:nodetypes="caaaaac"
     inkscape:connector-curvature="0"
     id="path5256"
     d="m 538.4,352.8 c 0,0 -3.31501,5.09833 -4,8 -0.91901,3.893 1.53074,8.30448 0,12 -2.16478,5.22625 -10.36074,6.58587 -12,12 -1.97015,6.50697 4.90241,13.26146 4,20 -0.79146,5.91009 -6.63002,10.19666 -8,16 -1.53169,6.48833 0,20 0,20"
     style="fill:none;stroke:#000000;stroke-width:0.80000001;stroke-linecap:butt;stroke-linejoin:miter;stroke-miterlimit:4;stroke-opacity:1;stroke-dasharray:3.2, 3.2;stroke-dashoffset:0" />
  <text
     xml:space="preserve"
     style="font-size:32px;font-style:normal;font-weight:normal;line-height:125%;letter-spacing:0px;word-spacing:0px;fill:#000000;fill-opacity:1;stroke:none;font-family:Sans"
     x="556.80005"
     y="474.39999"
     id="text5260"
     sodipodi:linespacing="125%"><tspan
       sodipodi:role="line"
       id="tspan5262"
       x="556.80005"
       y="474.39999"
       style="font-size:12.80000019px">$n$</tspan></text>
</svg>
