<?xml version="1.0" encoding="UTF-8" standalone="no"?>
<!-- Generated by graphviz version 2.36.0 (20140111.2315)
 -->

<!-- Title: %3 Pages: 1 -->

<svg
   xmlns:dc="http://purl.org/dc/elements/1.1/"
   xmlns:cc="http://creativecommons.org/ns#"
   xmlns:rdf="http://www.w3.org/1999/02/22-rdf-syntax-ns#"
   xmlns:svg="http://www.w3.org/2000/svg"
   xmlns="http://www.w3.org/2000/svg"
   xmlns:sodipodi="http://sodipodi.sourceforge.net/DTD/sodipodi-0.dtd"
   xmlns:inkscape="http://www.inkscape.org/namespaces/inkscape"
   width="1253pt"
   height="260pt"
   viewBox="0.00 0.00 1253.00 260.00"
   id="svg2"
   version="1.1"
   inkscape:version="0.48.4 r9939"
   sodipodi:docname="ws_analyze_2.svg">
  <metadata
     id="metadata412">
    <rdf:RDF>
      <cc:Work
         rdf:about="">
        <dc:format>image/svg+xml</dc:format>
        <dc:type
           rdf:resource="http://purl.org/dc/dcmitype/StillImage" />
        <dc:title />
      </cc:Work>
    </rdf:RDF>
  </metadata>
  <defs
     id="defs410">
    <marker
       inkscape:stockid="Arrow1Mend"
       orient="auto"
       refY="0.0"
       refX="0.0"
       id="Arrow1Mend"
       style="overflow:visible;">
      <path
         id="path3893"
         d="M 0.0,0.0 L 5.0,-5.0 L -12.5,0.0 L 5.0,5.0 L 0.0,0.0 z "
         style="fill-rule:evenodd;stroke:#000000;stroke-width:1.0pt;"
         transform="scale(0.4) rotate(180) translate(10,0)" />
    </marker>
    <marker
       inkscape:stockid="Arrow1Lstart"
       orient="auto"
       refY="0.0"
       refX="0.0"
       id="Arrow1Lstart"
       style="overflow:visible">
      <path
         id="path3884"
         d="M 0.0,0.0 L 5.0,-5.0 L -12.5,0.0 L 5.0,5.0 L 0.0,0.0 z "
         style="fill-rule:evenodd;stroke:#000000;stroke-width:1.0pt"
         transform="scale(0.8) translate(12.5,0)" />
    </marker>
    <marker
       inkscape:stockid="Arrow2Lstart"
       orient="auto"
       refY="0.0"
       refX="0.0"
       id="Arrow2Lstart"
       style="overflow:visible">
      <path
         id="path3902"
         style="fill-rule:evenodd;stroke-width:0.62500000;stroke-linejoin:round"
         d="M 8.7185878,4.0337352 L -2.2072895,0.016013256 L 8.7185884,-4.0017078 C 6.9730900,-1.6296469 6.9831476,1.6157441 8.7185878,4.0337352 z "
         transform="scale(1.1) translate(1,0)" />
    </marker>
    <marker
       inkscape:stockid="Arrow1Lend"
       orient="auto"
       refY="0.0"
       refX="0.0"
       id="Arrow1Lend"
       style="overflow:visible;">
      <path
         id="path3947"
         d="M 0.0,0.0 L 5.0,-5.0 L -12.5,0.0 L 5.0,5.0 L 0.0,0.0 z "
         style="fill-rule:evenodd;stroke:#000000;stroke-width:1.0pt;"
         transform="scale(0.8) rotate(180) translate(12.5,0)" />
    </marker>
  </defs>
  <sodipodi:namedview
     pagecolor="#ffffff"
     bordercolor="#666666"
     borderopacity="1"
     objecttolerance="10"
     gridtolerance="10"
     guidetolerance="10"
     inkscape:pageopacity="0"
     inkscape:pageshadow="2"
     inkscape:window-width="1855"
     inkscape:window-height="1056"
     id="namedview408"
     showgrid="true"
     inkscape:zoom="2.0442328"
     inkscape:cx="588.43236"
     inkscape:cy="51.311122"
     inkscape:window-x="65"
     inkscape:window-y="24"
     inkscape:window-maximized="1"
     inkscape:current-layer="svg2"
     inkscape:snap-global="true">
    <inkscape:grid
       type="xygrid"
       id="grid3134" />
  </sodipodi:namedview>
  <text
     xml:space="preserve"
     style="font-size:40px;font-style:normal;font-weight:normal;line-height:125%;letter-spacing:0px;word-spacing:0px;fill:#000000;fill-opacity:1;stroke:none;font-family:Sans"
     x="576.25531"
     y="78.452736"
     id="text4413"
     sodipodi:linespacing="125%"
     transform="scale(0.8,0.8)"><tspan
       sodipodi:role="line"
       id="tspan4415"
       x="576.25531"
       y="78.452736" /></text>
  <path
     style="fill:none;stroke:#ff0000;stroke-width:3;stroke-linecap:butt;stroke-linejoin:miter;stroke-opacity:1;stroke-miterlimit:4;stroke-dasharray:none"
     d="m 760,35 0,80 -40,40 0,40 40,40 0,80 -40,60 80,60"
     id="path4507"
     inkscape:connector-curvature="0"
     transform="scale(0.8,0.8)" />
  <path
     style="fill:none;stroke:#000000;stroke-width:1px;stroke-linecap:butt;stroke-linejoin:miter;stroke-opacity:1"
     d="m 625,230 c 5.19746,-3.0162 9.01239,-9.49049 15,-10 16.35565,-1.39176 41.03531,9.90377 45,20 3.96469,10.09623 -12.35702,12.92893 -10,20 4.71405,14.14214 40,5.09288 40,20 0,11.18034 -26.02672,4.54949 -30,15 -3.18964,8.38938 12.1407,16.28375 10,25 -3.66493,14.92245 -20.58855,24.66886 -35,30 -14.06828,5.20419 -31.66249,6.86372 -45,0 -12.74818,-6.56044 -26.18254,-20.71164 -25,-35 0.97204,-11.74496 25.97204,-13.25504 25,-25 -1.18254,-14.28836 -36.12147,-10.70672 -35,-25 0.87454,-11.14608 26.46447,-4.3934 30,-15 1.17851,-3.53553 -6.17851,-6.46447 -5,-10 2.35702,-7.07107 13.55334,-6.25886 20,-10 z"
     id="path4511"
     inkscape:connector-curvature="0"
     transform="scale(0.8,0.8)"
     sodipodi:nodetypes="aazaaaaaaaaaaaa" />
  <path
     style="fill:none;stroke:#000000;stroke-width:1px;stroke-linecap:butt;stroke-linejoin:miter;stroke-opacity:1"
     d="m 640,335 80,40"
     id="path4515"
     inkscape:connector-curvature="0"
     transform="scale(0.8,0.8)" />
  <path
     style="fill:none;stroke:#000000;stroke-width:1px;stroke-linecap:butt;stroke-linejoin:miter;stroke-opacity:1"
     d="m 720,195 -80,40"
     id="path4519"
     inkscape:connector-curvature="0"
     transform="scale(0.8,0.8)" />
  <path
     style="fill:none;stroke:#000000;stroke-width:1px;stroke-linecap:butt;stroke-linejoin:miter;stroke-opacity:1"
     d="m 845,145 c 4.47214,-8.94427 22.92893,-12.07107 30,-5 15,15 16.65427,76.23539 20,115 4.15614,48.15431 15,130 0,145 -7.07107,7.07107 -22.92893,7.07107 -30,0 -10,-10 4.3406,-96.86197 0,-145 -3.34686,-37.11721 -30,-90 -20,-110 z"
     id="path4525"
     inkscape:connector-curvature="0"
     transform="scale(0.8,0.8)"
     sodipodi:nodetypes="ssassas" />
  <path
     style="fill:none;stroke:#000000;stroke-width:1px;stroke-linecap:butt;stroke-linejoin:miter;stroke-opacity:1"
     d="m 760,115 100,40"
     id="path4527"
     inkscape:connector-curvature="0"
     transform="scale(0.8,0.8)" />
  <path
     style="fill:none;stroke:#000000;stroke-width:1px;stroke-linecap:butt;stroke-linejoin:miter;stroke-opacity:1"
     d="m 880,375 -80,60"
     id="path4529"
     inkscape:connector-curvature="0"
     transform="scale(0.8,0.8)" />
  <path
     transform="matrix(0.8,0,0,0.8,217.6,1.6)"
     d="m 500,35 a 10,10 0 1 1 -20,0 10,10 0 1 1 20,0 z"
     sodipodi:ry="10"
     sodipodi:rx="10"
     sodipodi:cy="35"
     sodipodi:cx="490"
     id="path3805"
     style="fill:#ffffff;fill-opacity:1;stroke:#000000;stroke-width:1;stroke-miterlimit:4;stroke-opacity:1;stroke-dasharray:none;stroke-dashoffset:0"
     sodipodi:type="arc" />
  <path
     sodipodi:type="arc"
     style="fill:#ffffff;fill-opacity:1;stroke:#000000;stroke-width:1;stroke-miterlimit:4;stroke-opacity:1;stroke-dasharray:none;stroke-dashoffset:0"
     id="path4489"
     sodipodi:cx="490"
     sodipodi:cy="35"
     sodipodi:rx="10"
     sodipodi:ry="10"
     d="m 500,35 a 10,10 0 1 1 -20,0 10,10 0 1 1 20,0 z"
     transform="matrix(0.8,0,0,0.8,217.6,33.6)" />
  <path
     transform="matrix(0.8,0,0,0.8,217.6,65.6)"
     d="m 500,35 a 10,10 0 1 1 -20,0 10,10 0 1 1 20,0 z"
     sodipodi:ry="10"
     sodipodi:rx="10"
     sodipodi:cy="35"
     sodipodi:cx="490"
     id="path4491"
     style="fill:#ffffff;fill-opacity:1;stroke:#000000;stroke-width:1;stroke-miterlimit:4;stroke-opacity:1;stroke-dasharray:none;stroke-dashoffset:0"
     sodipodi:type="arc" />
  <path
     sodipodi:type="arc"
     style="fill:#ffffff;fill-opacity:1;stroke:#000000;stroke-width:1;stroke-miterlimit:4;stroke-opacity:1;stroke-dasharray:none;stroke-dashoffset:0"
     id="path4493"
     sodipodi:cx="490"
     sodipodi:cy="35"
     sodipodi:rx="10"
     sodipodi:ry="10"
     d="m 500,35 a 10,10 0 1 1 -20,0 10,10 0 1 1 20,0 z"
     transform="matrix(0.8,0,0,0.8,185.6,97.6)" />
  <path
     transform="matrix(0.8,0,0,0.8,185.6,129.6)"
     d="m 500,35 a 10,10 0 1 1 -20,0 10,10 0 1 1 20,0 z"
     sodipodi:ry="10"
     sodipodi:rx="10"
     sodipodi:cy="35"
     sodipodi:cx="490"
     id="path4495"
     style="fill:#ffffff;fill-opacity:1;stroke:#000000;stroke-width:1;stroke-miterlimit:4;stroke-opacity:1;stroke-dasharray:none;stroke-dashoffset:0"
     sodipodi:type="arc" />
  <path
     sodipodi:type="arc"
     style="fill:#ffffff;fill-opacity:1;stroke:#000000;stroke-width:1;stroke-miterlimit:4;stroke-opacity:1;stroke-dasharray:none;stroke-dashoffset:0"
     id="path4497"
     sodipodi:cx="490"
     sodipodi:cy="35"
     sodipodi:rx="10"
     sodipodi:ry="10"
     d="m 500,35 a 10,10 0 1 1 -20,0 10,10 0 1 1 20,0 z"
     transform="matrix(0.8,0,0,0.8,217.6,161.6)" />
  <path
     transform="matrix(0.8,0,0,0.8,217.6,193.6)"
     d="m 500,35 a 10,10 0 1 1 -20,0 10,10 0 1 1 20,0 z"
     sodipodi:ry="10"
     sodipodi:rx="10"
     sodipodi:cy="35"
     sodipodi:cx="490"
     id="path4499"
     style="fill:#ffffff;fill-opacity:1;stroke:#000000;stroke-width:1;stroke-miterlimit:4;stroke-opacity:1;stroke-dasharray:none;stroke-dashoffset:0"
     sodipodi:type="arc" />
  <path
     sodipodi:type="arc"
     style="fill:#ffffff;fill-opacity:1;stroke:#000000;stroke-width:1;stroke-miterlimit:4;stroke-opacity:1;stroke-dasharray:none;stroke-dashoffset:0"
     id="path4501"
     sodipodi:cx="490"
     sodipodi:cy="35"
     sodipodi:rx="10"
     sodipodi:ry="10"
     d="m 500,35 a 10,10 0 1 1 -20,0 10,10 0 1 1 20,0 z"
     transform="matrix(0.8,0,0,0.8,217.6,225.6)" />
  <path
     transform="matrix(0.8,0,0,0.8,185.6,273.6)"
     d="m 500,35 a 10,10 0 1 1 -20,0 10,10 0 1 1 20,0 z"
     sodipodi:ry="10"
     sodipodi:rx="10"
     sodipodi:cy="35"
     sodipodi:cx="490"
     id="path4503"
     style="fill:#ffffff;fill-opacity:1;stroke:#000000;stroke-width:1;stroke-miterlimit:4;stroke-opacity:1;stroke-dasharray:none;stroke-dashoffset:0"
     sodipodi:type="arc" />
  <path
     sodipodi:type="arc"
     style="fill:#ffffff;fill-opacity:1;stroke:#000000;stroke-width:1;stroke-miterlimit:4;stroke-opacity:1;stroke-dasharray:none;stroke-dashoffset:0"
     id="path4505"
     sodipodi:cx="490"
     sodipodi:cy="35"
     sodipodi:rx="10"
     sodipodi:ry="10"
     d="m 500,35 a 10,10 0 1 1 -20,0 10,10 0 1 1 20,0 z"
     transform="matrix(0.8,0,0,0.8,249.6,321.6)" />
  <path
     sodipodi:type="arc"
     style="fill:#ffffff;fill-opacity:1;stroke:#000000;stroke-width:1;stroke-miterlimit:4;stroke-opacity:1;stroke-dasharray:none;stroke-dashoffset:0"
     id="path4523"
     sodipodi:cx="490"
     sodipodi:cy="35"
     sodipodi:rx="10"
     sodipodi:ry="10"
     d="m 500,35 a 10,10 0 1 1 -20,0 10,10 0 1 1 20,0 z"
     transform="matrix(0.8,0,0,0.8,313.6,273.6)" />
  <path
     transform="matrix(0.8,0,0,0.8,297.6,97.6)"
     d="m 500,35 a 10,10 0 1 1 -20,0 10,10 0 1 1 20,0 z"
     sodipodi:ry="10"
     sodipodi:rx="10"
     sodipodi:cy="35"
     sodipodi:cx="490"
     id="path4521"
     style="fill:#ffffff;fill-opacity:1;stroke:#000000;stroke-width:1;stroke-miterlimit:4;stroke-opacity:1;stroke-dasharray:none;stroke-dashoffset:0"
     sodipodi:type="arc" />
  <path
     transform="matrix(0.8,0,0,0.8,121.6,161.6)"
     d="m 500,35 a 10,10 0 1 1 -20,0 10,10 0 1 1 20,0 z"
     sodipodi:ry="10"
     sodipodi:rx="10"
     sodipodi:cy="35"
     sodipodi:cx="490"
     id="path4517"
     style="fill:#ffffff;fill-opacity:1;stroke:#000000;stroke-width:1;stroke-miterlimit:4;stroke-opacity:1;stroke-dasharray:none;stroke-dashoffset:0"
     sodipodi:type="arc" />
  <path
     sodipodi:type="arc"
     style="fill:#ffffff;fill-opacity:1;stroke:#000000;stroke-width:1;stroke-miterlimit:4;stroke-opacity:1;stroke-dasharray:none;stroke-dashoffset:0"
     id="path4513"
     sodipodi:cx="490"
     sodipodi:cy="35"
     sodipodi:rx="10"
     sodipodi:ry="10"
     d="m 500,35 a 10,10 0 1 1 -20,0 10,10 0 1 1 20,0 z"
     transform="matrix(0.8,0,0,0.8,121.6,241.6)" />
  <text
     xml:space="preserve"
     style="font-size:32px;font-style:normal;font-weight:normal;line-height:125%;letter-spacing:0px;word-spacing:0px;fill:#000000;fill-opacity:1;stroke:none;font-family:Sans"
     x="611.99988"
     y="85.600006"
     id="text4531"
     sodipodi:linespacing="125%"><tspan
       sodipodi:role="line"
       id="tspan4533"
       x="611.99988"
       y="85.600006"
       style="font-size:12.80000019px">{\tt create\_task}</tspan></text>
  <text
     sodipodi:linespacing="125%"
     id="text4539"
     y="149.59998"
     x="579.99988"
     style="font-size:32px;font-style:normal;font-weight:normal;line-height:125%;letter-spacing:0px;word-spacing:0px;fill:#000000;fill-opacity:1;stroke:none;font-family:Sans"
     xml:space="preserve"><tspan
       style="font-size:12.80000019px"
       y="149.59998"
       x="579.99988"
       id="tspan4541"
       sodipodi:role="line">{\tt create\_task}</tspan></text>
  <text
     sodipodi:linespacing="125%"
     id="text4543"
     y="256.79996"
     x="616.7998"
     style="font-size:32px;font-style:normal;font-weight:normal;line-height:125%;letter-spacing:0px;word-spacing:0px;fill:#000000;fill-opacity:1;stroke:none;font-family:Sans"
     xml:space="preserve"><tspan
       style="font-size:12.80000019px"
       y="256.79996"
       x="616.7998"
       id="tspan4545"
       sodipodi:role="line">{\tt wait\_tasks}</tspan></text>
  <text
     xml:space="preserve"
     style="font-size:32px;font-style:normal;font-weight:normal;line-height:125%;letter-spacing:0px;word-spacing:0px;fill:#000000;fill-opacity:1;stroke:none;font-family:Sans"
     x="700"
     y="290.40002"
     id="text4547"
     sodipodi:linespacing="125%"><tspan
       sodipodi:role="line"
       id="tspan4549"
       x="700"
       y="290.40002"
       style="font-size:12.80000019px">{\tt wait\_tasks}</tspan></text>
  <path
     style="fill:none;stroke:#000000;stroke-width:1;stroke-linecap:butt;stroke-linejoin:miter;stroke-miterlimit:4;stroke-opacity:1;stroke-dasharray:3, 3;stroke-dashoffset:0;marker-end:url(#Arrow1Mend)"
     d="m 640,245 c 0,0 -9.81921,26.2575 -10,40 -0.20213,15.36458 10,45 10,45"
     id="path4551"
     inkscape:connector-curvature="0"
     transform="scale(0.8,0.8)"
     sodipodi:nodetypes="cac" />
  <path
     style="fill:none;stroke:#000000;stroke-width:1;stroke-linecap:butt;stroke-linejoin:miter;stroke-miterlimit:4;stroke-opacity:1;stroke-dasharray:3, 3;stroke-dashoffset:0;marker-end:url(#Arrow1Mend)"
     d="m 860,160 c 0,0 16.65037,66.17197 20,100 3.44882,34.82967 0,105 0,105"
     id="path4929"
     inkscape:connector-curvature="0"
     transform="scale(0.8,0.8)"
     sodipodi:nodetypes="cac" />
  <text
     sodipodi:linespacing="125%"
     id="text3023"
     y="104.80001"
     x="570.39954"
     style="font-size:32px;font-style:normal;font-weight:normal;line-height:125%;letter-spacing:0px;word-spacing:0px;fill:#000000;fill-opacity:1;stroke:none;font-family:Sans"
     xml:space="preserve"><tspan
       style="font-size:12.80000019px"
       y="104.80001"
       x="570.39954"
       id="tspan3025"
       sodipodi:role="line">(A)</tspan></text>
  <text
     xml:space="preserve"
     style="font-size:32px;font-style:normal;font-weight:normal;line-height:125%;letter-spacing:0px;word-spacing:0px;fill:#000000;fill-opacity:1;stroke:none;font-family:Sans"
     x="594.3999"
     y="172.00003"
     id="text3027"
     sodipodi:linespacing="125%"><tspan
       sodipodi:role="line"
       id="tspan3029"
       x="594.3999"
       y="172.00003"
       style="font-size:12.80000019px">(B)</tspan></text>
  <text
     sodipodi:linespacing="125%"
     id="text3031"
     y="284.00003"
     x="594.3999"
     style="font-size:32px;font-style:normal;font-weight:normal;line-height:125%;letter-spacing:0px;word-spacing:0px;fill:#000000;fill-opacity:1;stroke:none;font-family:Sans"
     xml:space="preserve"><tspan
       style="font-size:12.80000019px"
       y="284.00003"
       x="594.3999"
       id="tspan3033"
       sodipodi:role="line">(C)</tspan></text>
  <text
     xml:space="preserve"
     style="font-size:32px;font-style:normal;font-weight:normal;line-height:125%;letter-spacing:0px;word-spacing:0px;fill:#000000;fill-opacity:1;stroke:none;font-family:Sans"
     x="610.3999"
     y="322.40005"
     id="text3035"
     sodipodi:linespacing="125%"><tspan
       sodipodi:role="line"
       id="tspan3037"
       x="610.3999"
       y="322.40005"
       style="font-size:12.80000019px">(D)</tspan></text>
</svg>
