<?xml version="1.0" encoding="UTF-8" standalone="no"?>
<!-- Generated by graphviz version 2.36.0 (20140111.2315)
 -->

<!-- Title: %3 Pages: 1 -->

<svg
   width="76.050507pt"
   height="90.884949pt"
   viewBox="0 0 76.050498 90.884948"
   id="svg2"
   version="1.1"
   xmlns="http://www.w3.org/2000/svg"
   xmlns:svg="http://www.w3.org/2000/svg"
   xmlns:rdf="http://www.w3.org/1999/02/22-rdf-syntax-ns#"
   xmlns:cc="http://creativecommons.org/ns#"
   xmlns:dc="http://purl.org/dc/elements/1.1/">
  <metadata
     id="metadata412">
    <rdf:RDF>
      <cc:Work
         rdf:about="">
        <dc:format>image/svg+xml</dc:format>
        <dc:type
           rdf:resource="http://purl.org/dc/dcmitype/StillImage" />
        <dc:title />
      </cc:Work>
    </rdf:RDF>
  </metadata>
  <defs
     id="defs410">
    <marker
       style="overflow:visible"
       id="marker12413"
       refX="0"
       refY="0"
       orient="auto">
      <path
         transform="matrix(-0.4,0,0,-0.4,-4,0)"
         style="fill:#000000;fill-opacity:1;fill-rule:evenodd;stroke:#000000;stroke-width:1pt;stroke-opacity:1"
         d="M 0,0 5,-5 -12.5,0 5,5 Z"
         id="path12411" />
    </marker>
    <marker
       orient="auto"
       refY="0"
       refX="0"
       id="marker12109"
       style="overflow:visible">
      <path
         id="path12107"
         d="M 0,0 5,-5 -12.5,0 5,5 Z"
         style="fill:#000000;fill-opacity:1;fill-rule:evenodd;stroke:#000000;stroke-width:1pt;stroke-opacity:1"
         transform="matrix(-0.4,0,0,-0.4,-4,0)" />
    </marker>
    <marker
       style="overflow:visible"
       id="marker11811"
       refX="0"
       refY="0"
       orient="auto">
      <path
         transform="matrix(-0.4,0,0,-0.4,-4,0)"
         style="fill:#000000;fill-opacity:1;fill-rule:evenodd;stroke:#000000;stroke-width:1pt;stroke-opacity:1"
         d="M 0,0 5,-5 -12.5,0 5,5 Z"
         id="path11809" />
    </marker>
    <marker
       style="overflow:visible"
       id="marker11507"
       refX="0"
       refY="0"
       orient="auto">
      <path
         transform="matrix(-0.4,0,0,-0.4,-4,0)"
         style="fill:#000000;fill-opacity:1;fill-rule:evenodd;stroke:#000000;stroke-width:1pt;stroke-opacity:1"
         d="M 0,0 5,-5 -12.5,0 5,5 Z"
         id="path11505" />
    </marker>
    <marker
       orient="auto"
       refY="0"
       refX="0"
       id="marker11221"
       style="overflow:visible">
      <path
         id="path11219"
         d="M 0,0 5,-5 -12.5,0 5,5 Z"
         style="fill:#000000;fill-opacity:1;fill-rule:evenodd;stroke:#000000;stroke-width:1pt;stroke-opacity:1"
         transform="matrix(-0.4,0,0,-0.4,-4,0)" />
    </marker>
    <marker
       style="overflow:visible"
       id="marker10941"
       refX="0"
       refY="0"
       orient="auto">
      <path
         transform="matrix(-0.4,0,0,-0.4,-4,0)"
         style="fill:#000000;fill-opacity:1;fill-rule:evenodd;stroke:#000000;stroke-width:1pt;stroke-opacity:1"
         d="M 0,0 5,-5 -12.5,0 5,5 Z"
         id="path10939" />
    </marker>
    <marker
       style="overflow:visible"
       id="marker10034"
       refX="0"
       refY="0"
       orient="auto">
      <path
         transform="matrix(-0.4,0,0,-0.4,-4,0)"
         style="fill:#000000;fill-opacity:1;fill-rule:evenodd;stroke:#000000;stroke-width:1pt;stroke-opacity:1"
         d="M 0,0 5,-5 -12.5,0 5,5 Z"
         id="path10032" />
    </marker>
    <marker
       orient="auto"
       refY="0"
       refX="0"
       id="marker6292"
       style="overflow:visible">
      <path
         id="path6290"
         d="M 0,0 5,-5 -12.5,0 5,5 Z"
         style="fill:#000000;fill-opacity:1;fill-rule:evenodd;stroke:#000000;stroke-width:1pt;stroke-opacity:1"
         transform="matrix(-0.4,0,0,-0.4,-4,0)" />
    </marker>
    <marker
       orient="auto"
       refY="0"
       refX="0"
       id="marker3648"
       style="overflow:visible">
      <path
         id="path3646"
         d="M 0,0 5,-5 -12.5,0 5,5 Z"
         style="fill:#000000;fill-opacity:1;fill-rule:evenodd;stroke:#000000;stroke-width:1pt;stroke-opacity:1"
         transform="matrix(-0.4,0,0,-0.4,-4,0)" />
    </marker>
    <marker
       style="overflow:visible"
       id="marker3448"
       refX="0"
       refY="0"
       orient="auto">
      <path
         transform="matrix(-0.4,0,0,-0.4,-4,0)"
         style="fill:#000000;fill-opacity:1;fill-rule:evenodd;stroke:#000000;stroke-width:1pt;stroke-opacity:1"
         d="M 0,0 5,-5 -12.5,0 5,5 Z"
         id="path3446" />
    </marker>
    <marker
       style="overflow:visible"
       id="marker3282"
       refX="0"
       refY="0"
       orient="auto">
      <path
         transform="matrix(-0.4,0,0,-0.4,-4,0)"
         style="fill:#000000;fill-opacity:1;fill-rule:evenodd;stroke:#000000;stroke-width:1pt;stroke-opacity:1"
         d="M 0,0 5,-5 -12.5,0 5,5 Z"
         id="path3280" />
    </marker>
    <marker
       style="overflow:visible"
       id="marker3122"
       refX="0"
       refY="0"
       orient="auto">
      <path
         transform="matrix(-0.4,0,0,-0.4,-4,0)"
         style="fill:#000000;fill-opacity:1;fill-rule:evenodd;stroke:#000000;stroke-width:1pt;stroke-opacity:1"
         d="M 0,0 5,-5 -12.5,0 5,5 Z"
         id="path3120" />
    </marker>
    <marker
       style="overflow:visible"
       id="marker2800"
       refX="0"
       refY="0"
       orient="auto">
      <path
         transform="matrix(-0.4,0,0,-0.4,-4,0)"
         style="fill:#000000;fill-opacity:1;fill-rule:evenodd;stroke:#000000;stroke-width:1pt;stroke-opacity:1"
         d="M 0,0 5,-5 -12.5,0 5,5 Z"
         id="path2798" />
    </marker>
    <marker
       style="overflow:visible"
       id="marker2790"
       refX="0"
       refY="0"
       orient="auto">
      <path
         transform="matrix(-0.4,0,0,-0.4,-4,0)"
         style="fill:#000000;fill-opacity:1;fill-rule:evenodd;stroke:#000000;stroke-width:1pt;stroke-opacity:1"
         d="M 0,0 5,-5 -12.5,0 5,5 Z"
         id="path2788" />
    </marker>
    <marker
       style="overflow:visible"
       id="marker2636"
       refX="0"
       refY="0"
       orient="auto">
      <path
         transform="matrix(-0.4,0,0,-0.4,-4,0)"
         style="fill:#000000;fill-opacity:1;fill-rule:evenodd;stroke:#000000;stroke-width:1pt;stroke-opacity:1"
         d="M 0,0 5,-5 -12.5,0 5,5 Z"
         id="path2634" />
    </marker>
    <marker
       orient="auto"
       refY="0"
       refX="0"
       id="marker2568"
       style="overflow:visible">
      <path
         id="path2566"
         d="M 0,0 5,-5 -12.5,0 5,5 Z"
         style="fill:#000000;fill-opacity:1;fill-rule:evenodd;stroke:#000000;stroke-width:1pt;stroke-opacity:1"
         transform="matrix(-0.4,0,0,-0.4,-4,0)" />
    </marker>
    <marker
       orient="auto"
       refY="0"
       refX="0"
       id="marker1764"
       style="overflow:visible">
      <path
         id="path1762"
         d="M 0,0 5,-5 -12.5,0 5,5 Z"
         style="fill:#000000;fill-opacity:1;fill-rule:evenodd;stroke:#000000;stroke-width:1pt;stroke-opacity:1"
         transform="matrix(-0.4,0,0,-0.4,-4,0)" />
    </marker>
    <marker
       style="overflow:visible"
       id="marker5798"
       refX="0"
       refY="0"
       orient="auto">
      <path
         transform="matrix(-0.4,0,0,-0.4,-4,0)"
         style="fill:#000000;fill-opacity:1;fill-rule:evenodd;stroke:#000000;stroke-width:1pt;stroke-opacity:1"
         d="M 0,0 5,-5 -12.5,0 5,5 Z"
         id="path5800" />
    </marker>
    <marker
       style="overflow:visible"
       id="marker8452"
       refX="0"
       refY="0"
       orient="auto">
      <path
         transform="matrix(-0.4,0,0,-0.4,-4,0)"
         style="fill:#000000;fill-opacity:1;fill-rule:evenodd;stroke:#000000;stroke-width:1pt;stroke-opacity:1"
         d="M 0,0 5,-5 -12.5,0 5,5 Z"
         id="path8454" />
    </marker>
    <marker
       orient="auto"
       refY="0"
       refX="0"
       id="marker5667"
       style="overflow:visible">
      <path
         id="path5669"
         d="M 0,0 5,-5 -12.5,0 5,5 Z"
         style="fill:#000000;fill-opacity:1;fill-rule:evenodd;stroke:#000000;stroke-width:1pt;stroke-opacity:1"
         transform="matrix(-0.4,0,0,-0.4,-4,0)" />
    </marker>
    <marker
       style="overflow:visible"
       id="marker5251"
       refX="0"
       refY="0"
       orient="auto">
      <path
         transform="matrix(-0.4,0,0,-0.4,-4,0)"
         style="fill:#000000;fill-opacity:1;fill-rule:evenodd;stroke:#000000;stroke-width:1pt;stroke-opacity:1"
         d="M 0,0 5,-5 -12.5,0 5,5 Z"
         id="path5253" />
    </marker>
    <marker
       orient="auto"
       refY="0"
       refX="0"
       id="marker5155"
       style="overflow:visible">
      <path
         id="path5157"
         d="M 0,0 5,-5 -12.5,0 5,5 Z"
         style="fill:#000000;fill-opacity:1;fill-rule:evenodd;stroke:#000000;stroke-width:1pt;stroke-opacity:1"
         transform="matrix(-0.4,0,0,-0.4,-4,0)" />
    </marker>
    <marker
       style="overflow:visible"
       id="marker4885"
       refX="0"
       refY="0"
       orient="auto">
      <path
         transform="matrix(-0.4,0,0,-0.4,-4,0)"
         style="fill:#000000;fill-opacity:1;fill-rule:evenodd;stroke:#000000;stroke-width:1pt;stroke-opacity:1"
         d="M 0,0 5,-5 -12.5,0 5,5 Z"
         id="path4887" />
    </marker>
    <marker
       orient="auto"
       refY="0"
       refX="0"
       id="Arrow1Lend"
       style="overflow:visible">
      <path
         id="path4244"
         d="M 0,0 5,-5 -12.5,0 5,5 Z"
         style="fill:#000000;fill-opacity:1;fill-rule:evenodd;stroke:#000000;stroke-width:1pt;stroke-opacity:1"
         transform="matrix(-0.8,0,0,-0.8,-10,0)" />
    </marker>
    <marker
       style="overflow:visible"
       id="marker4885-6"
       refX="0"
       refY="0"
       orient="auto">
      <path
         transform="matrix(-0.4,0,0,-0.4,-4,0)"
         style="fill:#000000;fill-opacity:1;fill-rule:evenodd;stroke:#000000;stroke-width:1pt;stroke-opacity:1"
         d="M 0,0 5,-5 -12.5,0 5,5 Z"
         id="path4887-2" />
    </marker>
    <marker
       style="overflow:visible"
       id="marker4827-2"
       refX="0"
       refY="0"
       orient="auto">
      <path
         transform="matrix(-0.4,0,0,-0.4,-4,0)"
         style="fill:#000000;fill-opacity:1;fill-rule:evenodd;stroke:#000000;stroke-width:1pt;stroke-opacity:1"
         d="M 0,0 5,-5 -12.5,0 5,5 Z"
         id="path4829-7" />
    </marker>
    <marker
       style="overflow:visible"
       id="marker7409"
       refX="0"
       refY="0"
       orient="auto">
      <path
         transform="matrix(-0.4,0,0,-0.4,-4,0)"
         style="fill:#000000;fill-opacity:1;fill-rule:evenodd;stroke:#000000;stroke-width:1pt;stroke-opacity:1"
         d="M 0,0 5,-5 -12.5,0 5,5 Z"
         id="path7411" />
    </marker>
    <marker
       style="overflow:visible"
       id="marker5251-3"
       refX="0"
       refY="0"
       orient="auto">
      <path
         transform="matrix(-0.4,0,0,-0.4,-4,0)"
         style="fill:#000000;fill-opacity:1;fill-rule:evenodd;stroke:#000000;stroke-width:1pt;stroke-opacity:1"
         d="M 0,0 5,-5 -12.5,0 5,5 Z"
         id="path5253-6" />
    </marker>
    <marker
       orient="auto"
       refY="0"
       refX="0"
       id="marker5155-0"
       style="overflow:visible">
      <path
         id="path5157-6"
         d="M 0,0 5,-5 -12.5,0 5,5 Z"
         style="fill:#000000;fill-opacity:1;fill-rule:evenodd;stroke:#000000;stroke-width:1pt;stroke-opacity:1"
         transform="matrix(-0.4,0,0,-0.4,-4,0)" />
    </marker>
    <marker
       orient="auto"
       refY="0"
       refX="0"
       id="marker7419"
       style="overflow:visible">
      <path
         id="path7421"
         d="M 0,0 5,-5 -12.5,0 5,5 Z"
         style="fill:#000000;fill-opacity:1;fill-rule:evenodd;stroke:#000000;stroke-width:1pt;stroke-opacity:1"
         transform="matrix(-0.4,0,0,-0.4,-4,0)" />
    </marker>
    <marker
       orient="auto"
       refY="0"
       refX="0"
       id="marker7423"
       style="overflow:visible">
      <path
         id="path7425"
         d="M 0,0 5,-5 -12.5,0 5,5 Z"
         style="fill:#000000;fill-opacity:1;fill-rule:evenodd;stroke:#000000;stroke-width:1pt;stroke-opacity:1"
         transform="matrix(-0.4,0,0,-0.4,-4,0)" />
    </marker>
  </defs>
  <g
     id="layer1"
     transform="translate(8.7090149,5.1071841)"
     style="display:inline">
    <path
       style="opacity:1;fill:#ffffff;fill-opacity:1;stroke:#000000;stroke-width:0.75;stroke-miterlimit:4;stroke-dasharray:none;stroke-dashoffset:0;stroke-opacity:1"
       id="path1246"
       d="m 14.165814,72.665949 a 3.9004242,3.9004242 0 0 1 -2.096828,5.101433 3.9004242,3.9004242 0 0 1 -5.1017989,-2.095938 3.9004242,3.9004242 0 0 1 2.0950472,-5.102165 3.9004242,3.9004242 0 0 1 5.1025307,2.094157" />
    <path
       d="m 21.665814,72.665949 a 3.9004242,3.9004242 0 0 1 -2.096828,5.101433 3.9004242,3.9004242 0 0 1 -5.101799,-2.095938 3.9004242,3.9004242 0 0 1 2.095047,-5.102165 3.9004242,3.9004242 0 0 1 5.102531,2.094157"
       id="path1250"
       style="opacity:1;fill:#ffffff;fill-opacity:1;stroke:#000000;stroke-width:0.75;stroke-miterlimit:4;stroke-dasharray:none;stroke-dashoffset:0;stroke-opacity:1" />
    <path
       style="opacity:1;fill:#ffffff;fill-opacity:1;stroke:#000000;stroke-width:0.75;stroke-miterlimit:4;stroke-dasharray:none;stroke-dashoffset:0;stroke-opacity:1"
       id="path1256"
       d="m 36.665814,72.665949 a 3.9004242,3.9004242 0 0 1 -2.096828,5.101433 3.9004242,3.9004242 0 0 1 -5.101799,-2.095938 3.9004242,3.9004242 0 0 1 2.095047,-5.102165 3.9004242,3.9004242 0 0 1 5.102531,2.094157" />
    <path
       style="opacity:1;fill:#ffffff;fill-opacity:1;stroke:#000000;stroke-width:0.75;stroke-miterlimit:4;stroke-dasharray:none;stroke-dashoffset:0;stroke-opacity:1"
       id="path1258"
       d="m 44.165814,72.665949 a 3.9004242,3.9004242 0 0 1 -2.096828,5.101433 3.9004242,3.9004242 0 0 1 -5.101799,-2.095938 3.9004242,3.9004242 0 0 1 2.095047,-5.102165 3.9004242,3.9004242 0 0 1 5.102531,2.094157" />
    <path
       d="m 51.665814,72.665949 a 3.9004242,3.9004242 0 0 1 -2.096828,5.101433 3.9004242,3.9004242 0 0 1 -5.101799,-2.095938 3.9004242,3.9004242 0 0 1 2.095047,-5.102165 3.9004242,3.9004242 0 0 1 5.102531,2.094157"
       id="path1260"
       style="opacity:1;fill:#ffffff;fill-opacity:1;stroke:#000000;stroke-width:0.75;stroke-miterlimit:4;stroke-dasharray:none;stroke-dashoffset:0;stroke-opacity:1" />
    <path
       d="m -0.83418569,42.665949 a 3.9004242,3.9004242 0 0 1 -2.09682831,5.101433 3.9004242,3.9004242 0 0 1 -5.1017989,-2.095938 3.9004242,3.9004242 0 0 1 2.0950472,-5.102165 3.9004242,3.9004242 0 0 1 5.10253035,2.094157"
       id="path1262"
       style="opacity:1;fill:#ffffff;fill-opacity:1;stroke:#000000;stroke-width:0.75;stroke-miterlimit:4;stroke-dasharray:none;stroke-dashoffset:0;stroke-opacity:1" />
    <path
       style="opacity:1;fill:#ffffff;fill-opacity:1;stroke:#000000;stroke-width:0.75;stroke-miterlimit:4;stroke-dasharray:none;stroke-dashoffset:0;stroke-opacity:1"
       id="path1264"
       d="M 6.6658145,42.665949 A 3.9004242,3.9004242 0 0 1 4.5689863,47.767382 3.9004242,3.9004242 0 0 1 -0.53281266,45.671444 3.9004242,3.9004242 0 0 1 1.5622346,40.569279 3.9004242,3.9004242 0 0 1 6.6647649,42.663436" />
    <path
       style="opacity:1;fill:#ffffff;fill-opacity:1;stroke:#000000;stroke-width:0.75;stroke-miterlimit:4;stroke-dasharray:none;stroke-dashoffset:0;stroke-opacity:1"
       id="path1266"
       d="m 14.165814,42.665949 a 3.9004242,3.9004242 0 0 1 -2.096828,5.101433 3.9004242,3.9004242 0 0 1 -5.1017989,-2.095938 3.9004242,3.9004242 0 0 1 2.0950472,-5.102165 3.9004242,3.9004242 0 0 1 5.1025307,2.094157" />
    <path
       d="m 21.665814,42.665949 a 3.9004242,3.9004242 0 0 1 -2.096828,5.101433 3.9004242,3.9004242 0 0 1 -5.101799,-2.095938 3.9004242,3.9004242 0 0 1 2.095047,-5.102165 3.9004242,3.9004242 0 0 1 5.102531,2.094157"
       id="path1268"
       style="opacity:1;fill:#ffffff;fill-opacity:1;stroke:#000000;stroke-width:0.75;stroke-miterlimit:4;stroke-dasharray:none;stroke-dashoffset:0;stroke-opacity:1" />
    <path
       d="m 29.165814,42.665949 a 3.9004242,3.9004242 0 0 1 -2.096828,5.101433 3.9004242,3.9004242 0 0 1 -5.101799,-2.095938 3.9004242,3.9004242 0 0 1 2.095047,-5.102165 3.9004242,3.9004242 0 0 1 5.102531,2.094157"
       id="path1270"
       style="opacity:1;fill:#ffffff;fill-opacity:1;stroke:#000000;stroke-width:0.75;stroke-miterlimit:4;stroke-dasharray:none;stroke-dashoffset:0;stroke-opacity:1" />
    <path
       style="opacity:1;fill:#f4d7d7;fill-opacity:1;stroke:#000000;stroke-width:0.75;stroke-miterlimit:4;stroke-dasharray:none;stroke-dashoffset:0;stroke-opacity:1"
       id="path1272"
       d="m 36.665814,42.665949 a 3.9004242,3.9004242 0 0 1 -2.096828,5.101433 3.9004242,3.9004242 0 0 1 -5.101799,-2.095938 3.9004242,3.9004242 0 0 1 2.095047,-5.102165 3.9004242,3.9004242 0 0 1 5.102531,2.094157" />
    <path
       d="m 44.165814,42.665949 a 3.9004242,3.9004242 0 0 1 -2.096828,5.101433 3.9004242,3.9004242 0 0 1 -5.101799,-2.095938 3.9004242,3.9004242 0 0 1 2.095047,-5.102165 3.9004242,3.9004242 0 0 1 5.102531,2.094157"
       id="path1274"
       style="opacity:1;fill:#ffffff;fill-opacity:1;stroke:#000000;stroke-width:0.75;stroke-miterlimit:4;stroke-dasharray:none;stroke-dashoffset:0;stroke-opacity:1" />
    <path
       style="opacity:1;fill:#ffffff;fill-opacity:1;stroke:#000000;stroke-width:0.75;stroke-miterlimit:4;stroke-dasharray:none;stroke-dashoffset:0;stroke-opacity:1"
       id="path1276"
       d="m 51.665814,42.665949 a 3.9004242,3.9004242 0 0 1 -2.096828,5.101433 3.9004242,3.9004242 0 0 1 -5.101799,-2.095938 3.9004242,3.9004242 0 0 1 2.095047,-5.102165 3.9004242,3.9004242 0 0 1 5.102531,2.094157" />
    <path
       style="opacity:1;fill:#ffffff;fill-opacity:1;stroke:#000000;stroke-width:0.75;stroke-miterlimit:4;stroke-dasharray:none;stroke-dashoffset:0;stroke-opacity:1"
       id="path1278"
       d="m 59.165814,42.665949 a 3.9004242,3.9004242 0 0 1 -2.096828,5.101433 3.9004242,3.9004242 0 0 1 -5.101799,-2.095938 3.9004242,3.9004242 0 0 1 2.095047,-5.102165 3.9004242,3.9004242 0 0 1 5.102531,2.094157" />
    <path
       d="m 66.665814,42.665949 a 3.9004242,3.9004242 0 0 1 -2.096828,5.101433 3.9004242,3.9004242 0 0 1 -5.101799,-2.095938 3.9004242,3.9004242 0 0 1 2.095047,-5.102165 3.9004242,3.9004242 0 0 1 5.102531,2.094157"
       id="path1280"
       style="opacity:1;fill:#ffffff;fill-opacity:1;stroke:#000000;stroke-width:0.75;stroke-miterlimit:4;stroke-dasharray:none;stroke-dashoffset:0;stroke-opacity:1" />
    <path
       style="opacity:1;fill:#ffffff;fill-opacity:1;stroke:#000000;stroke-width:0.75;stroke-miterlimit:4;stroke-dasharray:none;stroke-dashoffset:0;stroke-opacity:1"
       id="path1282"
       d="m 32.165814,-2.3340513 a 3.9004242,3.9004242 0 0 1 -2.096828,5.101433 3.9004242,3.9004242 0 0 1 -5.101799,-2.09593777 3.9004242,3.9004242 0 0 1 2.095047,-5.10216473 3.9004242,3.9004242 0 0 1 5.102531,2.0941566" />
    <path
       style="opacity:1;fill:#000000;fill-opacity:1;stroke:#000000;stroke-width:0.375;stroke-miterlimit:4;stroke-dasharray:none;stroke-dashoffset:0;stroke-opacity:1;marker-end:url(#marker5798)"
       d="m 25.415814,74.017651 -14.999999,-30"
       id="path1284" />
    <path
       id="path1304"
       d="m 25.415814,74.017651 7.5,-30"
       style="opacity:1;fill:#000000;fill-opacity:1;stroke:#000000;stroke-width:0.375;stroke-miterlimit:4;stroke-dasharray:none;stroke-dashoffset:0;stroke-opacity:1;marker-end:url(#marker10941)" />
    <path
       style="opacity:1;fill:#000000;fill-opacity:1;stroke:#000000;stroke-width:0.375;stroke-miterlimit:4;stroke-dasharray:none;stroke-dashoffset:0;stroke-opacity:1;marker-end:url(#marker11221)"
       d="m 25.415814,74.017651 22.5,-30"
       id="path1640" />
    <path
       id="path1922"
       d="m 25.415814,74.017651 37.5,-30"
       style="opacity:1;fill:#000000;fill-opacity:1;stroke:#000000;stroke-width:0.375;stroke-miterlimit:4;stroke-dasharray:none;stroke-dashoffset:0;stroke-opacity:1;marker-end:url(#marker11507)" />
    <path
       style="opacity:1;fill:none;fill-opacity:1;stroke:#000000;stroke-width:0.375;stroke-miterlimit:4;stroke-dasharray:1.5, 0.75;stroke-dashoffset:0;stroke-opacity:1;marker-end:url(#marker3648)"
       d="m 10.415815,44.017651 c 0,0 -2.3592895,-10.591627 0,-15 2.126635,-3.973654 9.787333,-3.237007 11.249999,-7.5 1.282843,-3.738892 -4.658177,-7.402896 -3.749999,-11.25 1.218449,-5.1614318 11.249999,-11.24999926 11.249999,-11.24999926"
       id="path2300" />
    <path
       id="path2462"
       d="m 32.915815,44.017651 c 0,0 -5.701179,-9.708767 -4.524881,-14.698341 1.079647,-4.579603 8.715042,-5.623158 9.741706,-10.214929 C 38.925769,15.557096 36.161739,12.08042 34.684299,8.7593574 33.167356,5.3494952 29.165815,-0.98234829 29.165815,-0.98234829"
       style="opacity:1;fill:none;fill-opacity:1;stroke:#000000;stroke-width:0.375;stroke-miterlimit:4;stroke-dasharray:1.5, 0.75;stroke-dashoffset:0;stroke-opacity:1;marker-end:url(#marker11811)" />
    <path
       style="opacity:1;fill:none;fill-opacity:1;stroke:#000000;stroke-width:0.375;stroke-miterlimit:4;stroke-dasharray:1.5, 0.75;stroke-dashoffset:0;stroke-opacity:1;marker-end:url(#marker12109)"
       d="m 47.915814,44.017651 c 0,0 -11.004042,-8.6066 -10.867821,-14.698341 0.09162,-4.097102 6.942072,-5.530086 7.743923,-9.549001 C 45.661581,15.411504 43.640449,10.566768 41.010611,6.9835505 38.195357,3.1476989 29.165815,-0.98234829 29.165815,-0.98234829"
       id="path1010" />
    <path
       id="path1760"
       d="m 62.915814,44.017651 c 0,0 -14.648817,-6.792929 -14.863386,-13.477474 -0.12407,-3.865163 7.122767,-4.58053 8.076886,-8.328134 C 57.220895,17.924515 55.42905,12.801703 52.569985,9.425285 47.273391,3.1702621 30.292324,-0.98234829 30.292324,-0.98234829"
       style="opacity:1;fill:none;fill-opacity:1;stroke:#000000;stroke-width:0.375;stroke-miterlimit:4;stroke-dasharray:1.5, 0.75;stroke-dashoffset:0;stroke-opacity:1;marker-end:url(#marker12413)" />
    <text
       xml:space="preserve"
       style="font-style:normal;font-weight:normal;font-size:6px;line-height:125%;font-family:Sans;letter-spacing:0px;word-spacing:0px;fill:#000000;fill-opacity:1;stroke:none;stroke-width:0.75px;stroke-linecap:butt;stroke-linejoin:miter;stroke-opacity:1"
       x="23.146477"
       y="85.429764"
       id="text4016"><tspan
         id="tspan4014"
         x="23.146477"
         y="85.429764"
         style="stroke-width:0.75px">$x$</tspan></text>
    <text
       id="text4020"
       y="55.01907"
       x="30.27631"
       style="font-style:normal;font-weight:normal;font-size:6px;line-height:125%;font-family:Sans;letter-spacing:0px;word-spacing:0px;fill:#000000;fill-opacity:1;stroke:none;stroke-width:0.75px;stroke-linecap:butt;stroke-linejoin:miter;stroke-opacity:1"
       xml:space="preserve"><tspan
         style="stroke-width:0.75px"
         y="55.01907"
         x="30.27631"
         id="tspan4018">$y$</tspan></text>
    <text
       xml:space="preserve"
       style="font-style:normal;font-weight:normal;font-size:6px;line-height:125%;font-family:Sans;letter-spacing:0px;word-spacing:0px;fill:#000000;fill-opacity:1;stroke:none;stroke-width:0.75px;stroke-linecap:butt;stroke-linejoin:miter;stroke-opacity:1"
       x="18.276312"
       y="2.5190699"
       id="text4024"><tspan
         id="tspan4022"
         x="18.276312"
         y="2.5190699"
         style="stroke-width:0.75px">$f$</tspan></text>
    <path
       d="m 29.165814,72.665949 a 3.9004242,3.9004242 0 0 1 -2.096828,5.101433 3.9004242,3.9004242 0 0 1 -5.101799,-2.095938 3.9004242,3.9004242 0 0 1 2.095047,-5.102165 3.9004242,3.9004242 0 0 1 5.102531,2.094157"
       id="path1254"
       style="opacity:1;fill:#cccccc;fill-opacity:1;stroke:#000000;stroke-width:0.75;stroke-miterlimit:4;stroke-dasharray:none;stroke-dashoffset:0;stroke-opacity:1" />
  </g>
</svg>
