<?xml version="1.0" encoding="UTF-8" standalone="no"?>
<!-- Created with Inkscape (http://www.inkscape.org/) -->

<svg
   id="svg2605"
   viewBox="0 0 131.87994 179.13357"
   version="1.0"
   width="131.87994"
   height="179.13358"
   xmlns="http://www.w3.org/2000/svg"
   xmlns:svg="http://www.w3.org/2000/svg"
   xmlns:rdf="http://www.w3.org/1999/02/22-rdf-syntax-ns#"
   xmlns:cc="http://creativecommons.org/ns#"
   xmlns:dc="http://purl.org/dc/elements/1.1/">
  <defs
     id="defs24" />
  <g
     id="layer1"
     transform="translate(-279.77005,-497.07642)">
    <path
       id="path3350"
       style="fill:#ffffff;stroke:#000000;stroke-width:2;stroke-linecap:round;stroke-linejoin:round;stroke-dashoffset:1.5"
       d="m 317.09,531.19 c -7.59,2.7 -5.93,11.07 0.72,10.72 z" />
    <path
       id="path3352"
       style="fill:#ffffff;stroke:#000000;stroke-width:2;stroke-linecap:round;stroke-linejoin:round;stroke-dashoffset:1.5"
       d="m 375.13,539.34 c 7.67,-2.46 6.27,-10.88 -0.38,-10.73 z" />
    <path
       id="path3354"
       style="fill:#ffffff;stroke:#000000;stroke-width:2;stroke-linecap:round;stroke-linejoin:round;stroke-dashoffset:1.5"
       d="m 318.16,534.41 -1.17,22.2 c -0.44,6.6 -0.89,7.45 -1.33,10.65 14.58,3.58 30.53,2.31 49.6,0.48 4.68,-0.46 7.9,-1.78 11.83,-2.98 l -1.1,-10.57 -2.47,-27.28 z" />
    <path
       id="path3356"
       style="fill:#ffffff;stroke:#000000;stroke-width:2;stroke-linecap:round;stroke-linejoin:round;stroke-dashoffset:1.5"
       d="m 337.45,567.26 c -0.6,4.29 -3.33,18.22 -3.93,22.5 6.9,7.32 18.81,4.6 25.71,0.72 -0.47,-5.64 -3.81,-21.39 -4.28,-26.07 z" />
    <path
       id="path3358"
       style="fill:#ffffff;stroke:#000000;stroke-width:2;stroke-linecap:round;stroke-linejoin:round;stroke-dashoffset:1.5"
       d="m 375.66,534.76 c 0.41,16.36 -9.73,29.92 -26.04,33.21 -13.18,1.8 -24.37,-10.33 -30.17,-22.38 -3.56,-12.19 -3.06,-27.08 7.29,-34.58 10.4,-8.02 25.79,-8.95 36.84,-1.68 9.04,5.69 12.31,14.65 12.08,25.43 z" />
    <ellipse
       id="path3360"
       style="fill:#000000;stroke:#000000;stroke-width:9.2192;stroke-linecap:round;stroke-linejoin:round;stroke-dashoffset:1.5"
       transform="matrix(0.19497,0,0,0.24138,287.08,422.36)"
       cx="313.92856"
       cy="452.36218"
       rx="1.7857143"
       ry="2.1428571" />
    <path
       id="path3362"
       style="fill:#ffffff;stroke:#000000;stroke-width:2;stroke-linecap:round;stroke-linejoin:round;stroke-dashoffset:1.5"
       d="m 317.55,528.08 c 7.19,-1.34 14.51,-3.45 21.23,-6.71 6.11,-2.96 16.26,-6.56 20.32,-10.7 6.13,7.44 7.33,11.18 16.21,15.88 -1.83,-30.71 -30.46,-34.35 -47.44,-21.46 -6.92,5.26 -10.4,11.92 -10.32,22.99 z" />
    <path
       id="path3364"
       style="fill:#ffffff;stroke:#000000;stroke-width:2;stroke-linecap:round;stroke-linejoin:round;stroke-dashoffset:1.5"
       d="m 401.48,511.14 c -1.75,0.3 -2.12,0.62 -2.77,2.09 l -2.32,12.94 -4.53,-4.44 c -1.59,-0.41 -2.36,0.75 -2.43,1.82 l 5.42,11.43 -0.44,2.45 10.51,5.3 5.73,-14.07 c -1.15,-3.36 -4.59,-5.14 -8.79,-5.2 l 2.12,-9.5 c -0.1,-2.1 -1.02,-2.46 -2.5,-2.82 z" />
    <path
       id="path3366"
       style="fill:#ffffff;stroke:#000000;stroke-width:2;stroke-linecap:round;stroke-linejoin:round;stroke-dashoffset:1.5"
       d="m 393.52,536.57 -8.68,28.22 c -5.85,3.57 -11.69,7.14 -17.53,10.72 l -8.79,1.09 c -7.11,14.56 -14.15,19.12 -23.92,0 -4.67,-0.36 -10.43,0.75 -16.04,2.28 -7.42,15.45 -11.79,32.19 -16.1,48.75 h 10 3.56 60.3 l -1.41,-32.5 c 8.11,-3.85 14.8,-9.01 21.96,-15.72 3.74,-12.39 7.6,-24.76 9.5,-37.15 z" />
    <path
       id="path3368"
       style="fill:#ffffff;stroke:#000000;stroke-width:2;stroke-linecap:round;stroke-linejoin:round;stroke-dashoffset:1.5"
       d="M 318.52,579.76 Z" />
    <path
       id="path3370"
       style="fill:#000000;stroke:#000000;stroke-width:2;stroke-linecap:round;stroke-linejoin:round;stroke-dashoffset:1.5"
       d="m 323.16,599.41 -3.21,26.78" />
    <path
       id="path3372"
       style="fill:#ffffff;stroke:#000000;stroke-width:1.6;stroke-linecap:round;stroke-linejoin:round;stroke-dashoffset:1.5"
       d="m 343.9,553.62 c 6.25,8.63 12.03,6.65 15.72,-0.93 -4.7,1.41 -10.09,1.43 -15.72,0.93 z" />
    <path
       id="path3374"
       style="fill:#ffffff;stroke:#000000;stroke-width:2;stroke-linecap:round;stroke-linejoin:round;stroke-dashoffset:1.5"
       d="m 299.35,616.95 83.87,-1.16 17.8,42.23 -120.25,0.8 z" />
    <ellipse
       id="path3376"
       style="fill:#000000;stroke:#000000;stroke-width:9.2192;stroke-linecap:round;stroke-linejoin:round;stroke-dashoffset:1.5"
       transform="matrix(0.19497,0,0,0.24138,295.88,422)"
       cx="313.92856"
       cy="452.36218"
       rx="1.7857143"
       ry="2.1428571" />
    <path
       id="path3378"
       style="fill:#ffffff;stroke:#000000;stroke-width:1.5;stroke-linecap:round;stroke-linejoin:round;stroke-dashoffset:1.5"
       d="m 350.96,540.69 c 0.89,1.61 3.93,1.75 5.84,-0.28" />
    <path
       id="path2525"
       style="fill:#ffffff;stroke:#000000;stroke-width:2;stroke-linecap:round;stroke-linejoin:round;stroke-dashoffset:1.5"
       d="m 281.06,658.53 0.75,16.68 118.7,-0.46 0.55,-17.14 z" />
    <path
       id="path2531"
       style="fill:#ffffff;stroke:#000000;stroke-width:2;stroke-linecap:round;stroke-linejoin:round;stroke-dashoffset:1.5"
       d="m 330.34,623.43 -8.57,29.28 42.14,-0.71 -6.42,-29.29 z" />
  </g>
  <metadata
     id="metadata21">
    <rdf:RDF>
      <cc:Work>
        <dc:format>image/svg+xml</dc:format>
        <dc:type
           rdf:resource="http://purl.org/dc/dcmitype/StillImage" />
        <cc:license
           rdf:resource="http://creativecommons.org/licenses/publicdomain/" />
        <dc:publisher>
          <cc:Agent
             rdf:about="http://openclipart.org/">
            <dc:title>Openclipart</dc:title>
          </cc:Agent>
        </dc:publisher>
        <dc:title>Élève posant une question / Student asking a question</dc:title>
        <dc:date>2010-04-23T01:32:24</dc:date>
        <dc:description />
        <dc:source>https://openclipart.org/detail/50287/Élève-posant-une-question-/-student-asking-a-question-by-lmproulx</dc:source>
        <dc:creator>
          <cc:Agent>
            <dc:title>lmproulx</dc:title>
          </cc:Agent>
        </dc:creator>
        <dc:subject>
          <rdf:Bag>
            <rdf:li>black and white</rdf:li>
            <rdf:li>colouring book</rdf:li>
            <rdf:li>girl</rdf:li>
            <rdf:li>outline</rdf:li>
            <rdf:li>people</rdf:li>
            <rdf:li>question</rdf:li>
            <rdf:li>school</rdf:li>
            <rdf:li>student</rdf:li>
          </rdf:Bag>
        </dc:subject>
      </cc:Work>
      <cc:License
         rdf:about="http://creativecommons.org/licenses/publicdomain/">
        <cc:permits
           rdf:resource="http://creativecommons.org/ns#Reproduction" />
        <cc:permits
           rdf:resource="http://creativecommons.org/ns#Distribution" />
        <cc:permits
           rdf:resource="http://creativecommons.org/ns#DerivativeWorks" />
      </cc:License>
    </rdf:RDF>
  </metadata>
</svg>
