<?xml version="1.0" encoding="UTF-8" standalone="no"?>
<!-- Created with Inkscape (http://www.inkscape.org/) -->

<svg
   width="106.56879mm"
   height="3.2676287mm"
   id="svg2"
   version="1.1"
   xmlns="http://www.w3.org/2000/svg"
   xmlns:svg="http://www.w3.org/2000/svg"
   xmlns:rdf="http://www.w3.org/1999/02/22-rdf-syntax-ns#"
   xmlns:cc="http://creativecommons.org/ns#"
   xmlns:dc="http://purl.org/dc/elements/1.1/">
  <defs
     id="defs4">
    <marker
       orient="auto"
       refY="0"
       refX="0"
       id="Arrow1Mstart"
       style="overflow:visible">
      <path
         id="path4159"
         d="M 0,0 5,-5 -12.5,0 5,5 Z"
         style="fill-rule:evenodd;stroke:#000000;stroke-width:1pt"
         transform="matrix(0.4,0,0,0.4,4,0)" />
    </marker>
    <marker
       orient="auto"
       refY="0"
       refX="0"
       id="Arrow1Lstart"
       style="overflow:visible">
      <path
         id="path4153"
         d="M 0,0 5,-5 -12.5,0 5,5 Z"
         style="fill-rule:evenodd;stroke:#000000;stroke-width:1pt"
         transform="matrix(0.8,0,0,0.8,10,0)" />
    </marker>
    <marker
       orient="auto"
       refY="0"
       refX="0"
       id="Arrow1Mend"
       style="overflow:visible">
      <path
         id="path5026"
         d="M 0,0 5,-5 -12.5,0 5,5 Z"
         style="fill-rule:evenodd;stroke:#000000;stroke-width:1pt"
         transform="matrix(-0.4,0,0,-0.4,-4,0)" />
    </marker>
    <marker
       orient="auto"
       refY="0"
       refX="0"
       id="Arrow1Lend"
       style="overflow:visible">
      <path
         id="path5020"
         d="M 0,0 5,-5 -12.5,0 5,5 Z"
         style="fill-rule:evenodd;stroke:#000000;stroke-width:1pt"
         transform="matrix(-0.8,0,0,-0.8,-10,0)" />
    </marker>
  </defs>
  <metadata
     id="metadata7">
    <rdf:RDF>
      <cc:Work
         rdf:about="">
        <dc:format>image/svg+xml</dc:format>
        <dc:type
           rdf:resource="http://purl.org/dc/dcmitype/StillImage" />
        <dc:title />
      </cc:Work>
    </rdf:RDF>
  </metadata>
  <g
     id="layer1"
     transform="translate(-149.19098,-31.130125)">
    <path
       id="path4028"
       d="m 515,42.362183 -5,-10 h 10 z"
       style="fill:#800000;stroke:#000000;stroke-width:1px;stroke-linecap:butt;stroke-linejoin:miter;stroke-opacity:1" />
    <path
       style="fill:#800000;fill-opacity:1;stroke:#000000;stroke-width:1;stroke-miterlimit:4;stroke-dasharray:none;stroke-dashoffset:0;stroke-opacity:1"
       id="path4575"
       d="m 70,52.362183 -4.446921,-1.507995 -3.763277,2.808362 0.06001,-4.695269 -3.833827,-2.711257 4.484011,-1.393841 1.393841,-4.484012 2.711258,3.833828 4.695269,-0.06001 -2.808362,3.763277 z"
       transform="matrix(0.79369151,0.13758,-0.13758,0.79369151,199.26893,-8.798233)" />
    <circle
       style="fill:#800000;fill-opacity:1;stroke:#000000;stroke-width:1;stroke-miterlimit:4;stroke-dasharray:none;stroke-dashoffset:0;stroke-opacity:1"
       id="path4573"
       transform="translate(124)"
       cx="70"
       cy="37.362183"
       r="5" />
    <path
       style="fill:#800000;stroke:#000000;stroke-width:1px;stroke-linecap:butt;stroke-linejoin:miter;stroke-opacity:1"
       d="m 155,32.362183 -5,10 h 10 z"
       id="path3972" />
    <path
       transform="matrix(0.79369151,0.13758,-0.13758,0.79369151,279.26893,-8.798233)"
       d="m 70,52.362183 -4.446921,-1.507995 -3.763277,2.808362 0.06001,-4.695269 -3.833827,-2.711257 4.484011,-1.393841 1.393841,-4.484012 2.711258,3.833828 4.695269,-0.06001 -2.808362,3.763277 z"
       id="path3986"
       style="fill:#800000;fill-opacity:1;stroke:#000000;stroke-width:1;stroke-miterlimit:4;stroke-dasharray:none;stroke-dashoffset:0;stroke-opacity:1" />
    <circle
       transform="translate(204)"
       id="path3988"
       style="fill:#800000;fill-opacity:1;stroke:#000000;stroke-width:1;stroke-miterlimit:4;stroke-dasharray:none;stroke-dashoffset:0;stroke-opacity:1"
       cx="70"
       cy="37.362183"
       r="5" />
    <path
       style="fill:#800000;fill-opacity:1;stroke:#000000;stroke-width:1;stroke-miterlimit:4;stroke-dasharray:none;stroke-dashoffset:0;stroke-opacity:1"
       id="path4002"
       d="m 70,52.362183 -4.446921,-1.507995 -3.763277,2.808362 0.06001,-4.695269 -3.833827,-2.711257 4.484011,-1.393841 1.393841,-4.484012 2.711258,3.833828 4.695269,-0.06001 -2.808362,3.763277 z"
       transform="matrix(0.79369151,0.13758,-0.13758,0.79369151,359.26893,-8.798233)" />
    <circle
       style="fill:#800000;fill-opacity:1;stroke:#000000;stroke-width:1;stroke-miterlimit:4;stroke-dasharray:none;stroke-dashoffset:0;stroke-opacity:1"
       id="path4004"
       transform="translate(284)"
       cx="70"
       cy="37.362183"
       r="5" />
    <path
       transform="matrix(0.79369151,0.13758,-0.13758,0.79369151,439.26893,-8.798233)"
       d="m 70,52.362183 -4.446921,-1.507995 -3.763277,2.808362 0.06001,-4.695269 -3.833827,-2.711257 4.484011,-1.393841 1.393841,-4.484012 2.711258,3.833828 4.695269,-0.06001 -2.808362,3.763277 z"
       id="path4018"
       style="fill:#800000;fill-opacity:1;stroke:#000000;stroke-width:1;stroke-miterlimit:4;stroke-dasharray:none;stroke-dashoffset:0;stroke-opacity:1" />
    <circle
       transform="translate(364)"
       id="path4020"
       style="fill:#800000;fill-opacity:1;stroke:#000000;stroke-width:1;stroke-miterlimit:4;stroke-dasharray:none;stroke-dashoffset:0;stroke-opacity:1"
       cx="70"
       cy="37.362183"
       r="5" />
    <path
       style="fill:none;stroke:#000000;stroke-width:1px;stroke-linecap:butt;stroke-linejoin:miter;stroke-opacity:1;marker-end:url(#Arrow1Mend)"
       d="m 160,37.362183 h 30"
       id="path3330" />
    <path
       style="fill:none;stroke:#000000;stroke-width:1px;stroke-linecap:butt;stroke-linejoin:miter;stroke-opacity:1;marker-end:url(#Arrow1Mend)"
       d="m 200,37.362183 h 40"
       id="path4312" />
    <path
       style="fill:none;stroke:#000000;stroke-width:1px;stroke-linecap:butt;stroke-linejoin:miter;stroke-opacity:1;marker-end:url(#Arrow1Mend)"
       d="m 250,37.362183 h 20"
       id="path4503" />
    <path
       id="path4693"
       d="m 280,37.362183 h 40"
       style="fill:none;stroke:#000000;stroke-width:1px;stroke-linecap:butt;stroke-linejoin:miter;stroke-opacity:1;marker-end:url(#Arrow1Mend)" />
    <path
       id="path4695"
       d="m 330,37.362183 h 20"
       style="fill:none;stroke:#000000;stroke-width:1px;stroke-linecap:butt;stroke-linejoin:miter;stroke-opacity:1;marker-end:url(#Arrow1Mend)" />
    <path
       style="fill:none;stroke:#000000;stroke-width:1px;stroke-linecap:butt;stroke-linejoin:miter;stroke-opacity:1;marker-end:url(#Arrow1Mend)"
       d="m 360,37.362183 h 40"
       id="path4697" />
    <path
       style="fill:none;stroke:#000000;stroke-width:1px;stroke-linecap:butt;stroke-linejoin:miter;stroke-opacity:1;marker-end:url(#Arrow1Mend)"
       d="m 410,37.362183 h 20"
       id="path4699" />
    <path
       id="path4701"
       d="m 440,37.362183 h 40"
       style="fill:none;stroke:#000000;stroke-width:1px;stroke-linecap:butt;stroke-linejoin:miter;stroke-opacity:1;marker-end:url(#Arrow1Mend)" />
    <path
       id="path4703"
       d="m 490,37.362183 h 20"
       style="fill:none;stroke:#000000;stroke-width:1px;stroke-linecap:butt;stroke-linejoin:miter;stroke-opacity:1;marker-end:url(#Arrow1Mend)" />
    <path
       id="path4705"
       d="m 520,37.362183 h 30"
       style="fill:none;stroke:#000000;stroke-width:1px;stroke-linecap:butt;stroke-linejoin:miter;stroke-opacity:1;marker-end:url(#Arrow1Mend)" />
  </g>
</svg>
