<?xml version="1.0" encoding="UTF-8" standalone="no"?>
<!-- Created with Inkscape (http://www.inkscape.org/) -->

<svg
   width="286.1759mm"
   height="169.82689mm"
   id="svg2"
   version="1.1"
   xmlns="http://www.w3.org/2000/svg"
   xmlns:svg="http://www.w3.org/2000/svg"
   xmlns:rdf="http://www.w3.org/1999/02/22-rdf-syntax-ns#"
   xmlns:cc="http://creativecommons.org/ns#"
   xmlns:dc="http://purl.org/dc/elements/1.1/">
  <defs
     id="defs4">
    <marker
       orient="auto"
       refY="0"
       refX="0"
       id="Arrow1Mend"
       style="overflow:visible">
      <path
         id="path10810"
         d="M 0,0 5,-5 -12.5,0 5,5 Z"
         style="fill-rule:evenodd;stroke:#000000;stroke-width:1pt"
         transform="matrix(-0.4,0,0,-0.4,-4,0)" />
    </marker>
    <marker
       orient="auto"
       refY="0"
       refX="0"
       id="Arrow1Lend"
       style="overflow:visible">
      <path
         id="path3763"
         d="M 0,0 5,-5 -12.5,0 5,5 Z"
         style="fill-rule:evenodd;stroke:#000000;stroke-width:1pt"
         transform="matrix(-0.8,0,0,-0.8,-10,0)" />
    </marker>
  </defs>
  <metadata
     id="metadata7">
    <rdf:RDF>
      <cc:Work
         rdf:about="">
        <dc:format>image/svg+xml</dc:format>
        <dc:type
           rdf:resource="http://purl.org/dc/dcmitype/StillImage" />
      </cc:Work>
    </rdf:RDF>
  </metadata>
  <g
     id="layer1"
     transform="translate(0.80488503,-51.301653)">
    <rect
       style="fill:#ffff00;fill-opacity:1;stroke:#000000;stroke-width:2.12106;stroke-miterlimit:4;stroke-dasharray:none;stroke-dashoffset:0;stroke-opacity:1"
       id="rect3029"
       width="270"
       height="400"
       x="35"
       y="52.362183" />
    <path
       style="color:#000000;display:inline;overflow:visible;visibility:visible;fill:none;stroke:#000000;stroke-width:3.14149;stroke-linecap:butt;stroke-linejoin:miter;stroke-miterlimit:4;stroke-dasharray:none;stroke-dashoffset:0;stroke-opacity:1;marker:none;marker-end:url(#Arrow1Lend);enable-background:accumulate"
       d="m 108.51789,91.811667 c 0,0 -52.019081,-2.148719 -49.175536,40.137633 2.843545,42.28636 98.351076,-15.02626 98.351076,40.13764 0,55.1639 -98.351076,-15.02627 -98.351076,40.13764 0,55.1639 98.351076,-15.02627 98.351076,40.13763 0,55.1639 -95.507531,-2.14872 -98.351076,40.13764 -2.843545,42.28635 42.203666,21.72273 49.175536,40.13763 6.97188,18.41491 0,80.27528 0,80.27528"
       id="path3031" />
    <rect
       y="532.36218"
       x="0"
       height="160"
       width="1080"
       id="rect3033"
       style="fill:#00ffff;fill-opacity:1;stroke:#000000;stroke-width:1.60977;stroke-miterlimit:4;stroke-dasharray:none;stroke-dashoffset:0;stroke-opacity:1" />
    <text
       id="text3035"
       y="629.50513"
       x="468.57141"
       style="font-style:normal;font-variant:normal;font-weight:bold;font-stretch:normal;line-height:0%;font-family:'Century Schoolbook L';-inkscape-font-specification:'Century Schoolbook L Medium';letter-spacing:0px;word-spacing:0px;fill:#ff0000;fill-opacity:1;stroke:none"
       xml:space="preserve"><tspan
         style="font-size:64px;line-height:1.25;fill:#ff0000"
         y="629.50513"
         x="468.57141"
         id="tspan3037">x</tspan></text>
    <rect
       y="52.362183"
       x="375"
       height="400"
       width="270"
       id="rect9899"
       style="fill:#ffff00;fill-opacity:1;stroke:#000000;stroke-width:2.12106;stroke-miterlimit:4;stroke-dasharray:none;stroke-dashoffset:0;stroke-opacity:1" />
    <path
       id="path9901"
       d="m 468.51789,91.811667 c 0,0 -52.01908,-2.148719 -49.17554,40.137633 2.84355,42.28636 98.35108,-15.02626 98.35108,40.13764 0,55.1639 -98.35108,-15.02627 -98.35108,40.13764 0,55.1639 98.35108,-15.02627 98.35108,40.13763 0,55.1639 -95.50753,-2.14872 -98.35108,40.13764 -2.84354,42.28635 42.20367,21.72273 49.17554,40.13763 6.97188,18.41491 0,80.27528 0,80.27528"
       style="color:#000000;display:inline;overflow:visible;visibility:visible;fill:none;stroke:#000000;stroke-width:3.14149;stroke-linecap:butt;stroke-linejoin:miter;stroke-miterlimit:4;stroke-dasharray:none;stroke-dashoffset:0;stroke-opacity:1;marker:none;marker-end:url(#Arrow1Lend);enable-background:accumulate" />
    <rect
       style="fill:#ffff00;fill-opacity:1;stroke:#000000;stroke-width:2.12106;stroke-miterlimit:4;stroke-dasharray:none;stroke-dashoffset:0;stroke-opacity:1"
       id="rect9903"
       width="270"
       height="400"
       x="715"
       y="52.362183" />
    <path
       style="color:#000000;display:inline;overflow:visible;visibility:visible;fill:none;stroke:#000000;stroke-width:3.14149;stroke-linecap:butt;stroke-linejoin:miter;stroke-miterlimit:4;stroke-dasharray:none;stroke-dashoffset:0;stroke-opacity:1;marker:none;marker-end:url(#Arrow1Lend);enable-background:accumulate"
       d="m 808.51789,91.811667 c 0,0 -52.01908,-2.148719 -49.17554,40.137633 2.84355,42.28636 98.35108,-15.02626 98.35108,40.13764 0,55.1639 -98.35108,-15.02627 -98.35108,40.13764 0,55.1639 98.35108,-15.02627 98.35108,40.13763 0,55.1639 -95.50753,-2.14872 -98.35108,40.13764 -2.84354,42.28635 42.20367,21.72273 49.17554,40.13763 6.97188,18.41491 0,80.27528 0,80.27528"
       id="path9905" />
    <text
       xml:space="preserve"
       style="font-style:normal;font-weight:normal;line-height:0%;font-family:sans-serif;letter-spacing:0px;word-spacing:0px;fill:#ff0000;fill-opacity:1;stroke:none"
       x="108"
       y="220.36218"
       id="text9907"><tspan
         id="tspan9909"
         x="108"
         y="220.36218"
         style="font-style:normal;font-variant:normal;font-weight:bold;font-stretch:normal;font-size:48px;line-height:1.25;font-family:'Courier New';-inkscape-font-specification:'Courier New Bold';fill:#ff0000">x = 100;</tspan></text>
    <text
       id="text9911"
       y="314.36218"
       x="788"
       style="font-style:normal;font-weight:normal;line-height:0%;font-family:sans-serif;letter-spacing:0px;word-spacing:0px;fill:#ff0000;fill-opacity:1;stroke:none"
       xml:space="preserve"><tspan
         style="font-style:normal;font-variant:normal;font-weight:bold;font-stretch:normal;font-size:48px;line-height:1.25;font-family:'Courier New';-inkscape-font-specification:'Courier New Bold';fill:#ff0000"
         y="314.36218"
         x="788"
         id="tspan9913">... = x;</tspan></text>
    <path
       style="fill:none;stroke:#ff0000;stroke-width:6;stroke-linecap:butt;stroke-linejoin:miter;stroke-miterlimit:4;stroke-dasharray:none;stroke-opacity:1;marker-end:url(#Arrow1Mend)"
       d="m 560,572.36218 360,-240"
       id="path9915" />
    <path
       style="fill:#000000;stroke:#ff0000;stroke-width:6;stroke-linecap:butt;stroke-linejoin:miter;stroke-miterlimit:4;stroke-dasharray:none;stroke-opacity:1;marker-end:url(#Arrow1Mend)"
       d="m 120,252.36218 320,320"
       id="path10613" />
  </g>
</svg>
