<?xml version="1.0" encoding="UTF-8" standalone="no"?>
<!-- Generated by graphviz version 2.36.0 (20140111.2315)
 -->

<!-- Title: %3 Pages: 1 -->

<svg
   xmlns:dc="http://purl.org/dc/elements/1.1/"
   xmlns:cc="http://creativecommons.org/ns#"
   xmlns:rdf="http://www.w3.org/1999/02/22-rdf-syntax-ns#"
   xmlns:svg="http://www.w3.org/2000/svg"
   xmlns="http://www.w3.org/2000/svg"
   xmlns:sodipodi="http://sodipodi.sourceforge.net/DTD/sodipodi-0.dtd"
   xmlns:inkscape="http://www.inkscape.org/namespaces/inkscape"
   width="134pt"
   height="296pt"
   viewBox="0.00 0.00 134.00 296.00"
   id="svg2"
   version="1.1"
   inkscape:version="0.48.4 r9939"
   sodipodi:docname="dag_example.svg">
  <metadata
     id="metadata69">
    <rdf:RDF>
      <cc:Work
         rdf:about="">
        <dc:format>image/svg+xml</dc:format>
        <dc:type
           rdf:resource="http://purl.org/dc/dcmitype/StillImage" />
      </cc:Work>
    </rdf:RDF>
  </metadata>
  <defs
     id="defs67">
    <marker
       inkscape:stockid="Arrow1Lend"
       orient="auto"
       refY="0.0"
       refX="0.0"
       id="Arrow1Lend"
       style="overflow:visible;">
      <path
         id="path3863"
         d="M 0.0,0.0 L 5.0,-5.0 L -12.5,0.0 L 5.0,5.0 L 0.0,0.0 z "
         style="fill-rule:evenodd;stroke:#000000;stroke-width:1.0pt;"
         transform="scale(0.8) rotate(180) translate(12.5,0)" />
    </marker>
    <marker
       inkscape:stockid="Arrow1Mend"
       orient="auto"
       refY="0.0"
       refX="0.0"
       id="Arrow1Mend"
       style="overflow:visible;">
      <path
         id="path3869"
         d="M 0.0,0.0 L 5.0,-5.0 L -12.5,0.0 L 5.0,5.0 L 0.0,0.0 z "
         style="fill-rule:evenodd;stroke:#000000;stroke-width:1.0pt;"
         transform="scale(0.4) rotate(180) translate(10,0)" />
    </marker>
  </defs>
  <sodipodi:namedview
     pagecolor="#ffffff"
     bordercolor="#666666"
     borderopacity="1"
     objecttolerance="10"
     gridtolerance="10"
     guidetolerance="10"
     inkscape:pageopacity="0"
     inkscape:pageshadow="2"
     inkscape:window-width="1524"
     inkscape:window-height="1385"
     id="namedview65"
     showgrid="true"
     inkscape:snap-global="true"
     inkscape:zoom="2.5513513"
     inkscape:cx="70.03178"
     inkscape:cy="86.635049"
     inkscape:window-x="65"
     inkscape:window-y="24"
     inkscape:window-maximized="0"
     inkscape:current-layer="svg2">
    <inkscape:grid
       type="xygrid"
       id="grid3056" />
  </sodipodi:namedview>
  <polygon
     points="36,-216 90,-216 90,-288 90,-288 36,-288 "
     id="polygon12"
     style="fill:#ffff00;stroke:#000000"
     transform="translate(4,292)" />
  <text
     x="67"
     y="43.699997"
     font-size="14.00"
     id="text14"
     style="font-size:14px;text-anchor:middle;font-family:'Times,serif'" />
  <text
     xml:space="preserve"
     style="font-size:32px;font-style:normal;font-weight:normal;line-height:125%;letter-spacing:0px;word-spacing:0px;fill:#000000;fill-opacity:1;stroke:none;font-family:Sans"
     x="42.400009"
     y="44"
     id="text3064"
     sodipodi:linespacing="125%"><tspan
       sodipodi:role="line"
       id="tspan3066"
       x="42.400009"
       y="44"
       style="font-size:16px">$P_1$</tspan></text>
  <path
     style="fill:none;stroke:#000000;stroke-width:0.80000001px;stroke-linecap:butt;stroke-linejoin:miter;stroke-opacity:1;marker-end:url(#Arrow1Lend)"
     d="m 84,76 36,40"
     id="path3086"
     inkscape:connector-curvature="0" />
  <path
     inkscape:connector-curvature="0"
     id="path4486"
     d="M 48,76 12,116"
     style="fill:none;stroke:#000000;stroke-width:0.80000001px;stroke-linecap:butt;stroke-linejoin:miter;stroke-opacity:1;marker-end:url(#Arrow1Lend)" />
  <polygon
     transform="translate(52,404)"
     style="fill:#ffff00;stroke:#000000"
     id="polygon4488"
     points="36,-216 90,-216 90,-288 90,-288 36,-288 " />
  <text
     sodipodi:linespacing="125%"
     id="text4490"
     y="156"
     x="90.400009"
     style="font-size:32px;font-style:normal;font-weight:normal;line-height:125%;letter-spacing:0px;word-spacing:0px;fill:#000000;fill-opacity:1;stroke:none;font-family:Sans"
     xml:space="preserve"><tspan
       style="font-size:16px"
       y="156"
       x="90.400009"
       id="tspan4492"
       sodipodi:role="line">$P_2$</tspan></text>
  <path
     inkscape:connector-curvature="0"
     id="path4494"
     d="m 132,188 36,40"
     style="fill:none;stroke:#000000;stroke-width:0.80000001px;stroke-linecap:butt;stroke-linejoin:miter;stroke-opacity:1;marker-end:url(#Arrow1Lend)" />
  <polygon
     points="36,-216 90,-216 90,-288 90,-288 36,-288 "
     id="polygon4496"
     style="fill:#ffff00;stroke:#000000"
     transform="translate(100,516)" />
  <text
     xml:space="preserve"
     style="font-size:32px;font-style:normal;font-weight:normal;line-height:125%;letter-spacing:0px;word-spacing:0px;fill:#000000;fill-opacity:1;stroke:none;font-family:Sans"
     x="138.40001"
     y="268"
     id="text4498"
     sodipodi:linespacing="125%"><tspan
       sodipodi:role="line"
       id="tspan4500"
       x="138.40001"
       y="268"
       style="font-size:16px">$P_3$</tspan></text>
  <polygon
     transform="translate(52,660)"
     style="fill:#ffff00;stroke:#000000"
     id="polygon4504"
     points="36,-216 90,-216 90,-288 90,-288 36,-288 " />
  <text
     sodipodi:linespacing="125%"
     id="text4506"
     y="412"
     x="90.400009"
     style="font-size:32px;font-style:normal;font-weight:normal;line-height:125%;letter-spacing:0px;word-spacing:0px;fill:#000000;fill-opacity:1;stroke:none;font-family:Sans"
     xml:space="preserve"><tspan
       style="font-size:16px"
       y="412"
       x="90.400009"
       id="tspan4508"
       sodipodi:role="line">$P_4$</tspan></text>
  <path
     style="fill:#00ff00;stroke:#000000;stroke-width:0.80000000999999998px;stroke-linecap:butt;stroke-linejoin:miter;stroke-opacity:1"
     d="m -24,127.2 c 17.2982018,-10.03854 48.06139,-16.04586 60,0 8.309517,11.16825 -14.882576,26.38132 -12,40 2.545522,12.02628 24.471752,15.71633 24,28 -0.506544,13.1896 -15.805412,22.94884 -28,28 -13.550233,5.61269 -31.523788,7.71072 -44,0 -7.608452,-4.70228 -12.34325,-15.06232 -12,-24 0.298362,-7.76887 12.184953,-12.2276 12,-20 -0.22873,-9.61208 -15.669045,-14.3909 -16,-24 -0.370019,-10.7433 6.702496,-22.60445 16,-28 z"
     id="path4512"
     inkscape:connector-curvature="0"
     sodipodi:nodetypes="aaaaaaaaaa" />
  <path
     style="fill:none;stroke:#000000;stroke-width:0.80000001px;stroke-linecap:butt;stroke-linejoin:miter;stroke-opacity:1;marker-end:url(#Arrow1Lend)"
     d="M 96,188 60,228"
     id="path4514"
     inkscape:connector-curvature="0" />
  <path
     sodipodi:nodetypes="aaaaaaaaaa"
     inkscape:connector-curvature="0"
     id="path4516"
     d="m 24,239.2 c 17.298202,-10.03854 48.06139,-16.04586 60,0 8.309517,11.16825 -14.882576,26.38132 -12,40 2.545522,12.02628 24.471752,15.71633 24,28 -0.506544,13.1896 -15.805412,22.94884 -28,28 -13.550233,5.61269 -31.523788,7.71072 -44,0 -7.608452,-4.70228 -12.34325,-15.06232 -12,-24 0.298362,-7.76887 12.184953,-12.2276 12,-20 -0.22873,-9.61208 -15.669045,-14.3909 -16,-24 -0.370019,-10.7433 6.702496,-22.60445 16,-28 z"
     style="fill:#00ffff;stroke:#000000;stroke-width:0.80000000999999998px;stroke-linecap:butt;stroke-linejoin:miter;stroke-opacity:1" />
  <text
     sodipodi:linespacing="125%"
     id="text4518"
     y="188"
     x="-21.599991"
     style="font-size:32px;font-style:normal;font-weight:normal;line-height:125%;letter-spacing:0px;word-spacing:0px;fill:#000000;fill-opacity:1;stroke:none;font-family:Sans"
     xml:space="preserve"><tspan
       style="font-size:16px"
       y="188"
       x="-21.599991"
       id="tspan4520"
       sodipodi:role="line">$C_1$</tspan></text>
  <text
     xml:space="preserve"
     style="font-size:32px;font-style:normal;font-weight:normal;line-height:125%;letter-spacing:0px;word-spacing:0px;fill:#000000;fill-opacity:1;stroke:none;font-family:Sans"
     x="26.400009"
     y="300"
     id="text4522"
     sodipodi:linespacing="125%"><tspan
       sodipodi:role="line"
       id="tspan4524"
       x="26.400009"
       y="300"
       style="font-size:16px">$C_2$</tspan></text>
  <path
     style="fill:none;stroke:#000000;stroke-width:1px;stroke-linecap:butt;stroke-linejoin:miter;stroke-opacity:1;marker-end:url(#Arrow1Lend)"
     d="m 210,375 -60,90"
     id="path4526"
     inkscape:connector-curvature="0"
     transform="scale(0.8,0.8)" />
  <path
     style="fill:none;stroke:#000000;stroke-width:1px;stroke-linecap:butt;stroke-linejoin:miter;stroke-opacity:1;marker-end:url(#Arrow1Lend)"
     d="m 65,425 55,40"
     id="path4712"
     inkscape:connector-curvature="0"
     transform="scale(0.8,0.8)" />
  <path
     style="fill:none;stroke:#000000;stroke-width:1px;stroke-linecap:butt;stroke-linejoin:miter;stroke-opacity:1;marker-end:url(#Arrow1Lend)"
     d="m -10,285 c 0,0 -12.467296,29.39278 -15,45 -4.538497,27.96748 -16.18582,61.74496 0,85 27.4134091,39.38633 135,50 135,50"
     id="path4898"
     inkscape:connector-curvature="0"
     transform="scale(0.8,0.8)"
     sodipodi:nodetypes="caac" />
</svg>
