<?xml version="1.0" encoding="UTF-8" standalone="no"?>
<!-- Generated by graphviz version 2.36.0 (20140111.2315)
 -->

<!-- Title: %3 Pages: 1 -->

<svg
   xmlns:dc="http://purl.org/dc/elements/1.1/"
   xmlns:cc="http://creativecommons.org/ns#"
   xmlns:rdf="http://www.w3.org/1999/02/22-rdf-syntax-ns#"
   xmlns:svg="http://www.w3.org/2000/svg"
   xmlns="http://www.w3.org/2000/svg"
   xmlns:sodipodi="http://sodipodi.sourceforge.net/DTD/sodipodi-0.dtd"
   xmlns:inkscape="http://www.inkscape.org/namespaces/inkscape"
   width="1253pt"
   height="260pt"
   viewBox="0.00 0.00 1253.00 260.00"
   id="svg2"
   version="1.1"
   inkscape:version="0.48.4 r9939"
   sodipodi:docname="execution_interval_working_set_2.svg">
  <metadata
     id="metadata412">
    <rdf:RDF>
      <cc:Work
         rdf:about="">
        <dc:format>image/svg+xml</dc:format>
        <dc:type
           rdf:resource="http://purl.org/dc/dcmitype/StillImage" />
        <dc:title></dc:title>
      </cc:Work>
    </rdf:RDF>
  </metadata>
  <defs
     id="defs410">
    <marker
       inkscape:stockid="Arrow1Mend"
       orient="auto"
       refY="0.0"
       refX="0.0"
       id="Arrow1Mend"
       style="overflow:visible;">
      <path
         id="path3787"
         d="M 0.0,0.0 L 5.0,-5.0 L -12.5,0.0 L 5.0,5.0 L 0.0,0.0 z "
         style="fill-rule:evenodd;stroke:#000000;stroke-width:1.0pt;"
         transform="scale(0.4) rotate(180) translate(10,0)" />
    </marker>
    <marker
       inkscape:stockid="Arrow1Send"
       orient="auto"
       refY="0.0"
       refX="0.0"
       id="Arrow1Send"
       style="overflow:visible;">
      <path
         id="path3793"
         d="M 0.0,0.0 L 5.0,-5.0 L -12.5,0.0 L 5.0,5.0 L 0.0,0.0 z "
         style="fill-rule:evenodd;stroke:#000000;stroke-width:1.0pt;"
         transform="scale(0.2) rotate(180) translate(6,0)" />
    </marker>
    <marker
       inkscape:stockid="Arrow1Lend"
       orient="auto"
       refY="0.0"
       refX="0.0"
       id="Arrow1Lend"
       style="overflow:visible;">
      <path
         id="path3947"
         d="M 0.0,0.0 L 5.0,-5.0 L -12.5,0.0 L 5.0,5.0 L 0.0,0.0 z "
         style="fill-rule:evenodd;stroke:#000000;stroke-width:1.0pt;"
         transform="scale(0.8) rotate(180) translate(12.5,0)" />
    </marker>
  </defs>
  <sodipodi:namedview
     pagecolor="#ffffff"
     bordercolor="#666666"
     borderopacity="1"
     objecttolerance="10"
     gridtolerance="10"
     guidetolerance="10"
     inkscape:pageopacity="0"
     inkscape:pageshadow="2"
     inkscape:window-width="2495"
     inkscape:window-height="1416"
     id="namedview408"
     showgrid="true"
     inkscape:zoom="1.4454909"
     inkscape:cx="334.30136"
     inkscape:cy="123.36551"
     inkscape:window-x="65"
     inkscape:window-y="24"
     inkscape:window-maximized="1"
     inkscape:current-layer="svg2"
     inkscape:snap-global="true">
    <inkscape:grid
       type="xygrid"
       id="grid3134" />
  </sodipodi:namedview>
  <rect
     style="opacity:0.50000000000000000;fill:#ffffff;stroke:#000000;stroke-width:1;stroke-miterlimit:4;stroke-opacity:1;stroke-dasharray:3, 3;stroke-dashoffset:0"
     id="rect19022"
     width="780"
     height="270"
     x="40"
     y="-85"
     transform="scale(0.8,0.8)" />
  <path
     style="fill:#000000;stroke:#000000;stroke-width:4;stroke-linecap:butt;stroke-linejoin:miter;stroke-opacity:1;marker-end:url(#Arrow1Mend);stroke-miterlimit:4;stroke-dasharray:none"
     d="m 110,35 680,0"
     id="path2998"
     inkscape:connector-curvature="0"
     transform="scale(0.8,0.8)" />
  <text
     sodipodi:linespacing="125%"
     id="text17490"
     y="60"
     x="48"
     style="font-size:32px;font-style:normal;font-weight:normal;line-height:125%;letter-spacing:0px;word-spacing:0px;fill:#000000;fill-opacity:1;stroke:none;font-family:Sans"
     xml:space="preserve"><tspan
       y="60"
       x="48"
       id="tspan17492"
       sodipodi:role="line">execution</tspan></text>
  <path
     sodipodi:type="arc"
     style="opacity:0.5;fill:#000000;fill-opacity:1;stroke:#000000;stroke-width:1;stroke-miterlimit:4;stroke-opacity:1;stroke-dasharray:none;stroke-dashoffset:0"
     id="path18022"
     sodipodi:cx="147.2435"
     sodipodi:cy="112.20623"
     sodipodi:rx="11.251164"
     sodipodi:ry="11.251164"
     d="m 158.49466,112.20623 a 11.251164,11.251164 0 1 1 -22.50232,0 11.251164,11.251164 0 1 1 22.50232,0 z"
     transform="matrix(0.8,0,0,0.8,-11.2,-62.4)" />
  <path
     transform="matrix(0.8,0,0,0.8,20.8,-62.4)"
     d="m 158.49466,112.20623 a 11.251164,11.251164 0 1 1 -22.50232,0 11.251164,11.251164 0 1 1 22.50232,0 z"
     sodipodi:ry="11.251164"
     sodipodi:rx="11.251164"
     sodipodi:cy="112.20623"
     sodipodi:cx="147.2435"
     id="path18024"
     style="opacity:0.5;fill:#000000;fill-opacity:1;stroke:#000000;stroke-width:1;stroke-miterlimit:4;stroke-opacity:1;stroke-dasharray:none;stroke-dashoffset:0"
     sodipodi:type="arc" />
  <path
     sodipodi:type="arc"
     style="opacity:0.5;fill:#000000;fill-opacity:1;stroke:#000000;stroke-width:1;stroke-miterlimit:4;stroke-opacity:1;stroke-dasharray:none;stroke-dashoffset:0"
     id="path18026"
     sodipodi:cx="147.2435"
     sodipodi:cy="112.20623"
     sodipodi:rx="11.251164"
     sodipodi:ry="11.251164"
     d="m 158.49466,112.20623 a 11.251164,11.251164 0 1 1 -22.50232,0 11.251164,11.251164 0 1 1 22.50232,0 z"
     transform="matrix(0.8,0,0,0.8,68.8,-62.4)" />
  <path
     transform="matrix(0.8,0,0,0.8,100.8,-62.4)"
     d="m 158.49466,112.20623 a 11.251164,11.251164 0 1 1 -22.50232,0 11.251164,11.251164 0 1 1 22.50232,0 z"
     sodipodi:ry="11.251164"
     sodipodi:rx="11.251164"
     sodipodi:cy="112.20623"
     sodipodi:cx="147.2435"
     id="path18028"
     style="opacity:0.5;fill:#000000;fill-opacity:1;stroke:#000000;stroke-width:1;stroke-miterlimit:4;stroke-opacity:1;stroke-dasharray:none;stroke-dashoffset:0"
     sodipodi:type="arc" />
  <path
     sodipodi:type="arc"
     style="opacity:0.5;fill:#000000;fill-opacity:1;stroke:#000000;stroke-width:1;stroke-miterlimit:4;stroke-opacity:1;stroke-dasharray:none;stroke-dashoffset:0"
     id="path18030"
     sodipodi:cx="147.2435"
     sodipodi:cy="112.20623"
     sodipodi:rx="11.251164"
     sodipodi:ry="11.251164"
     d="m 158.49466,112.20623 a 11.251164,11.251164 0 1 1 -22.50232,0 11.251164,11.251164 0 1 1 22.50232,0 z"
     transform="matrix(0.8,0,0,0.8,132.8,-62.4)" />
  <path
     transform="matrix(0.8,0,0,0.8,164.8,-62.4)"
     d="m 158.49466,112.20623 a 11.251164,11.251164 0 1 1 -22.50232,0 11.251164,11.251164 0 1 1 22.50232,0 z"
     sodipodi:ry="11.251164"
     sodipodi:rx="11.251164"
     sodipodi:cy="112.20623"
     sodipodi:cx="147.2435"
     id="path18032"
     style="opacity:0.5;fill:#000000;fill-opacity:1;stroke:#000000;stroke-width:1;stroke-miterlimit:4;stroke-opacity:1;stroke-dasharray:none;stroke-dashoffset:0"
     sodipodi:type="arc" />
  <path
     transform="matrix(0.8,0,0,0.8,372.8,-62.4)"
     d="m 158.49466,112.20623 a 11.251164,11.251164 0 1 1 -22.50232,0 11.251164,11.251164 0 1 1 22.50232,0 z"
     sodipodi:ry="11.251164"
     sodipodi:rx="11.251164"
     sodipodi:cy="112.20623"
     sodipodi:cx="147.2435"
     id="path18034"
     style="opacity:0.5;fill:#000000;fill-opacity:1;stroke:#000000;stroke-width:1;stroke-miterlimit:4;stroke-opacity:1;stroke-dasharray:none;stroke-dashoffset:0"
     sodipodi:type="arc" />
  <path
     sodipodi:type="arc"
     style="opacity:0.5;fill:#000000;fill-opacity:1;stroke:#000000;stroke-width:1;stroke-miterlimit:4;stroke-opacity:1;stroke-dasharray:none;stroke-dashoffset:0"
     id="path18036"
     sodipodi:cx="147.2435"
     sodipodi:cy="112.20623"
     sodipodi:rx="11.251164"
     sodipodi:ry="11.251164"
     d="m 158.49466,112.20623 a 11.251164,11.251164 0 1 1 -22.50232,0 11.251164,11.251164 0 1 1 22.50232,0 z"
     transform="matrix(0.8,0,0,0.8,404.8,-62.4)" />
  <path
     transform="matrix(0.8,0,0,0.8,436.8,-62.4)"
     d="m 158.49466,112.20623 a 11.251164,11.251164 0 1 1 -22.50232,0 11.251164,11.251164 0 1 1 22.50232,0 z"
     sodipodi:ry="11.251164"
     sodipodi:rx="11.251164"
     sodipodi:cy="112.20623"
     sodipodi:cx="147.2435"
     id="path18038"
     style="opacity:0.5;fill:#000000;fill-opacity:1;stroke:#000000;stroke-width:1;stroke-miterlimit:4;stroke-opacity:1;stroke-dasharray:none;stroke-dashoffset:0"
     sodipodi:type="arc" />
  <path
     sodipodi:type="arc"
     style="opacity:0.5;fill:#000000;fill-opacity:1;stroke:#000000;stroke-width:1;stroke-miterlimit:4;stroke-opacity:1;stroke-dasharray:none;stroke-dashoffset:0"
     id="path18040"
     sodipodi:cx="147.2435"
     sodipodi:cy="112.20623"
     sodipodi:rx="11.251164"
     sodipodi:ry="11.251164"
     d="m 158.49466,112.20623 a 11.251164,11.251164 0 1 1 -22.50232,0 11.251164,11.251164 0 1 1 22.50232,0 z"
     transform="matrix(0.8,0,0,0.8,468.8,-62.4)" />
  <path
     sodipodi:type="arc"
     style="opacity:0.50000000000000000;fill:#000000;fill-opacity:1;stroke:#000000;stroke-width:1;stroke-miterlimit:4;stroke-opacity:1;stroke-dasharray:none;stroke-dashoffset:0"
     id="path18042"
     sodipodi:cx="147.2435"
     sodipodi:cy="112.20623"
     sodipodi:rx="11.251164"
     sodipodi:ry="11.251164"
     d="m 158.49466,112.20623 a 11.251164,11.251164 0 1 1 -22.50232,0 11.251164,11.251164 0 1 1 22.50232,0 z"
     transform="matrix(0.8,0,0,0.8,308.8,-62.4)" />
  <path
     transform="matrix(0.8,0,0,0.8,276.8,-62.4)"
     d="m 158.49466,112.20623 a 11.251164,11.251164 0 1 1 -22.50232,0 11.251164,11.251164 0 1 1 22.50232,0 z"
     sodipodi:ry="11.251164"
     sodipodi:rx="11.251164"
     sodipodi:cy="112.20623"
     sodipodi:cx="147.2435"
     id="path18044"
     style="opacity:0.50000000000000000;fill:#000000;fill-opacity:1;stroke:#000000;stroke-width:1;stroke-miterlimit:4;stroke-opacity:1;stroke-dasharray:none;stroke-dashoffset:0"
     sodipodi:type="arc" />
  <path
     sodipodi:type="arc"
     style="opacity:0.50000000000000000;fill:#000000;fill-opacity:1;stroke:#000000;stroke-width:1;stroke-miterlimit:4;stroke-opacity:1;stroke-dasharray:none;stroke-dashoffset:0"
     id="path18046"
     sodipodi:cx="147.2435"
     sodipodi:cy="112.20623"
     sodipodi:rx="11.251164"
     sodipodi:ry="11.251164"
     d="m 158.49466,112.20623 a 11.251164,11.251164 0 1 1 -22.50232,0 11.251164,11.251164 0 1 1 22.50232,0 z"
     transform="matrix(0.8,0,0,0.8,244.8,-62.4)" />
  <path
     transform="matrix(0.8,0,0,0.8,212.8,-62.4)"
     d="m 158.49466,112.20623 a 11.251164,11.251164 0 1 1 -22.50232,0 11.251164,11.251164 0 1 1 22.50232,0 z"
     sodipodi:ry="11.251164"
     sodipodi:rx="11.251164"
     sodipodi:cy="112.20623"
     sodipodi:cx="147.2435"
     id="path18048"
     style="opacity:0.50000000000000000;fill:#000000;fill-opacity:1;stroke:#000000;stroke-width:1;stroke-miterlimit:4;stroke-opacity:1;stroke-dasharray:none;stroke-dashoffset:0"
     sodipodi:type="arc" />
  <text
     sodipodi:linespacing="125%"
     id="text18822"
     y="-4"
     x="64"
     style="font-size:32px;font-style:normal;font-weight:normal;line-height:125%;letter-spacing:0px;word-spacing:0px;fill:#000000;fill-opacity:1;stroke:none;font-family:Sans"
     xml:space="preserve"><tspan
       y="-4"
       x="64"
       id="tspan18824"
       sodipodi:role="line">instructions</tspan></text>
  <path
     style="fill:none;stroke:#000000;stroke-width:1;stroke-linecap:butt;stroke-linejoin:miter;stroke-opacity:1;marker-end:none;stroke-miterlimit:4;stroke-dasharray:3,3;stroke-dashoffset:0"
     d="M 170,0 135,20"
     id="path18826"
     inkscape:connector-curvature="0"
     transform="scale(0.8,0.8)" />
  <path
     style="fill:none;stroke:#000000;stroke-width:1;stroke-linecap:butt;stroke-linejoin:miter;stroke-opacity:1;marker-end:none;stroke-miterlimit:4;stroke-dasharray:3,3;stroke-dashoffset:0"
     d="M 185,0 175,20"
     id="path18828"
     inkscape:connector-curvature="0"
     transform="scale(0.8,0.8)" />
  <path
     style="fill:none;stroke:#000000;stroke-width:1;stroke-linecap:butt;stroke-linejoin:miter;stroke-opacity:1;marker-end:none;stroke-miterlimit:4;stroke-dasharray:3,3;stroke-dashoffset:0"
     d="m 215,0 15,20"
     id="path18830"
     inkscape:connector-curvature="0"
     transform="scale(0.8,0.8)" />
</svg>
