<?xml version="1.0" encoding="UTF-8" standalone="no"?>
<!-- Generated by graphviz version 2.36.0 (20140111.2315)
 -->

<!-- Title: %3 Pages: 1 -->

<svg
   xmlns:dc="http://purl.org/dc/elements/1.1/"
   xmlns:cc="http://creativecommons.org/ns#"
   xmlns:rdf="http://www.w3.org/1999/02/22-rdf-syntax-ns#"
   xmlns:svg="http://www.w3.org/2000/svg"
   xmlns="http://www.w3.org/2000/svg"
   xmlns:sodipodi="http://sodipodi.sourceforge.net/DTD/sodipodi-0.dtd"
   xmlns:inkscape="http://www.inkscape.org/namespaces/inkscape"
   width="1253pt"
   height="260pt"
   viewBox="0.00 0.00 1253.00 260.00"
   id="svg2"
   version="1.1"
   inkscape:version="0.48.4 r9939"
   sodipodi:docname="greedy_theorem_1.svg">
  <metadata
     id="metadata412">
    <rdf:RDF>
      <cc:Work
         rdf:about="">
        <dc:format>image/svg+xml</dc:format>
        <dc:type
           rdf:resource="http://purl.org/dc/dcmitype/StillImage" />
        <dc:title></dc:title>
      </cc:Work>
    </rdf:RDF>
  </metadata>
  <defs
     id="defs410">
    <marker
       inkscape:stockid="Arrow1Mend"
       orient="auto"
       refY="0.0"
       refX="0.0"
       id="Arrow1Mend"
       style="overflow:visible;">
      <path
         id="path3893"
         d="M 0.0,0.0 L 5.0,-5.0 L -12.5,0.0 L 5.0,5.0 L 0.0,0.0 z "
         style="fill-rule:evenodd;stroke:#000000;stroke-width:1.0pt;"
         transform="scale(0.4) rotate(180) translate(10,0)" />
    </marker>
    <marker
       inkscape:stockid="Arrow1Lstart"
       orient="auto"
       refY="0.0"
       refX="0.0"
       id="Arrow1Lstart"
       style="overflow:visible">
      <path
         id="path3884"
         d="M 0.0,0.0 L 5.0,-5.0 L -12.5,0.0 L 5.0,5.0 L 0.0,0.0 z "
         style="fill-rule:evenodd;stroke:#000000;stroke-width:1.0pt"
         transform="scale(0.8) translate(12.5,0)" />
    </marker>
    <marker
       inkscape:stockid="Arrow2Lstart"
       orient="auto"
       refY="0.0"
       refX="0.0"
       id="Arrow2Lstart"
       style="overflow:visible">
      <path
         id="path3902"
         style="fill-rule:evenodd;stroke-width:0.62500000;stroke-linejoin:round"
         d="M 8.7185878,4.0337352 L -2.2072895,0.016013256 L 8.7185884,-4.0017078 C 6.9730900,-1.6296469 6.9831476,1.6157441 8.7185878,4.0337352 z "
         transform="scale(1.1) translate(1,0)" />
    </marker>
    <marker
       inkscape:stockid="Arrow1Lend"
       orient="auto"
       refY="0.0"
       refX="0.0"
       id="Arrow1Lend"
       style="overflow:visible;">
      <path
         id="path3947"
         d="M 0.0,0.0 L 5.0,-5.0 L -12.5,0.0 L 5.0,5.0 L 0.0,0.0 z "
         style="fill-rule:evenodd;stroke:#000000;stroke-width:1.0pt;"
         transform="scale(0.8) rotate(180) translate(12.5,0)" />
    </marker>
  </defs>
  <sodipodi:namedview
     pagecolor="#ffffff"
     bordercolor="#666666"
     borderopacity="1"
     objecttolerance="10"
     gridtolerance="10"
     guidetolerance="10"
     inkscape:pageopacity="0"
     inkscape:pageshadow="2"
     inkscape:window-width="1855"
     inkscape:window-height="1056"
     id="namedview408"
     showgrid="true"
     inkscape:zoom="1.0221164"
     inkscape:cx="475.84018"
     inkscape:cy="45.096536"
     inkscape:window-x="65"
     inkscape:window-y="24"
     inkscape:window-maximized="1"
     inkscape:current-layer="svg2"
     inkscape:snap-global="true">
    <inkscape:grid
       type="xygrid"
       id="grid3134" />
  </sodipodi:namedview>
  <path
     style="fill:none;stroke:#000000;stroke-width:3;stroke-linecap:butt;stroke-linejoin:miter;stroke-opacity:1;stroke-miterlimit:4;stroke-dasharray:none"
     d="m 490,35 -120,20 0,160 120,20 120,-20 0,-160 z"
     id="path8405"
     inkscape:connector-curvature="0"
     transform="scale(0.8,0.8)" />
  <path
     sodipodi:nodetypes="caaaaccccc"
     inkscape:connector-curvature="0"
     id="path8411"
     d="m 296,116 c 0,0 41.2892,-25.825041 64,-24 21.43027,1.722137 34.88129,36.02771 56,32 16.77268,-3.19885 14.95113,-39.055746 32,-40 11.2964,-0.625652 12.68629,24 24,24 7.54247,0 16,-16 16,-16 l 0,-32 -96,-16 -96,16 z"
     style="fill:#00ffff;stroke:#000000;stroke-width:2.4000001;stroke-linecap:butt;stroke-linejoin:miter;stroke-miterlimit:4;stroke-opacity:1;stroke-dasharray:none" />
  <path
     style="fill:#00ff00;stroke:#000000;stroke-width:3;stroke-linecap:butt;stroke-linejoin:miter;stroke-miterlimit:4;stroke-opacity:1;stroke-dasharray:none"
     d="m 370,125 c 0,0 51.70685,-33.257122 80,-30 23.8793,2.748997 36.07997,42.36855 60,40 23.45552,-2.32255 26.42977,-50 50,-50 14.14214,0 15.85786,30 30,30 9.42809,0 20,-20 20,-20 L 610,55 490,35 370,55 z"
     id="path8407"
     inkscape:connector-curvature="0"
     transform="scale(0.8,0.8)"
     sodipodi:nodetypes="caaaaccccc" />
  <text
     xml:space="preserve"
     style="font-size:32px;font-style:normal;font-weight:normal;text-align:end;line-height:125%;letter-spacing:0px;word-spacing:0px;text-anchor:end;fill:#000000;fill-opacity:1;stroke:none;font-family:Sans"
     x="280.3923"
     y="80.604538"
     id="text8945"
     sodipodi:linespacing="125%"><tspan
       sodipodi:role="line"
       id="tspan8947"
       x="280.3923"
       y="80.604538"
       style="font-size:16px;text-align:end;text-anchor:end">terminated</tspan></text>
  <text
     sodipodi:linespacing="125%"
     id="text8949"
     y="111.00454"
     x="280.79858"
     style="font-size:32px;font-style:normal;font-weight:normal;text-align:end;line-height:125%;letter-spacing:0px;word-spacing:0px;text-anchor:end;fill:#000000;fill-opacity:1;stroke:none;font-family:Sans"
     xml:space="preserve"><tspan
       style="font-size:16px;text-align:end;text-anchor:end"
       y="111.00454"
       x="280.79858"
       id="tspan8951"
       sodipodi:role="line">ready</tspan></text>
  <path
     style="fill:none;stroke:#ff0000;stroke-width:3;stroke-linecap:butt;stroke-linejoin:miter;stroke-opacity:1;stroke-miterlimit:4;stroke-dasharray:none"
     d="m 490,35 30,20 -30,30 40,30 -10,30 20,10 -30,20 20,10 -30,20 -10,30"
     id="path8959"
     inkscape:connector-curvature="0"
     transform="scale(0.8,0.8)" />
  <path
     sodipodi:type="arc"
     style="opacity:1;fill:#00ff00;fill-opacity:1;stroke:#000000;stroke-width:1;stroke-miterlimit:4;stroke-opacity:1;stroke-dasharray:none;stroke-dashoffset:0"
     id="path8955"
     sodipodi:cx="490"
     sodipodi:cy="35"
     sodipodi:rx="10"
     sodipodi:ry="10"
     d="m 500,35 a 10,10 0 1 1 -20,0 10,10 0 1 1 20,0 z"
     transform="scale(0.8,0.8)" />
  <path
     transform="matrix(0.8,0,0,0.8,0,160)"
     d="m 500,35 a 10,10 0 1 1 -20,0 10,10 0 1 1 20,0 z"
     sodipodi:ry="10"
     sodipodi:rx="10"
     sodipodi:cy="35"
     sodipodi:cx="490"
     id="path8957"
     style="fill:#ffffff;fill-opacity:1;stroke:#000000;stroke-width:1;stroke-miterlimit:4;stroke-opacity:1;stroke-dasharray:none;stroke-dashoffset:0"
     sodipodi:type="arc" />
  <path
     style="fill:none;stroke:#000000;stroke-width:1px;stroke-linecap:butt;stroke-linejoin:miter;stroke-opacity:1"
     d="m 370,55 -10,40 10,30"
     id="path8961"
     inkscape:connector-curvature="0"
     transform="scale(0.8,0.8)" />
  <path
     style="fill:none;stroke:#000000;stroke-width:1px;stroke-linecap:butt;stroke-linejoin:miter;stroke-opacity:1"
     d="m 370,125 -10,10 10,10"
     id="path8963"
     inkscape:connector-curvature="0"
     transform="scale(0.8,0.8)" />
  <path
     transform="matrix(0.8,0,0,0.8,25.6,86.4)"
     d="m 500,35 a 10,10 0 1 1 -20,0 10,10 0 1 1 20,0 z"
     sodipodi:ry="10"
     sodipodi:rx="10"
     sodipodi:cy="35"
     sodipodi:cx="490"
     id="path8965"
     style="fill:#00ffff;fill-opacity:1;stroke:#000000;stroke-width:1;stroke-miterlimit:4;stroke-opacity:1;stroke-dasharray:none;stroke-dashoffset:0"
     sodipodi:type="arc" />
</svg>
