<?xml version="1.0" encoding="UTF-8" standalone="no"?>
<!-- Created with Inkscape (http://www.inkscape.org/) -->

<svg
   xmlns:dc="http://purl.org/dc/elements/1.1/"
   xmlns:cc="http://creativecommons.org/ns#"
   xmlns:rdf="http://www.w3.org/1999/02/22-rdf-syntax-ns#"
   xmlns:svg="http://www.w3.org/2000/svg"
   xmlns="http://www.w3.org/2000/svg"
   xmlns:sodipodi="http://sodipodi.sourceforge.net/DTD/sodipodi-0.dtd"
   xmlns:inkscape="http://www.inkscape.org/namespaces/inkscape"
   width="210mm"
   height="297mm"
   id="svg2"
   version="1.1"
   inkscape:version="0.48.4 r9939"
   sodipodi:docname="long_chain2.svg">
  <defs
     id="defs4">
    <marker
       inkscape:stockid="Arrow1Mstart"
       orient="auto"
       refY="0.0"
       refX="0.0"
       id="Arrow1Mstart"
       style="overflow:visible">
      <path
         id="path4159"
         d="M 0.0,0.0 L 5.0,-5.0 L -12.5,0.0 L 5.0,5.0 L 0.0,0.0 z "
         style="fill-rule:evenodd;stroke:#000000;stroke-width:1.0pt"
         transform="scale(0.4) translate(10,0)" />
    </marker>
    <marker
       inkscape:stockid="Arrow1Lstart"
       orient="auto"
       refY="0.0"
       refX="0.0"
       id="Arrow1Lstart"
       style="overflow:visible">
      <path
         id="path4153"
         d="M 0.0,0.0 L 5.0,-5.0 L -12.5,0.0 L 5.0,5.0 L 0.0,0.0 z "
         style="fill-rule:evenodd;stroke:#000000;stroke-width:1.0pt"
         transform="scale(0.8) translate(12.5,0)" />
    </marker>
    <marker
       inkscape:stockid="Arrow1Mend"
       orient="auto"
       refY="0.0"
       refX="0.0"
       id="Arrow1Mend"
       style="overflow:visible;">
      <path
         id="path5026"
         d="M 0.0,0.0 L 5.0,-5.0 L -12.5,0.0 L 5.0,5.0 L 0.0,0.0 z "
         style="fill-rule:evenodd;stroke:#000000;stroke-width:1.0pt;"
         transform="scale(0.4) rotate(180) translate(10,0)" />
    </marker>
    <marker
       inkscape:stockid="Arrow1Lend"
       orient="auto"
       refY="0.0"
       refX="0.0"
       id="Arrow1Lend"
       style="overflow:visible;">
      <path
         id="path5020"
         d="M 0.0,0.0 L 5.0,-5.0 L -12.5,0.0 L 5.0,5.0 L 0.0,0.0 z "
         style="fill-rule:evenodd;stroke:#000000;stroke-width:1.0pt;"
         transform="scale(0.8) rotate(180) translate(12.5,0)" />
    </marker>
  </defs>
  <sodipodi:namedview
     id="base"
     pagecolor="#ffffff"
     bordercolor="#666666"
     borderopacity="1.0"
     inkscape:pageopacity="0.0"
     inkscape:pageshadow="2"
     inkscape:zoom="2.8284271"
     inkscape:cx="372.0442"
     inkscape:cy="1003.5216"
     inkscape:document-units="px"
     inkscape:current-layer="layer1"
     showgrid="true"
     showguides="false"
     inkscape:snap-global="true"
     inkscape:window-width="1855"
     inkscape:window-height="1056"
     inkscape:window-x="65"
     inkscape:window-y="24"
     inkscape:window-maximized="1">
    <inkscape:grid
       type="xygrid"
       id="grid2985" />
  </sodipodi:namedview>
  <metadata
     id="metadata7">
    <rdf:RDF>
      <cc:Work
         rdf:about="">
        <dc:format>image/svg+xml</dc:format>
        <dc:type
           rdf:resource="http://purl.org/dc/dcmitype/StillImage" />
        <dc:title></dc:title>
      </cc:Work>
    </rdf:RDF>
  </metadata>
  <g
     inkscape:label="レイヤー 1"
     inkscape:groupmode="layer"
     id="layer1">
    <path
       inkscape:connector-curvature="0"
       id="path4028"
       d="m 515,42.362183 -5,-10 10,0 z"
       style="fill:#800000;stroke:#000000;stroke-width:1px;stroke-linecap:butt;stroke-linejoin:miter;stroke-opacity:1" />
    <path
       sodipodi:type="star"
       style="fill:#800000;fill-opacity:1;stroke:#000000;stroke-width:1;stroke-miterlimit:4;stroke-opacity:1;stroke-dasharray:none;stroke-dashoffset:0"
       id="path4575"
       sodipodi:sides="5"
       sodipodi:cx="65"
       sodipodi:cy="47.362183"
       sodipodi:r1="7.0710678"
       sodipodi:r2="3.5355339"
       sodipodi:arg1="0.78539816"
       sodipodi:arg2="1.4137167"
       inkscape:flatsided="false"
       inkscape:rounded="0"
       inkscape:randomized="0"
       d="m 70,52.362183 -4.446921,-1.507995 -3.763277,2.808362 0.06001,-4.695269 -3.833827,-2.711257 4.484011,-1.393841 1.393841,-4.484012 2.711258,3.833828 4.695269,-0.06001 -2.808362,3.763277 z"
       inkscape:transform-center-x="-0.025620849"
       inkscape:transform-center-y="-0.51948976"
       transform="matrix(0.79369151,0.13758,-0.13758,0.79369151,199.26893,-8.798233)" />
    <path
       sodipodi:type="arc"
       style="fill:#800000;fill-opacity:1;stroke:#000000;stroke-width:1;stroke-miterlimit:4;stroke-opacity:1;stroke-dasharray:none;stroke-dashoffset:0"
       id="path4573"
       sodipodi:cx="70"
       sodipodi:cy="37.362183"
       sodipodi:rx="5"
       sodipodi:ry="5"
       d="m 75,37.362183 a 5,5 0 1 1 -10,0 5,5 0 1 1 10,0 z"
       transform="translate(124,0)" />
    <path
       style="fill:#800000;stroke:#000000;stroke-width:1px;stroke-linecap:butt;stroke-linejoin:miter;stroke-opacity:1"
       d="m 155,32.362183 -5,10 10,0 z"
       id="path3972"
       inkscape:connector-curvature="0" />
    <path
       transform="matrix(0.79369151,0.13758,-0.13758,0.79369151,279.26893,-8.798233)"
       inkscape:transform-center-y="-0.51948976"
       inkscape:transform-center-x="-0.025620849"
       d="m 70,52.362183 -4.446921,-1.507995 -3.763277,2.808362 0.06001,-4.695269 -3.833827,-2.711257 4.484011,-1.393841 1.393841,-4.484012 2.711258,3.833828 4.695269,-0.06001 -2.808362,3.763277 z"
       inkscape:randomized="0"
       inkscape:rounded="0"
       inkscape:flatsided="false"
       sodipodi:arg2="1.4137167"
       sodipodi:arg1="0.78539816"
       sodipodi:r2="3.5355339"
       sodipodi:r1="7.0710678"
       sodipodi:cy="47.362183"
       sodipodi:cx="65"
       sodipodi:sides="5"
       id="path3986"
       style="fill:#800000;fill-opacity:1;stroke:#000000;stroke-width:1;stroke-miterlimit:4;stroke-opacity:1;stroke-dasharray:none;stroke-dashoffset:0"
       sodipodi:type="star" />
    <path
       transform="translate(204,0)"
       d="m 75,37.362183 a 5,5 0 1 1 -10,0 5,5 0 1 1 10,0 z"
       sodipodi:ry="5"
       sodipodi:rx="5"
       sodipodi:cy="37.362183"
       sodipodi:cx="70"
       id="path3988"
       style="fill:#800000;fill-opacity:1;stroke:#000000;stroke-width:1;stroke-miterlimit:4;stroke-opacity:1;stroke-dasharray:none;stroke-dashoffset:0"
       sodipodi:type="arc" />
    <path
       sodipodi:type="star"
       style="fill:#800000;fill-opacity:1;stroke:#000000;stroke-width:1;stroke-miterlimit:4;stroke-opacity:1;stroke-dasharray:none;stroke-dashoffset:0"
       id="path4002"
       sodipodi:sides="5"
       sodipodi:cx="65"
       sodipodi:cy="47.362183"
       sodipodi:r1="7.0710678"
       sodipodi:r2="3.5355339"
       sodipodi:arg1="0.78539816"
       sodipodi:arg2="1.4137167"
       inkscape:flatsided="false"
       inkscape:rounded="0"
       inkscape:randomized="0"
       d="m 70,52.362183 -4.446921,-1.507995 -3.763277,2.808362 0.06001,-4.695269 -3.833827,-2.711257 4.484011,-1.393841 1.393841,-4.484012 2.711258,3.833828 4.695269,-0.06001 -2.808362,3.763277 z"
       inkscape:transform-center-x="-0.025620849"
       inkscape:transform-center-y="-0.51948976"
       transform="matrix(0.79369151,0.13758,-0.13758,0.79369151,359.26893,-8.798233)" />
    <path
       sodipodi:type="arc"
       style="fill:#800000;fill-opacity:1;stroke:#000000;stroke-width:1;stroke-miterlimit:4;stroke-opacity:1;stroke-dasharray:none;stroke-dashoffset:0"
       id="path4004"
       sodipodi:cx="70"
       sodipodi:cy="37.362183"
       sodipodi:rx="5"
       sodipodi:ry="5"
       d="m 75,37.362183 a 5,5 0 1 1 -10,0 5,5 0 1 1 10,0 z"
       transform="translate(284,0)" />
    <path
       transform="matrix(0.79369151,0.13758,-0.13758,0.79369151,439.26893,-8.798233)"
       inkscape:transform-center-y="-0.51948976"
       inkscape:transform-center-x="-0.025620849"
       d="m 70,52.362183 -4.446921,-1.507995 -3.763277,2.808362 0.06001,-4.695269 -3.833827,-2.711257 4.484011,-1.393841 1.393841,-4.484012 2.711258,3.833828 4.695269,-0.06001 -2.808362,3.763277 z"
       inkscape:randomized="0"
       inkscape:rounded="0"
       inkscape:flatsided="false"
       sodipodi:arg2="1.4137167"
       sodipodi:arg1="0.78539816"
       sodipodi:r2="3.5355339"
       sodipodi:r1="7.0710678"
       sodipodi:cy="47.362183"
       sodipodi:cx="65"
       sodipodi:sides="5"
       id="path4018"
       style="fill:#800000;fill-opacity:1;stroke:#000000;stroke-width:1;stroke-miterlimit:4;stroke-opacity:1;stroke-dasharray:none;stroke-dashoffset:0"
       sodipodi:type="star" />
    <path
       transform="translate(364,0)"
       d="m 75,37.362183 a 5,5 0 1 1 -10,0 5,5 0 1 1 10,0 z"
       sodipodi:ry="5"
       sodipodi:rx="5"
       sodipodi:cy="37.362183"
       sodipodi:cx="70"
       id="path4020"
       style="fill:#800000;fill-opacity:1;stroke:#000000;stroke-width:1;stroke-miterlimit:4;stroke-opacity:1;stroke-dasharray:none;stroke-dashoffset:0"
       sodipodi:type="arc" />
    <path
       style="fill:none;stroke:#000000;stroke-width:1px;stroke-linecap:butt;stroke-linejoin:miter;stroke-opacity:1;marker-end:url(#Arrow1Mend)"
       d="m 160,37.362183 30,0"
       id="path3330"
       inkscape:connector-curvature="0" />
    <path
       style="fill:none;stroke:#000000;stroke-width:1px;stroke-linecap:butt;stroke-linejoin:miter;stroke-opacity:1;marker-end:url(#Arrow1Mend)"
       d="m 200,37.362183 40,0"
       id="path4312"
       inkscape:connector-curvature="0" />
    <path
       style="fill:none;stroke:#000000;stroke-width:1px;stroke-linecap:butt;stroke-linejoin:miter;stroke-opacity:1;marker-end:url(#Arrow1Mend)"
       d="m 250,37.362183 20,0"
       id="path4503"
       inkscape:connector-curvature="0" />
    <path
       inkscape:connector-curvature="0"
       id="path4693"
       d="m 280,37.362183 40,0"
       style="fill:none;stroke:#000000;stroke-width:1px;stroke-linecap:butt;stroke-linejoin:miter;stroke-opacity:1;marker-end:url(#Arrow1Mend)" />
    <path
       inkscape:connector-curvature="0"
       id="path4695"
       d="m 330,37.362183 20,0"
       style="fill:none;stroke:#000000;stroke-width:1px;stroke-linecap:butt;stroke-linejoin:miter;stroke-opacity:1;marker-end:url(#Arrow1Mend)" />
    <path
       style="fill:none;stroke:#000000;stroke-width:1px;stroke-linecap:butt;stroke-linejoin:miter;stroke-opacity:1;marker-end:url(#Arrow1Mend)"
       d="m 360,37.362183 40,0"
       id="path4697"
       inkscape:connector-curvature="0" />
    <path
       style="fill:none;stroke:#000000;stroke-width:1px;stroke-linecap:butt;stroke-linejoin:miter;stroke-opacity:1;marker-end:url(#Arrow1Mend)"
       d="m 410,37.362183 20,0"
       id="path4699"
       inkscape:connector-curvature="0" />
    <path
       inkscape:connector-curvature="0"
       id="path4701"
       d="m 440,37.362183 40,0"
       style="fill:none;stroke:#000000;stroke-width:1px;stroke-linecap:butt;stroke-linejoin:miter;stroke-opacity:1;marker-end:url(#Arrow1Mend)" />
    <path
       inkscape:connector-curvature="0"
       id="path4703"
       d="m 490,37.362183 20,0"
       style="fill:none;stroke:#000000;stroke-width:1px;stroke-linecap:butt;stroke-linejoin:miter;stroke-opacity:1;marker-end:url(#Arrow1Mend)" />
    <path
       inkscape:connector-curvature="0"
       id="path4705"
       d="m 520,37.362183 30,0"
       style="fill:none;stroke:#000000;stroke-width:1px;stroke-linecap:butt;stroke-linejoin:miter;stroke-opacity:1;marker-end:url(#Arrow1Mend)" />
    <path
       style="fill:#ff0000;stroke:#000000;stroke-width:1px;stroke-linecap:butt;stroke-linejoin:miter;stroke-opacity:1"
       d="m 515,62.362183 -5,-10 10,0 z"
       id="path4726"
       inkscape:connector-curvature="0" />
    <path
       transform="matrix(0.79369151,0.13758,-0.13758,0.79369151,199.26893,11.201767)"
       inkscape:transform-center-y="-0.51948976"
       inkscape:transform-center-x="-0.025620849"
       d="m 70,52.362183 -4.446921,-1.507995 -3.763277,2.808362 0.06001,-4.695269 -3.833827,-2.711257 4.484011,-1.393841 1.393841,-4.484012 2.711258,3.833828 4.695269,-0.06001 -2.808362,3.763277 z"
       inkscape:randomized="0"
       inkscape:rounded="0"
       inkscape:flatsided="false"
       sodipodi:arg2="1.4137167"
       sodipodi:arg1="0.78539816"
       sodipodi:r2="3.5355339"
       sodipodi:r1="7.0710678"
       sodipodi:cy="47.362183"
       sodipodi:cx="65"
       sodipodi:sides="5"
       id="path4728"
       style="fill:#ff0000;fill-opacity:1;stroke:#000000;stroke-width:1;stroke-miterlimit:4;stroke-opacity:1;stroke-dasharray:none;stroke-dashoffset:0"
       sodipodi:type="star" />
    <path
       transform="translate(124,20)"
       d="m 75,37.362183 a 5,5 0 1 1 -10,0 5,5 0 1 1 10,0 z"
       sodipodi:ry="5"
       sodipodi:rx="5"
       sodipodi:cy="37.362183"
       sodipodi:cx="70"
       id="path4730"
       style="fill:#ff0000;fill-opacity:1;stroke:#000000;stroke-width:1;stroke-miterlimit:4;stroke-opacity:1;stroke-dasharray:none;stroke-dashoffset:0"
       sodipodi:type="arc" />
    <path
       inkscape:connector-curvature="0"
       id="path4732"
       d="m 155,52.362183 -5,10 10,0 z"
       style="fill:#ff0000;stroke:#000000;stroke-width:1px;stroke-linecap:butt;stroke-linejoin:miter;stroke-opacity:1" />
    <path
       sodipodi:type="star"
       style="fill:#ff0000;fill-opacity:1;stroke:#000000;stroke-width:1;stroke-miterlimit:4;stroke-opacity:1;stroke-dasharray:none;stroke-dashoffset:0"
       id="path4734"
       sodipodi:sides="5"
       sodipodi:cx="65"
       sodipodi:cy="47.362183"
       sodipodi:r1="7.0710678"
       sodipodi:r2="3.5355339"
       sodipodi:arg1="0.78539816"
       sodipodi:arg2="1.4137167"
       inkscape:flatsided="false"
       inkscape:rounded="0"
       inkscape:randomized="0"
       d="m 70,52.362183 -4.446921,-1.507995 -3.763277,2.808362 0.06001,-4.695269 -3.833827,-2.711257 4.484011,-1.393841 1.393841,-4.484012 2.711258,3.833828 4.695269,-0.06001 -2.808362,3.763277 z"
       inkscape:transform-center-x="-0.025620849"
       inkscape:transform-center-y="-0.51948976"
       transform="matrix(0.79369151,0.13758,-0.13758,0.79369151,279.26893,11.201767)" />
    <path
       sodipodi:type="arc"
       style="fill:#ff0000;fill-opacity:1;stroke:#000000;stroke-width:1;stroke-miterlimit:4;stroke-opacity:1;stroke-dasharray:none;stroke-dashoffset:0"
       id="path4736"
       sodipodi:cx="70"
       sodipodi:cy="37.362183"
       sodipodi:rx="5"
       sodipodi:ry="5"
       d="m 75,37.362183 a 5,5 0 1 1 -10,0 5,5 0 1 1 10,0 z"
       transform="translate(204,20)" />
    <path
       transform="matrix(0.79369151,0.13758,-0.13758,0.79369151,359.26893,11.201767)"
       inkscape:transform-center-y="-0.51948976"
       inkscape:transform-center-x="-0.025620849"
       d="m 70,52.362183 -4.446921,-1.507995 -3.763277,2.808362 0.06001,-4.695269 -3.833827,-2.711257 4.484011,-1.393841 1.393841,-4.484012 2.711258,3.833828 4.695269,-0.06001 -2.808362,3.763277 z"
       inkscape:randomized="0"
       inkscape:rounded="0"
       inkscape:flatsided="false"
       sodipodi:arg2="1.4137167"
       sodipodi:arg1="0.78539816"
       sodipodi:r2="3.5355339"
       sodipodi:r1="7.0710678"
       sodipodi:cy="47.362183"
       sodipodi:cx="65"
       sodipodi:sides="5"
       id="path4738"
       style="fill:#ff0000;fill-opacity:1;stroke:#000000;stroke-width:1;stroke-miterlimit:4;stroke-opacity:1;stroke-dasharray:none;stroke-dashoffset:0"
       sodipodi:type="star" />
    <path
       transform="translate(284,20)"
       d="m 75,37.362183 a 5,5 0 1 1 -10,0 5,5 0 1 1 10,0 z"
       sodipodi:ry="5"
       sodipodi:rx="5"
       sodipodi:cy="37.362183"
       sodipodi:cx="70"
       id="path4740"
       style="fill:#ff0000;fill-opacity:1;stroke:#000000;stroke-width:1;stroke-miterlimit:4;stroke-opacity:1;stroke-dasharray:none;stroke-dashoffset:0"
       sodipodi:type="arc" />
    <path
       sodipodi:type="star"
       style="fill:#ff0000;fill-opacity:1;stroke:#000000;stroke-width:1;stroke-miterlimit:4;stroke-opacity:1;stroke-dasharray:none;stroke-dashoffset:0"
       id="path4742"
       sodipodi:sides="5"
       sodipodi:cx="65"
       sodipodi:cy="47.362183"
       sodipodi:r1="7.0710678"
       sodipodi:r2="3.5355339"
       sodipodi:arg1="0.78539816"
       sodipodi:arg2="1.4137167"
       inkscape:flatsided="false"
       inkscape:rounded="0"
       inkscape:randomized="0"
       d="m 70,52.362183 -4.446921,-1.507995 -3.763277,2.808362 0.06001,-4.695269 -3.833827,-2.711257 4.484011,-1.393841 1.393841,-4.484012 2.711258,3.833828 4.695269,-0.06001 -2.808362,3.763277 z"
       inkscape:transform-center-x="-0.025620849"
       inkscape:transform-center-y="-0.51948976"
       transform="matrix(0.79369151,0.13758,-0.13758,0.79369151,439.26893,11.201767)" />
    <path
       sodipodi:type="arc"
       style="fill:#ff0000;fill-opacity:1;stroke:#000000;stroke-width:1;stroke-miterlimit:4;stroke-opacity:1;stroke-dasharray:none;stroke-dashoffset:0"
       id="path4744"
       sodipodi:cx="70"
       sodipodi:cy="37.362183"
       sodipodi:rx="5"
       sodipodi:ry="5"
       d="m 75,37.362183 a 5,5 0 1 1 -10,0 5,5 0 1 1 10,0 z"
       transform="translate(364,20)" />
    <path
       inkscape:connector-curvature="0"
       id="path4746"
       d="m 160,57.362183 30,0"
       style="fill:#ff0000;stroke:#000000;stroke-width:1px;stroke-linecap:butt;stroke-linejoin:miter;stroke-opacity:1;marker-end:url(#Arrow1Mend)" />
    <path
       inkscape:connector-curvature="0"
       id="path4748"
       d="m 200,57.362183 40,0"
       style="fill:#ff0000;stroke:#000000;stroke-width:1px;stroke-linecap:butt;stroke-linejoin:miter;stroke-opacity:1;marker-end:url(#Arrow1Mend)" />
    <path
       inkscape:connector-curvature="0"
       id="path4750"
       d="m 250,57.362183 20,0"
       style="fill:#ff0000;stroke:#000000;stroke-width:1px;stroke-linecap:butt;stroke-linejoin:miter;stroke-opacity:1;marker-end:url(#Arrow1Mend)" />
    <path
       style="fill:#ff0000;stroke:#000000;stroke-width:1px;stroke-linecap:butt;stroke-linejoin:miter;stroke-opacity:1;marker-end:url(#Arrow1Mend)"
       d="m 280,57.362183 40,0"
       id="path4752"
       inkscape:connector-curvature="0" />
    <path
       style="fill:#ff0000;stroke:#000000;stroke-width:1px;stroke-linecap:butt;stroke-linejoin:miter;stroke-opacity:1;marker-end:url(#Arrow1Mend)"
       d="m 330,57.362183 20,0"
       id="path4754"
       inkscape:connector-curvature="0" />
    <path
       inkscape:connector-curvature="0"
       id="path4756"
       d="m 360,57.362183 40,0"
       style="fill:#ff0000;stroke:#000000;stroke-width:1px;stroke-linecap:butt;stroke-linejoin:miter;stroke-opacity:1;marker-end:url(#Arrow1Mend)" />
    <path
       inkscape:connector-curvature="0"
       id="path4758"
       d="m 410,57.362183 20,0"
       style="fill:#ff0000;stroke:#000000;stroke-width:1px;stroke-linecap:butt;stroke-linejoin:miter;stroke-opacity:1;marker-end:url(#Arrow1Mend)" />
    <path
       style="fill:#ff0000;stroke:#000000;stroke-width:1px;stroke-linecap:butt;stroke-linejoin:miter;stroke-opacity:1;marker-end:url(#Arrow1Mend)"
       d="m 440,57.362183 40,0"
       id="path4760"
       inkscape:connector-curvature="0" />
    <path
       style="fill:#ff0000;stroke:#000000;stroke-width:1px;stroke-linecap:butt;stroke-linejoin:miter;stroke-opacity:1;marker-end:url(#Arrow1Mend)"
       d="m 490,57.362183 20,0"
       id="path4762"
       inkscape:connector-curvature="0" />
    <path
       style="fill:#ff0000;stroke:#000000;stroke-width:1px;stroke-linecap:butt;stroke-linejoin:miter;stroke-opacity:1;marker-end:url(#Arrow1Mend)"
       d="m 520,57.362183 30,0"
       id="path4764"
       inkscape:connector-curvature="0" />
    <path
       inkscape:connector-curvature="0"
       id="path4766"
       d="m 515,82.362183 -5,-10 10,0 z"
       style="fill:#808000;stroke:#000000;stroke-width:1px;stroke-linecap:butt;stroke-linejoin:miter;stroke-opacity:1" />
    <path
       sodipodi:type="star"
       style="fill:#808000;fill-opacity:1;stroke:#000000;stroke-width:1;stroke-miterlimit:4;stroke-opacity:1;stroke-dasharray:none;stroke-dashoffset:0"
       id="path4768"
       sodipodi:sides="5"
       sodipodi:cx="65"
       sodipodi:cy="47.362183"
       sodipodi:r1="7.0710678"
       sodipodi:r2="3.5355339"
       sodipodi:arg1="0.78539816"
       sodipodi:arg2="1.4137167"
       inkscape:flatsided="false"
       inkscape:rounded="0"
       inkscape:randomized="0"
       d="m 70,52.362183 -4.446921,-1.507995 -3.763277,2.808362 0.06001,-4.695269 -3.833827,-2.711257 4.484011,-1.393841 1.393841,-4.484012 2.711258,3.833828 4.695269,-0.06001 -2.808362,3.763277 z"
       inkscape:transform-center-x="-0.025620849"
       inkscape:transform-center-y="-0.51948976"
       transform="matrix(0.79369151,0.13758,-0.13758,0.79369151,199.26893,31.201767)" />
    <path
       sodipodi:type="arc"
       style="fill:#808000;fill-opacity:1;stroke:#000000;stroke-width:1;stroke-miterlimit:4;stroke-opacity:1;stroke-dasharray:none;stroke-dashoffset:0"
       id="path4770"
       sodipodi:cx="70"
       sodipodi:cy="37.362183"
       sodipodi:rx="5"
       sodipodi:ry="5"
       d="m 75,37.362183 a 5,5 0 1 1 -10,0 5,5 0 1 1 10,0 z"
       transform="translate(124,40)" />
    <path
       style="fill:#808000;stroke:#000000;stroke-width:1px;stroke-linecap:butt;stroke-linejoin:miter;stroke-opacity:1"
       d="m 155,72.362183 -5,10 10,0 z"
       id="path4772"
       inkscape:connector-curvature="0" />
    <path
       transform="matrix(0.79369151,0.13758,-0.13758,0.79369151,279.26893,31.201767)"
       inkscape:transform-center-y="-0.51948976"
       inkscape:transform-center-x="-0.025620849"
       d="m 70,52.362183 -4.446921,-1.507995 -3.763277,2.808362 0.06001,-4.695269 -3.833827,-2.711257 4.484011,-1.393841 1.393841,-4.484012 2.711258,3.833828 4.695269,-0.06001 -2.808362,3.763277 z"
       inkscape:randomized="0"
       inkscape:rounded="0"
       inkscape:flatsided="false"
       sodipodi:arg2="1.4137167"
       sodipodi:arg1="0.78539816"
       sodipodi:r2="3.5355339"
       sodipodi:r1="7.0710678"
       sodipodi:cy="47.362183"
       sodipodi:cx="65"
       sodipodi:sides="5"
       id="path4774"
       style="fill:#808000;fill-opacity:1;stroke:#000000;stroke-width:1;stroke-miterlimit:4;stroke-opacity:1;stroke-dasharray:none;stroke-dashoffset:0"
       sodipodi:type="star" />
    <path
       transform="translate(204,40)"
       d="m 75,37.362183 a 5,5 0 1 1 -10,0 5,5 0 1 1 10,0 z"
       sodipodi:ry="5"
       sodipodi:rx="5"
       sodipodi:cy="37.362183"
       sodipodi:cx="70"
       id="path4776"
       style="fill:#808000;fill-opacity:1;stroke:#000000;stroke-width:1;stroke-miterlimit:4;stroke-opacity:1;stroke-dasharray:none;stroke-dashoffset:0"
       sodipodi:type="arc" />
    <path
       sodipodi:type="star"
       style="fill:#808000;fill-opacity:1;stroke:#000000;stroke-width:1;stroke-miterlimit:4;stroke-opacity:1;stroke-dasharray:none;stroke-dashoffset:0"
       id="path4778"
       sodipodi:sides="5"
       sodipodi:cx="65"
       sodipodi:cy="47.362183"
       sodipodi:r1="7.0710678"
       sodipodi:r2="3.5355339"
       sodipodi:arg1="0.78539816"
       sodipodi:arg2="1.4137167"
       inkscape:flatsided="false"
       inkscape:rounded="0"
       inkscape:randomized="0"
       d="m 70,52.362183 -4.446921,-1.507995 -3.763277,2.808362 0.06001,-4.695269 -3.833827,-2.711257 4.484011,-1.393841 1.393841,-4.484012 2.711258,3.833828 4.695269,-0.06001 -2.808362,3.763277 z"
       inkscape:transform-center-x="-0.025620849"
       inkscape:transform-center-y="-0.51948976"
       transform="matrix(0.79369151,0.13758,-0.13758,0.79369151,359.26893,31.201767)" />
    <path
       sodipodi:type="arc"
       style="fill:#808000;fill-opacity:1;stroke:#000000;stroke-width:1;stroke-miterlimit:4;stroke-opacity:1;stroke-dasharray:none;stroke-dashoffset:0"
       id="path4780"
       sodipodi:cx="70"
       sodipodi:cy="37.362183"
       sodipodi:rx="5"
       sodipodi:ry="5"
       d="m 75,37.362183 a 5,5 0 1 1 -10,0 5,5 0 1 1 10,0 z"
       transform="translate(284,40)" />
    <path
       transform="matrix(0.79369151,0.13758,-0.13758,0.79369151,439.26893,31.201767)"
       inkscape:transform-center-y="-0.51948976"
       inkscape:transform-center-x="-0.025620849"
       d="m 70,52.362183 -4.446921,-1.507995 -3.763277,2.808362 0.06001,-4.695269 -3.833827,-2.711257 4.484011,-1.393841 1.393841,-4.484012 2.711258,3.833828 4.695269,-0.06001 -2.808362,3.763277 z"
       inkscape:randomized="0"
       inkscape:rounded="0"
       inkscape:flatsided="false"
       sodipodi:arg2="1.4137167"
       sodipodi:arg1="0.78539816"
       sodipodi:r2="3.5355339"
       sodipodi:r1="7.0710678"
       sodipodi:cy="47.362183"
       sodipodi:cx="65"
       sodipodi:sides="5"
       id="path4782"
       style="fill:#808000;fill-opacity:1;stroke:#000000;stroke-width:1;stroke-miterlimit:4;stroke-opacity:1;stroke-dasharray:none;stroke-dashoffset:0"
       sodipodi:type="star" />
    <path
       transform="translate(364,40)"
       d="m 75,37.362183 a 5,5 0 1 1 -10,0 5,5 0 1 1 10,0 z"
       sodipodi:ry="5"
       sodipodi:rx="5"
       sodipodi:cy="37.362183"
       sodipodi:cx="70"
       id="path4784"
       style="fill:#808000;fill-opacity:1;stroke:#000000;stroke-width:1;stroke-miterlimit:4;stroke-opacity:1;stroke-dasharray:none;stroke-dashoffset:0"
       sodipodi:type="arc" />
    <path
       style="fill:#808000;stroke:#000000;stroke-width:1px;stroke-linecap:butt;stroke-linejoin:miter;stroke-opacity:1;marker-end:url(#Arrow1Mend)"
       d="m 160,77.362183 30,0"
       id="path4786"
       inkscape:connector-curvature="0" />
    <path
       style="fill:#808000;stroke:#000000;stroke-width:1px;stroke-linecap:butt;stroke-linejoin:miter;stroke-opacity:1;marker-end:url(#Arrow1Mend)"
       d="m 200,77.362183 40,0"
       id="path4788"
       inkscape:connector-curvature="0" />
    <path
       style="fill:#808000;stroke:#000000;stroke-width:1px;stroke-linecap:butt;stroke-linejoin:miter;stroke-opacity:1;marker-end:url(#Arrow1Mend)"
       d="m 250,77.362183 20,0"
       id="path4790"
       inkscape:connector-curvature="0" />
    <path
       inkscape:connector-curvature="0"
       id="path4792"
       d="m 280,77.362183 40,0"
       style="fill:#808000;stroke:#000000;stroke-width:1px;stroke-linecap:butt;stroke-linejoin:miter;stroke-opacity:1;marker-end:url(#Arrow1Mend)" />
    <path
       inkscape:connector-curvature="0"
       id="path4794"
       d="m 330,77.362183 20,0"
       style="fill:#808000;stroke:#000000;stroke-width:1px;stroke-linecap:butt;stroke-linejoin:miter;stroke-opacity:1;marker-end:url(#Arrow1Mend)" />
    <path
       style="fill:#808000;stroke:#000000;stroke-width:1px;stroke-linecap:butt;stroke-linejoin:miter;stroke-opacity:1;marker-end:url(#Arrow1Mend)"
       d="m 360,77.362183 40,0"
       id="path4796"
       inkscape:connector-curvature="0" />
    <path
       style="fill:#808000;stroke:#000000;stroke-width:1px;stroke-linecap:butt;stroke-linejoin:miter;stroke-opacity:1;marker-end:url(#Arrow1Mend)"
       d="m 410,77.362183 20,0"
       id="path4798"
       inkscape:connector-curvature="0" />
    <path
       inkscape:connector-curvature="0"
       id="path4800"
       d="m 440,77.362183 40,0"
       style="fill:#808000;stroke:#000000;stroke-width:1px;stroke-linecap:butt;stroke-linejoin:miter;stroke-opacity:1;marker-end:url(#Arrow1Mend)" />
    <path
       inkscape:connector-curvature="0"
       id="path4802"
       d="m 490,77.362183 20,0"
       style="fill:#808000;stroke:#000000;stroke-width:1px;stroke-linecap:butt;stroke-linejoin:miter;stroke-opacity:1;marker-end:url(#Arrow1Mend)" />
    <path
       inkscape:connector-curvature="0"
       id="path4804"
       d="m 520,77.362183 30,0"
       style="fill:#808000;stroke:#000000;stroke-width:1px;stroke-linecap:butt;stroke-linejoin:miter;stroke-opacity:1;marker-end:url(#Arrow1Mend)" />
    <path
       style="fill:#ffff00;stroke:#000000;stroke-width:1px;stroke-linecap:butt;stroke-linejoin:miter;stroke-opacity:1"
       d="m 515,102.36218 -5,-9.999997 10,0 z"
       id="path4806"
       inkscape:connector-curvature="0" />
    <path
       transform="matrix(0.79369151,0.13758,-0.13758,0.79369151,199.26893,51.201767)"
       inkscape:transform-center-y="-0.51948976"
       inkscape:transform-center-x="-0.025620849"
       d="m 70,52.362183 -4.446921,-1.507995 -3.763277,2.808362 0.06001,-4.695269 -3.833827,-2.711257 4.484011,-1.393841 1.393841,-4.484012 2.711258,3.833828 4.695269,-0.06001 -2.808362,3.763277 z"
       inkscape:randomized="0"
       inkscape:rounded="0"
       inkscape:flatsided="false"
       sodipodi:arg2="1.4137167"
       sodipodi:arg1="0.78539816"
       sodipodi:r2="3.5355339"
       sodipodi:r1="7.0710678"
       sodipodi:cy="47.362183"
       sodipodi:cx="65"
       sodipodi:sides="5"
       id="path4808"
       style="fill:#ffff00;fill-opacity:1;stroke:#000000;stroke-width:1;stroke-miterlimit:4;stroke-opacity:1;stroke-dasharray:none;stroke-dashoffset:0"
       sodipodi:type="star" />
    <path
       transform="translate(124,60)"
       d="m 75,37.362183 a 5,5 0 1 1 -10,0 5,5 0 1 1 10,0 z"
       sodipodi:ry="5"
       sodipodi:rx="5"
       sodipodi:cy="37.362183"
       sodipodi:cx="70"
       id="path4810"
       style="fill:#ffff00;fill-opacity:1;stroke:#000000;stroke-width:1;stroke-miterlimit:4;stroke-opacity:1;stroke-dasharray:none;stroke-dashoffset:0"
       sodipodi:type="arc" />
    <path
       inkscape:connector-curvature="0"
       id="path4812"
       d="m 155,92.362183 -5,9.999997 10,0 z"
       style="fill:#ffff00;stroke:#000000;stroke-width:1px;stroke-linecap:butt;stroke-linejoin:miter;stroke-opacity:1" />
    <path
       sodipodi:type="star"
       style="fill:#ffff00;fill-opacity:1;stroke:#000000;stroke-width:1;stroke-miterlimit:4;stroke-opacity:1;stroke-dasharray:none;stroke-dashoffset:0"
       id="path4814"
       sodipodi:sides="5"
       sodipodi:cx="65"
       sodipodi:cy="47.362183"
       sodipodi:r1="7.0710678"
       sodipodi:r2="3.5355339"
       sodipodi:arg1="0.78539816"
       sodipodi:arg2="1.4137167"
       inkscape:flatsided="false"
       inkscape:rounded="0"
       inkscape:randomized="0"
       d="m 70,52.362183 -4.446921,-1.507995 -3.763277,2.808362 0.06001,-4.695269 -3.833827,-2.711257 4.484011,-1.393841 1.393841,-4.484012 2.711258,3.833828 4.695269,-0.06001 -2.808362,3.763277 z"
       inkscape:transform-center-x="-0.025620849"
       inkscape:transform-center-y="-0.51948976"
       transform="matrix(0.79369151,0.13758,-0.13758,0.79369151,279.26893,51.201767)" />
    <path
       sodipodi:type="arc"
       style="fill:#ffff00;fill-opacity:1;stroke:#000000;stroke-width:1;stroke-miterlimit:4;stroke-opacity:1;stroke-dasharray:none;stroke-dashoffset:0"
       id="path4816"
       sodipodi:cx="70"
       sodipodi:cy="37.362183"
       sodipodi:rx="5"
       sodipodi:ry="5"
       d="m 75,37.362183 a 5,5 0 1 1 -10,0 5,5 0 1 1 10,0 z"
       transform="translate(204,60)" />
    <path
       transform="matrix(0.79369151,0.13758,-0.13758,0.79369151,359.26893,51.201767)"
       inkscape:transform-center-y="-0.51948976"
       inkscape:transform-center-x="-0.025620849"
       d="m 70,52.362183 -4.446921,-1.507995 -3.763277,2.808362 0.06001,-4.695269 -3.833827,-2.711257 4.484011,-1.393841 1.393841,-4.484012 2.711258,3.833828 4.695269,-0.06001 -2.808362,3.763277 z"
       inkscape:randomized="0"
       inkscape:rounded="0"
       inkscape:flatsided="false"
       sodipodi:arg2="1.4137167"
       sodipodi:arg1="0.78539816"
       sodipodi:r2="3.5355339"
       sodipodi:r1="7.0710678"
       sodipodi:cy="47.362183"
       sodipodi:cx="65"
       sodipodi:sides="5"
       id="path4818"
       style="fill:#ffff00;fill-opacity:1;stroke:#000000;stroke-width:1;stroke-miterlimit:4;stroke-opacity:1;stroke-dasharray:none;stroke-dashoffset:0"
       sodipodi:type="star" />
    <path
       transform="translate(284,60)"
       d="m 75,37.362183 a 5,5 0 1 1 -10,0 5,5 0 1 1 10,0 z"
       sodipodi:ry="5"
       sodipodi:rx="5"
       sodipodi:cy="37.362183"
       sodipodi:cx="70"
       id="path4820"
       style="fill:#ffff00;fill-opacity:1;stroke:#000000;stroke-width:1;stroke-miterlimit:4;stroke-opacity:1;stroke-dasharray:none;stroke-dashoffset:0"
       sodipodi:type="arc" />
    <path
       sodipodi:type="star"
       style="fill:#ffff00;fill-opacity:1;stroke:#000000;stroke-width:1;stroke-miterlimit:4;stroke-opacity:1;stroke-dasharray:none;stroke-dashoffset:0"
       id="path4822"
       sodipodi:sides="5"
       sodipodi:cx="65"
       sodipodi:cy="47.362183"
       sodipodi:r1="7.0710678"
       sodipodi:r2="3.5355339"
       sodipodi:arg1="0.78539816"
       sodipodi:arg2="1.4137167"
       inkscape:flatsided="false"
       inkscape:rounded="0"
       inkscape:randomized="0"
       d="m 70,52.362183 -4.446921,-1.507995 -3.763277,2.808362 0.06001,-4.695269 -3.833827,-2.711257 4.484011,-1.393841 1.393841,-4.484012 2.711258,3.833828 4.695269,-0.06001 -2.808362,3.763277 z"
       inkscape:transform-center-x="-0.025620849"
       inkscape:transform-center-y="-0.51948976"
       transform="matrix(0.79369151,0.13758,-0.13758,0.79369151,439.26893,51.201767)" />
    <path
       sodipodi:type="arc"
       style="fill:#ffff00;fill-opacity:1;stroke:#000000;stroke-width:1;stroke-miterlimit:4;stroke-opacity:1;stroke-dasharray:none;stroke-dashoffset:0"
       id="path4824"
       sodipodi:cx="70"
       sodipodi:cy="37.362183"
       sodipodi:rx="5"
       sodipodi:ry="5"
       d="m 75,37.362183 a 5,5 0 1 1 -10,0 5,5 0 1 1 10,0 z"
       transform="translate(364,60)" />
    <path
       inkscape:connector-curvature="0"
       id="path4826"
       d="m 160,97.362183 30,0"
       style="fill:#ffff00;stroke:#000000;stroke-width:1px;stroke-linecap:butt;stroke-linejoin:miter;stroke-opacity:1;marker-end:url(#Arrow1Mend)" />
    <path
       inkscape:connector-curvature="0"
       id="path4828"
       d="m 200,97.362183 40,0"
       style="fill:#ffff00;stroke:#000000;stroke-width:1px;stroke-linecap:butt;stroke-linejoin:miter;stroke-opacity:1;marker-end:url(#Arrow1Mend)" />
    <path
       inkscape:connector-curvature="0"
       id="path4830"
       d="m 250,97.362183 20,0"
       style="fill:#ffff00;stroke:#000000;stroke-width:1px;stroke-linecap:butt;stroke-linejoin:miter;stroke-opacity:1;marker-end:url(#Arrow1Mend)" />
    <path
       style="fill:#ffff00;stroke:#000000;stroke-width:1px;stroke-linecap:butt;stroke-linejoin:miter;stroke-opacity:1;marker-end:url(#Arrow1Mend)"
       d="m 280,97.362183 40,0"
       id="path4832"
       inkscape:connector-curvature="0" />
    <path
       style="fill:#ffff00;stroke:#000000;stroke-width:1px;stroke-linecap:butt;stroke-linejoin:miter;stroke-opacity:1;marker-end:url(#Arrow1Mend)"
       d="m 330,97.362183 20,0"
       id="path4834"
       inkscape:connector-curvature="0" />
    <path
       inkscape:connector-curvature="0"
       id="path4836"
       d="m 360,97.362183 40,0"
       style="fill:#ffff00;stroke:#000000;stroke-width:1px;stroke-linecap:butt;stroke-linejoin:miter;stroke-opacity:1;marker-end:url(#Arrow1Mend)" />
    <path
       inkscape:connector-curvature="0"
       id="path4838"
       d="m 410,97.362183 20,0"
       style="fill:#ffff00;stroke:#000000;stroke-width:1px;stroke-linecap:butt;stroke-linejoin:miter;stroke-opacity:1;marker-end:url(#Arrow1Mend)" />
    <path
       style="fill:#ffff00;stroke:#000000;stroke-width:1px;stroke-linecap:butt;stroke-linejoin:miter;stroke-opacity:1;marker-end:url(#Arrow1Mend)"
       d="m 440,97.362183 40,0"
       id="path4840"
       inkscape:connector-curvature="0" />
    <path
       style="fill:#ffff00;stroke:#000000;stroke-width:1px;stroke-linecap:butt;stroke-linejoin:miter;stroke-opacity:1;marker-end:url(#Arrow1Mend)"
       d="m 490,97.362183 20,0"
       id="path4842"
       inkscape:connector-curvature="0" />
    <path
       style="fill:#ffff00;stroke:#000000;stroke-width:1px;stroke-linecap:butt;stroke-linejoin:miter;stroke-opacity:1;marker-end:url(#Arrow1Mend)"
       d="m 520,97.362183 30,0"
       id="path4844"
       inkscape:connector-curvature="0" />
  </g>
</svg>
